<?xml version="1.0" encoding="utf-8"?>
<svg version="1.1" xmlns:xlink="http://www.w3.org/1999/xlink" width="164px" height="44px" xmlns="http://www.w3.org/2000/svg">
  <defs>
    <filter x="628px" y="710px" width="164px" height="44px" filterUnits="userSpaceOnUse" id="filter5">
      <feOffset dx="1" dy="1" in="SourceAlpha" result="shadowOffsetInner" />
      <feGaussianBlur stdDeviation="1" in="shadowOffsetInner" result="shadowGaussian" />
      <feComposite in2="shadowGaussian" operator="atop" in="SourceAlpha" result="shadowComposite" />
      <feColorMatrix type="matrix" values="0 0 0 0 0  0 0 0 0 0  0 0 0 0 0  0 0 0 0.349019607843137 0  " in="shadowComposite" />
    </filter>
    <g id="widget6">
      <path d="M 629.5 716  A 4.5 4.5 0 0 1 634 711.5 L 784 711.5  A 4.5 4.5 0 0 1 788.5 716 L 788.5 746  A 4.5 4.5 0 0 1 784 750.5 L 634 750.5  A 4.5 4.5 0 0 1 629.5 746 L 629.5 716  Z " fill-rule="nonzero" fill="#ffffff" stroke="none" />
      <path d="M 629.5 716  A 4.5 4.5 0 0 1 634 711.5 L 784 711.5  A 4.5 4.5 0 0 1 788.5 716 L 788.5 746  A 4.5 4.5 0 0 1 784 750.5 L 634 750.5  A 4.5 4.5 0 0 1 629.5 746 L 629.5 716  Z " stroke-width="1" stroke="#797979" fill="none" />
    </g>
  </defs>
  <g transform="matrix(1 0 0 1 -628 -710 )">
    <use xlink:href="#widget6" filter="url(#filter5)" />
    <use xlink:href="#widget6" />
  </g>
</svg>