<?xml version="1.0" encoding="utf-8"?>
<svg version="1.1" xmlns:xlink="http://www.w3.org/1999/xlink" width="25px" height="25px" xmlns="http://www.w3.org/2000/svg">
  <g transform="matrix(1 0 0 1 -846 -546 )">
    <path d="M 8.9311079545455 20.6868489583333  C 9.0376420454545 20.5891927083333  9.09090909090912 20.4644097222223  9 20.3125  L 9 8.85416666666674  C 9.09090909090912 8.70225694444446  9.0376420454545 8.57747395833326  8.9311079545455 8.47981770833326  C 8.82457386363637 8.38216145833326  8.688446969697 8.33333333333326  8.52272727272737 8.33333333333326  L 7.38636363636363 8.33333333333326  C 7.22064393939399 8.33333333333326  7.0845170454545 8.38216145833326  6.9779829545455 8.47981770833326  C 6.87144886363637 8.57747395833326  6.81818181818187 8.70225694444446  7 8.85416666666674  L 7 20.3125  C 6.81818181818187 20.4644097222223  6.87144886363637 20.5891927083333  6.9779829545455 20.6868489583333  C 7.0845170454545 20.7845052083333  7.22064393939399 20.8333333333333  7.38636363636363 20.8333333333333  L 8.52272727272737 20.8333333333333  C 8.688446969697 20.8333333333333  8.82457386363637 20.7845052083333  8.9311079545455 20.6868489583333  Z M 13.4765625 20.6868489583333  C 13.5830965909091 20.5891927083333  13.6363636363636 20.4644097222223  13.6363636363636 20.3125  L 13.6363636363636 8.85416666666674  C 13.6363636363636 8.70225694444446  13.5830965909091 8.57747395833326  13.4765625 8.47981770833326  C 13.3700284090909 8.38216145833326  13.2339015151515 8.33333333333326  13.0681818181819 8.33333333333326  L 11.9318181818181 8.33333333333326  C 11.7660984848485 8.33333333333326  11.6299715909091 8.38216145833326  11.5234375 8.47981770833326  C 11.4169034090909 8.57747395833326  11.3636363636364 8.70225694444446  11.3636363636364 8.85416666666674  L 11.3636363636364 20.3125  C 11.3636363636364 20.4644097222223  11.4169034090909 20.5891927083333  11.5234375 20.6868489583333  C 11.6299715909091 20.7845052083333  11.7660984848485 20.8333333333333  11.9318181818181 20.8333333333333  L 13.0681818181819 20.8333333333333  C 13.2339015151515 20.8333333333333  13.3700284090909 20.7845052083333  13.4765625 20.6868489583333  Z M 18.0220170454545 20.6868489583333  C 18.1285511363636 20.5891927083333  18.1818181818181 20.4644097222223  18 20.3125  L 18 8.85416666666674  C 18.1818181818181 8.70225694444446  18.1285511363636 8.57747395833326  18.0220170454545 8.47981770833326  C 17.9154829545455 8.38216145833326  17.779356060606 8.33333333333326  17.6136363636364 8.33333333333326  L 16.4772727272726 8.33333333333326  C 16.311553030303 8.33333333333326  16.1754261363636 8.38216145833326  16.0688920454545 8.47981770833326  C 15.9623579545455 8.57747395833326  15.9090909090909 8.70225694444446  16 8.85416666666674  L 16 20.3125  C 15.9090909090909 20.4644097222223  15.9623579545455 20.5891927083333  16.0688920454545 20.6868489583333  C 16.1754261363636 20.7845052083333  16.311553030303 20.8333333333333  16.4772727272726 20.8333333333333  L 17.6136363636364 20.8333333333333  C 17.779356060606 20.8333333333333  17.9154829545455 20.7845052083333  18.0220170454545 20.6868489583333  Z M 9.39275568181813 2.26236979166674  L 8.52272727272737 4.16666666666674  L 16.4772727272726 4.16666666666674  L 15.625 2.26236979166674  C 15.5421401515151 2.16471354166674  15.4415246212121 2.10503472222229  15.3231534090909 2.08333333333326  L 9.69460227272737 2.08333333333326  C 9.57623106060601 2.10503472222229  9.475615530303 2.16471354166674  9.39275568181813 2.26236979166674  Z M 24.8401988636364 4.31315104166674  C 24.9467329545455 4.41080729166674  25 4.53559027777771  25 4.6875  L 25 5.72916666666674  C 25 5.88107638888891  24.9467329545455 6.005859375  24.8401988636364 6.103515625  C 24.7336647727274 6.201171875  24.5975378787879 6.25  24.4318181818181 6.25  L 22.7272727272726 6.25  L 22.7272727272726 21.6796875  C 22.7272727272726 22.5802951388889  22.4491003787879 23.3588324652777  21.8927556818181 24.0152994791667  C 21.3364109848485 24.6717664930555  20.6676136363636 25  19.8863636363636 25  L 5.11363636363637 25  C 4.33238636363637 25  3.6635890151515 24.6826171875  3.10724431818187 24.0478515625  C 2.55089962121212 23.4130859375  2.27272727272737 22.6453993055555  2.27272727272737 21.7447916666667  L 2.27272727272737 6.25  L 0.56818181818187 6.25  C 0.402462121212125 6.25  0.266335227272634 6.201171875  0.159801136363626 6.103515625  C 0.0532670454545041 6.005859375  0 5.88107638888891  0 5.72916666666674  L 0 4.6875  C 0 4.53559027777771  0.0532670454545041 4.41080729166674  0.159801136363626 4.31315104166674  C 0.266335227272634 4.21549479166674  0.402462121212125 4.16666666666674  0.56818181818187 4.16666666666674  L 6.0546875 4.16666666666674  L 7.29758522727264 1.44856770833326  C 7.4751420454545 1.04709201388891  7.79474431818187 0.705295138888914  8.2563920454545 0.423177083333258  C 8.71803977272737 0.141059027777715  9.18560606060601 0  9.65909090909088 0  L 15.3409090909091 0  C 15.814393939394 0  16.2819602272726 0.141059027777715  16.7436079545455 0.423177083333258  C 17.2052556818181 0.705295138888914  17.5248579545455 1.04709201388891  17.7024147727274 1.44856770833326  L 18.9453125 4.16666666666674  L 24.4318181818181 4.16666666666674  C 24.5975378787879 4.16666666666674  24.7336647727274 4.21549479166674  24.8401988636364 4.31315104166674  Z " fill-rule="nonzero" fill="#1f6137" stroke="none" transform="matrix(1 0 0 1 846 546 )" />
  </g>
</svg>