<?xml version="1.0" encoding="utf-8"?>
<svg version="1.1" xmlns:xlink="http://www.w3.org/1999/xlink" width="25px" height="25px" xmlns="http://www.w3.org/2000/svg">
  <g transform="matrix(1 0 0 1 -815 -546 )">
    <path d="M 15.4459635416667 15.4459635416667  C 16.259765625 14.6321614583333  16.6666666666667 13.6501736111111  16.6666666666667 12.5  C 16.6666666666667 11.3498263888889  16.259765625 10.3678385416667  15.4459635416667 9.55403645833326  C 14.6321614583333 8.740234375  13.6501736111111 8.33333333333326  12.5 8.33333333333326  C 11.3498263888889 8.33333333333326  10.3678385416667 8.740234375  9.55403645833326 9.55403645833326  C 8.740234375 10.3678385416667  8.33333333333326 11.3498263888889  8.33333333333326 12.5  C 8.33333333333326 13.6501736111111  8.740234375 14.6321614583333  9.55403645833326 15.4459635416667  C 10.3678385416667 16.259765625  11.3498263888889 16.6666666666667  12.5 16.6666666666667  C 13.6501736111111 16.6666666666667  14.6321614583333 16.259765625  15.4459635416667 15.4459635416667  Z M 24.8697916666667 10.3434244791667  C 24.9565972222223 10.4573567708333  25 10.5848524305555  25 10.7259114583333  L 25 14.3391927083333  C 25 14.4694010416667  24.9565972222223 14.5941840277777  24.8697916666667 14.7135416666667  C 24.7829861111111 14.8328993055555  24.6744791666667 14.9034288194445  24.5442708333333 14.9251302083333  L 21.533203125 15.380859375  C 21.3270399305555 15.966796875  21.1154513888889 16.4605034722223  20.8984375 16.8619791666667  C 21.2782118055555 17.4045138888889  21.8587239583333 18.1532118055555  22.6399739583333 19.1080729166667  C 22.7484809027777 19.23828125  22.802734375 19.3739149305555  22.802734375 19.5149739583333  C 22.802734375 19.6560329861111  22.75390625 19.7808159722223  22.65625 19.8893229166667  C 22.36328125 20.2907986111111  21.826171875 20.8767361111111  21.044921875 21.6471354166667  C 20.263671875 22.4175347222223  19.7536892361111 22.802734375  19.5149739583333 22.802734375  C 19.384765625 22.802734375  19.2437065972223 22.75390625  19.091796875 22.65625  L 16.845703125 20.8984375  C 16.3682725694445 21.1480034722223  15.8745659722223 21.3541666666667  15.3645833333333 21.5169270833333  C 15.1909722222223 22.9926215277777  15.0336371527777 24.0017361111111  14.892578125 24.5442708333333  C 14.8166232638889 24.8480902777777  14.6213107638889 25  14.306640625 25  L 10.693359375 25  C 10.5414496527777 25  10.4085286458333 24.9538845486111  10.2945963541667 24.8616536458333  C 10.1806640625 24.7694227430555  10.1182725694445 24.6527777777777  10.107421875 24.51171875  L 9.65169270833326 21.5169270833333  C 9.12000868055554 21.3433159722223  8.63172743055554 21.142578125  8.18684895833326 20.9147135416667  L 5.89192708333326 22.65625  C 5.78342013888891 22.75390625  5.64778645833326 22.802734375  5.48502604166674 22.802734375  C 5.33311631944446 22.802734375  5.19748263888891 22.7430555555555  5.078125 22.6236979166667  C 3.7109375 21.38671875  2.81575520833326 20.4752604166667  2.392578125 19.8893229166667  C 2.31662326388891 19.7808159722223  2.27864583333326 19.6560329861111  2.27864583333326 19.5149739583333  C 2.27864583333326 19.384765625  2.32204861111109 19.2599826388889  2.40885416666674 19.140625  C 2.57161458333326 18.9127604166667  2.84830729166674 18.5519748263889  3.23893229166674 18.0582682291667  C 3.62955729166674 17.5645616319445  3.92252604166674 17.1820746527777  4.11783854166674 16.9108072916667  C 3.82486979166674 16.3682725694445  3.60243055555554 15.8311631944445  3.45052083333326 15.2994791666667  L 0.472005208333258 14.8600260416667  C 0.330946180555543 14.8383246527777  0.217013888888914 14.7705078125  0.130208333333258 14.6565755208333  C 0.0434027777777146 14.5426432291667  0 14.4151475694445  0 14.2740885416667  L 0 10.6608072916667  C 0 10.5305989583333  0.0434027777777146 10.4058159722223  0.130208333333258 10.2864583333333  C 0.217013888888914 10.1671006944445  0.320095486111086 10.0965711805555  0.439453125 10.0748697916667  L 3.466796875 9.619140625  C 3.61870659722229 9.12000868055554  3.83029513888891 8.62087673611109  4.1015625 8.12174479166674  C 3.66753472222229 7.50325520833326  3.08702256944446 6.75455729166674  2.36002604166674 5.87565104166674  C 2.25151909722229 5.74544270833326  2.197265625 5.615234375  2.197265625 5.48502604166674  C 2.197265625 5.37651909722229  2.24609375 5.25173611111109  2.34375 5.11067708333326  C 2.62586805555554 4.72005208333326  3.16026475694446 4.13682725694446  3.94694010416674 3.36100260416674  C 4.73361545138891 2.58517795138891  5.24631076388891 2.197265625  5.48502604166674 2.197265625  C 5.62608506944446 2.197265625  5.76714409722229 2.25151909722229  5.908203125 2.36002604166674  L 8.154296875 4.1015625  C 8.63172743055554 3.85199652777771  9.12543402777771 3.64583333333326  9.63541666666674 3.48307291666674  C 9.80902777777771 2.00737847222229  9.96636284722229 0.998263888888914  10.107421875 0.455729166666742  C 10.1833767361111 0.151909722222285  10.3786892361111 0  10.693359375 0  L 14.306640625 0  C 14.4585503472223 0  14.5914713541667 0.0461154513889142  14.7054036458333 0.138346354166742  C 14.8193359375 0.230577256944457  14.8817274305555 0.347222222222285  14.892578125 0.48828125  L 15.3483072916667 3.48307291666674  C 15.8799913194445 3.65668402777771  16.3682725694445 3.857421875  16.8131510416667 4.08528645833326  L 19.1243489583333 2.34375  C 19.2220052083333 2.24609375  19.3522135416667 2.197265625  19.5149739583333 2.197265625  C 19.6560329861111 2.197265625  19.7916666666667 2.25151909722229  19.921875 2.36002604166674  C 21.3216145833333 3.65125868055554  22.216796875 4.57356770833326  22.607421875 5.126953125  C 22.6833767361111 5.21375868055554  22.7213541666667 5.33311631944446  22.7213541666667 5.48502604166674  C 22.7213541666667 5.615234375  22.6779513888889 5.74001736111109  22.5911458333333 5.859375  C 22.4283854166667 6.08723958333326  22.1516927083333 6.44802517361109  21.7610677083333 6.94173177083326  C 21.3704427083333 7.43543836805554  21.0774739583333 7.81792534722228  20.8821614583333 8.08919270833326  C 21.1642795138889 8.63172743055554  21.38671875 9.16341145833326  21.5494791666667 9.68424479166674  L 24.5279947916667 10.1399739583333  C 24.6690538194445 10.1616753472223  24.7829861111111 10.2294921875  24.8697916666667 10.3434244791667  Z " fill-rule="nonzero" fill="#000000" stroke="none" transform="matrix(1 0 0 1 815 546 )" />
  </g>
</svg>