<?xml version="1.0" encoding="utf-8"?>
<svg version="1.1" xmlns:xlink="http://www.w3.org/1999/xlink" width="30px" height="25px" xmlns="http://www.w3.org/2000/svg">
  <g transform="matrix(1 0 0 1 -76 -420 )">
    <path d="M 8 8.92857142857142  C 8 10.2213541666667  8.421875 11.4118303571429  9.265625 12.5  C 7.578125 12.5465029761905  6.19791666666667 13.1417410714286  5.125 14.2857142857143  L 3.03125 14.2857142857143  C 2.17708333333334 14.2857142857143  1.45833333333334 14.0973772321429  0.875 13.720703125  C 0.291666666666671 13.3440290178571  0 12.79296875  0 12.0675223214286  C 0 8.78441220238096  0.645833333333329 7.14285714285714  1.9375 7.14285714285714  C 2 7.14285714285714  2.2265625 7.24051339285714  2.6171875 7.43582589285714  C 3.0078125 7.63113839285714  3.515625 7.82877604166666  4.140625 8.02873883928572  C 4.765625 8.22870163690476  5.38541666666666 8.32868303571428  6 8.32868303571428  C 6.69791666666666 8.32868303571428  7.390625 8.2217261904762  8.078125 8.0078125  C 8.02604166666667 8.35193452380952  8 8.65885416666666  8 8.92857142857142  Z M 25.9453125 19.9428013392857  C 25.9817708333333 20.4124813988095  26 20.893787202381  26 21.38671875  C 26 22.5027901785714  25.6197916666667 23.384021577381  24.859375 24.0304129464286  C 24.0989583333333 24.6768043154762  23.0885416666667 25  21.828125 25  L 8.171875 25  C 6.91145833333334 25  5.90104166666666 24.6768043154762  5.140625 24.0304129464286  C 4.38020833333334 23.384021577381  4 22.5027901785714  4 21.38671875  C 4 20.893787202381  4.01822916666667 20.4124813988095  4.0546875 19.9428013392857  C 4.09114583333334 19.4731212797619  4.1640625 18.9662388392857  4.2734375 18.4221540178571  C 4.3828125 17.8780691964286  4.52083333333334 17.3735119047619  4.6875 16.9084821428571  C 4.85416666666666 16.4434523809524  5.078125 15.9900483630952  5.359375 15.5482700892857  C 5.640625 15.1064918154762  5.96354166666667 14.7298177083333  6.328125 14.4182477678571  C 6.69270833333333 14.106677827381  7.13802083333334 13.8578869047619  7.6640625 13.671875  C 8.19010416666667 13.4858630952381  8.77083333333334 13.3928571428571  9.40625 13.3928571428571  C 9.51041666666666 13.3928571428571  9.734375 13.4928385416667  10.078125 13.6928013392857  C 10.421875 13.8927641369048  10.8020833333333 14.115978422619  11.21875 14.3624441964286  C 11.6354166666667 14.6089099702381  12.1927083333333 14.8321242559524  12.890625 15.0320870535714  C 13.5885416666667 15.2320498511905  14.2916666666667 15.33203125  15 15.33203125  C 15.7083333333333 15.33203125  16.4114583333333 15.2320498511905  17.109375 15.0320870535714  C 17.8072916666667 14.8321242559524  18.3645833333333 14.6089099702381  18.78125 14.3624441964286  C 19.1979166666667 14.115978422619  19.578125 13.8927641369048  19.921875 13.6928013392857  C 20.265625 13.4928385416667  20.4895833333333 13.3928571428571  20.59375 13.3928571428571  C 21.2291666666667 13.3928571428571  21.8098958333333 13.4858630952381  22.3359375 13.671875  C 22.8619791666667 13.8578869047619  23.3072916666667 14.106677827381  23.671875 14.4182477678571  C 24.0364583333333 14.7298177083333  24.359375 15.1064918154762  24.640625 15.5482700892857  C 24.921875 15.9900483630952  25.1458333333333 16.4434523809524  25.3125 16.9084821428571  C 25.4791666666667 17.3735119047619  25.6171875 17.8780691964286  25.7265625 18.4221540178571  C 25.8359375 18.9662388392857  25.9088541666667 19.4731212797619  25.9453125 19.9428013392857  Z M 8.828125 1.04631696428572  C 9.609375 1.74386160714286  10 2.58556547619048  10 3.57142857142858  C 10 4.55729166666666  9.609375 5.39899553571428  8.828125 6.09654017857142  C 8.046875 6.79408482142858  7.10416666666666 7.14285714285714  6 7.14285714285714  C 4.89583333333333 7.14285714285714  3.953125 6.79408482142858  3.171875 6.09654017857142  C 2.390625 5.39899553571428  2 4.55729166666666  2 3.57142857142858  C 2 2.58556547619048  2.390625 1.74386160714286  3.171875 1.04631696428572  C 3.953125 0.348772321428584  4.89583333333333 0  6 0  C 7.10416666666666 0  8.046875 0.348772321428584  8.828125 1.04631696428572  Z M 19.2421875 5.14090401785714  C 20.4140625 6.18722098214286  21 7.44977678571428  21 8.92857142857142  C 21 10.4073660714286  20.4140625 11.669921875  19.2421875 12.7162388392857  C 18.0703125 13.7625558035714  16.65625 14.2857142857143  15 14.2857142857143  C 13.34375 14.2857142857143  11.9296875 13.7625558035714  10.7578125 12.7162388392857  C 9.5859375 11.669921875  9 10.4073660714286  9 8.92857142857142  C 9 7.44977678571428  9.5859375 6.18722098214286  10.7578125 5.14090401785714  C 11.9296875 4.09458705357142  13.34375 3.57142857142858  15 3.57142857142858  C 16.65625 3.57142857142858  18.0703125 4.09458705357142  19.2421875 5.14090401785714  Z M 28.0625 7.14285714285714  C 29.3541666666667 7.14285714285714  30 8.78441220238096  30 12.0675223214286  C 30 12.79296875  29.7083333333333 13.3440290178571  29.125 13.720703125  C 28.5416666666667 14.0973772321429  27.8229166666667 14.2857142857143  26.96875 14.2857142857143  L 24.875 14.2857142857143  C 23.8020833333333 13.1417410714286  22.421875 12.5465029761905  20.734375 12.5  C 21.578125 11.4118303571429  22 10.2213541666667  22 8.92857142857142  C 22 8.65885416666666  21.9739583333333 8.35193452380952  21.921875 8.0078125  C 22.609375 8.2217261904762  23.3020833333333 8.32868303571428  24 8.32868303571428  C 24.6145833333333 8.32868303571428  25.234375 8.22870163690476  25.859375 8.02873883928572  C 26.484375 7.82877604166666  26.9921875 7.63113839285714  27.3828125 7.43582589285714  C 27.7734375 7.24051339285714  28 7.14285714285714  28.0625 7.14285714285714  Z M 26.828125 1.04631696428572  C 27.609375 1.74386160714286  28 2.58556547619048  28 3.57142857142858  C 28 4.55729166666666  27.609375 5.39899553571428  26.828125 6.09654017857142  C 26.046875 6.79408482142858  25.1041666666667 7.14285714285714  24 7.14285714285714  C 22.8958333333333 7.14285714285714  21.953125 6.79408482142858  21.171875 6.09654017857142  C 20.390625 5.39899553571428  20 4.55729166666666  20 3.57142857142858  C 20 2.58556547619048  20.390625 1.74386160714286  21.171875 1.04631696428572  C 21.953125 0.348772321428584  22.8958333333333 0  24 0  C 25.1041666666667 0  26.046875 0.348772321428584  26.828125 1.04631696428572  Z " fill-rule="nonzero" fill="#ffffff" stroke="none" transform="matrix(1 0 0 1 76 420 )" />
  </g>
</svg>