<?xml version="1.0" encoding="utf-8"?>
<svg version="1.1" xmlns:xlink="http://www.w3.org/1999/xlink" width="28px" height="36px" xmlns="http://www.w3.org/2000/svg">
  <g transform="matrix(1 0 0 1 -1174 -310 )">
    <path d="M 8.90909090909099 19.3846153846154  L 11.4545454545455 33.2307692307692  L 13.3636363636363 23.5384615384615  L 11.4545454545455 20.7692307692308  L 8.90909090909099 19.3846153846154  Z M 14.6363636363637 23.5384615384615  L 16.5454545454545 33.2307692307692  L 19.090909090909 19.3846153846154  L 16.5454545454545 20.7692307692308  L 14.6363636363637 23.5384615384615  Z M 19.6477272727273 11.9639423076923  C 19.6742424242425 11.8341346153846  19.7007575757575 11.6394230769231  19.7272727272727 11.3798076923077  C 19.7007575757575 11.3221153846154  19.6742424242425 11.2788461538461  19.6477272727273 11.25  C 19.5151515151515 11.1346153846154  18.878787878788 11.0769230769231  17.7386363636363 11.0769230769231  C 16.810606060606 11.0769230769231  15.7035984848485 11.2139423076923  14.4176136363637 11.4879807692308  C 14.3248106060607 11.5168269230769  14.185606060606 11.53125  14 11.53125  C 13.814393939394 11.53125  13.6751893939393 11.5168269230769  13.5823863636363 11.4879807692308  C 12.2964015151515 11.2139423076923  11.189393939394 11.0769230769231  10.2613636363637 11.0769230769231  C 9.12121212121201 11.0769230769231  8.4848484848485 11.1346153846154  8.35227272727275 11.25  C 8.32575757575751 11.2788461538461  8.29924242424249 11.3221153846154  8.27272727272725 11.3798076923077  C 8.29924242424249 11.6394230769231  8.32575757575751 11.8341346153846  8.35227272727275 11.9639423076923  C 8.37878787878799 12.0072115384615  8.42850378787875 12.0540865384615  8.5014204545455 12.1045673076923  C 8.57433712121201 12.155048076923  8.624053030303 12.2307692307692  8.65056818181824 12.3317307692308  C 8.67708333333348 12.3894230769231  8.72679924242425 12.5372596153846  8.79971590909099 12.7752403846154  C 8.87263257575751 13.0132211538461  8.91903409090901 13.1610576923077  8.9389204545455 13.21875  C 8.95880681818176 13.2764423076923  9.00852272727275 13.3990384615385  9.08806818181824 13.5865384615385  C 9.16761363636374 13.7740384615384  9.22395833333348 13.8966346153846  9.25710227272725 13.9543269230769  C 9.29024621212125 14.0120192307692  9.34990530303025 14.1129807692308  9.4360795454545 14.2572115384615  C 9.52225378787875 14.4014423076923  9.60179924242425 14.4987980769231  9.67471590909099 14.5492788461539  C 9.74763257575751 14.5997596153846  9.84043560606074 14.6682692307692  9.953125 14.7548076923077  C 10.0658143939393 14.8413461538461  10.1818181818182 14.8990384615384  10.3011363636363 14.9278846153846  C 10.4204545454545 14.9567307692308  10.5563446969697 14.985576923077  10.7088068181818 15.0144230769231  C 10.861268939394 15.0432692307692  11.0236742424242 15.0576923076923  11.1960227272727 15.0576923076923  C 11.6732954545455 15.0576923076923  12.064393939394 14.967548076923  12.3693181818182 14.7872596153846  C 12.6742424242425 14.6069711538462  12.889678030303 14.390625  13.015625 14.1382211538461  C 13.141571969697 13.8858173076923  13.2376893939393 13.6370192307692  13.3039772727273 13.3918269230769  C 13.3702651515152 13.1466346153846  13.4464962121212 12.9338942307692  13.5326704545455 12.7536057692308  C 13.6188446969697 12.5733173076923  13.7348484848485 12.4831730769231  13.8806818181818 12.4831730769231  L 14.1193181818182 12.4831730769231  C 14.2651515151515 12.4831730769231  14.3811553030303 12.5733173076923  14.4673295454545 12.7536057692308  C 14.5535037878788 12.9338942307692  14.6297348484848 13.1466346153846  14.6960227272727 13.3918269230769  C 14.7623106060607 13.6370192307692  14.858428030303 13.8858173076923  14.984375 14.1382211538461  C 15.110321969697 14.390625  15.3257575757575 14.6069711538462  15.6306818181818 14.7872596153846  C 15.935606060606 14.967548076923  16.3267045454545 15.0576923076923  16.8039772727273 15.0576923076923  C 16.9763257575758 15.0576923076923  17.138731060606 15.0432692307692  17.2911931818182 15.0144230769231  C 17.4436553030303 14.985576923077  17.5795454545455 14.9567307692308  17.6988636363637 14.9278846153846  C 17.8181818181818 14.8990384615384  17.9341856060607 14.8413461538461  18.046875 14.7548076923077  C 18.1595643939393 14.6682692307692  18.2523674242425 14.5997596153846  18.325284090909 14.5492788461539  C 18.3982007575758 14.4987980769231  18.4777462121212 14.4014423076923  18.5639204545455 14.2572115384615  C 18.6500946969697 14.1129807692308  18.7097537878788 14.0120192307692  18.7428977272727 13.9543269230769  C 18.7760416666665 13.8966346153846  18.8323863636363 13.7740384615384  18.9119318181818 13.5865384615385  C 18.9914772727273 13.3990384615385  19.0411931818182 13.2764423076923  19.0610795454545 13.21875  C 19.080965909091 13.1610576923077  19.1273674242425 13.0132211538461  19.200284090909 12.7752403846154  C 19.2732007575758 12.5372596153846  19.3229166666665 12.3894230769231  19.3494318181818 12.3317307692308  C 19.375946969697 12.2307692307692  19.425662878788 12.155048076923  19.4985795454545 12.1045673076923  C 19.5714962121212 12.0540865384615  19.621212121212 12.0072115384615  19.6477272727273 11.9639423076923  Z M 27.840909090909 27.1838942307692  C 27.9469696969697 28.2151442307692  28 29.2860576923077  28 30.3966346153846  C 28 32.141826923077  27.5160984848485 33.5120192307692  26.5482954545455 34.5072115384615  C 25.5804924242425 35.5024038461539  24.2945075757575 36  22.690340909091 36  L 5.30965909090901 36  C 3.70549242424249 36  2.41950757575751 35.5024038461539  1.4517045454545 34.5072115384615  C 0.483901515151501 33.5120192307692  0 32.141826923077  0 30.3966346153846  C 0 29.5168269230769  0.0298295454545041 28.6658653846154  0.0894886363637397 27.84375  C 0.149147727272748 27.0216346153846  0.275094696969745 26.1165865384615  0.467329545454504 25.1286057692308  C 0.659564393939263 24.140625  0.908143939393995 23.25  1.21306818181824 22.4567307692308  C 1.51799242424249 21.6634615384616  1.9389204545455 20.9170673076923  2.47585227272725 20.2175480769231  C 3.01278409090901 19.5180288461539  3.63257575757575 18.9807692307692  4.33522727272725 18.6057692307692  L 2.5454545454545 13.8461538461539  L 6.80113636363626 13.8461538461539  C 6.50946969696975 12.9230769230769  6.36363636363626 12  6.36363636363626 11.0769230769231  C 6.36363636363626 10.9038461538461  6.37689393939399 10.6730769230769  6.40340909090901 10.3846153846154  C 3.83143939393926 9.80769230769226  2.5454545454545 9.11538461538464  2.5454545454545 8.30769230769232  C 2.5454545454545 7.48557692307691  3.9375 6.77163461538464  6.72159090909099 6.16586538461536  C 6.94696969696975 5.27163461538458  7.28835227272725 4.30528846153845  7.74573863636374 3.26682692307691  C 8.203125 2.22836538461536  8.6704545454545 1.40625  9.14772727272725 0.800480769230774  C 9.57196969696975 0.266826923076906  10.0757575757575 0  10.659090909091 0  C 11.0568181818182 0  11.6136363636363 0.223557692307736  12.3295454545455 0.670673076923094  C 13.0454545454545 1.1177884615384  13.6022727272727 1.34134615384613  14 1.34134615384613  C 14.3977272727273 1.34134615384613  14.9545454545455 1.1177884615384  15.6704545454545 0.670673076923094  C 16.3863636363637 0.223557692307736  16.9431818181818 0  17.340909090909 0  C 17.9242424242425 0  18.4280303030303 0.266826923076906  18.8522727272727 0.800480769230774  C 19.3295454545455 1.40625  19.796875 2.22836538461536  20.2542613636363 3.26682692307691  C 20.7116477272727 4.30528846153845  21.0530303030303 5.27163461538458  21.278409090909 6.16586538461536  C 24.0625 6.77163461538464  25.4545454545455 7.48557692307691  25.4545454545455 8.30769230769232  C 25.4545454545455 9.11538461538464  24.1685606060607 9.80769230769226  21.596590909091 10.3846153846154  C 21.689393939394 11.5528846153846  21.5568181818182 12.7067307692308  21.1988636363637 13.8461538461539  L 25.4545454545455 13.8461538461539  L 23.8238636363637 18.7139423076923  C 24.659090909091 19.1899038461539  25.3716856060607 19.8858173076923  25.9616477272727 20.8016826923077  C 26.5516098484848 21.717548076923  26.9857954545455 22.7524038461539  27.2642045454545 23.90625  C 27.5426136363637 25.0600961538461  27.7348484848485 26.1526442307692  27.840909090909 27.1838942307692  Z " fill-rule="nonzero" fill="#000000" stroke="none" transform="matrix(1 0 0 1 1174 310 )" />
  </g>
</svg>