<?xml version="1.0" encoding="utf-8"?>
<svg version="1.1" xmlns:xlink="http://www.w3.org/1999/xlink" width="35px" height="35px" xmlns="http://www.w3.org/2000/svg">
  <g transform="matrix(1 0 0 1 -420 -630 )">
    <path d="M 9.48349834983497 9.48349834983492  C 10.0610561056105 8.90594059405942  10.3498349834983 8.20902090209017  10.3498349834983 7.39273927392742  C 10.3498349834983 6.57645764576455  10.0610561056105 5.87953795379531  9.48349834983497 5.30198019801981  C 8.90594059405942 4.72442244224419  8.20902090209023 4.4356435643565  7.39273927392742 4.4356435643565  C 6.57645764576455 4.4356435643565  5.87953795379536 4.72442244224419  5.30198019801981 5.30198019801981  C 4.72442244224425 5.87953795379531  4.43564356435644 6.57645764576455  4.43564356435644 7.39273927392742  C 4.43564356435644 8.20902090209017  4.72442244224425 8.90594059405942  5.30198019801981 9.48349834983492  C 5.87953795379536 10.0610561056105  6.57645764576455 10.3498349834983  7.39273927392742 10.3498349834983  C 8.20902090209023 10.3498349834983  8.90594059405942 10.0610561056105  9.48349834983497 9.48349834983492  Z M 34.1452145214521 18.5973597359737  C 34.7150715071507 19.1980198019802  35 19.8987898789879  35 20.6996699669967  C 35 21.5159515951595  34.7150715071507 22.2090209020902  34.1452145214521 22.7788778877888  L 22.8019801980198 34.1452145214521  C 22.2013201320132 34.7150715071507  21.5005500550055 35  20.6996699669967 35  C 19.8833883388339 35  19.1903190319032 34.7150715071507  18.6204620462046 34.1452145214521  L 2.10231023102313 17.6039603960396  C 1.5170517051705 17.034103410341  1.02035203520353 16.2563256325633  0.612211221122095 15.2706270627062  C 0.204070407040717 14.2849284928493  0 13.3839383938395  0 12.5676567656766  L 0 2.95709570957092  C 0 2.15621562156218  0.292629262926312 1.46314631463144  0.877887788778878 0.877887788778935  C 1.46314631463144 0.292629262926312  2.15621562156218 0  2.95709570957098 0  L 12.5676567656766 0  C 13.3839383938394 0  14.2849284928493 0.204070407040717  15.2706270627063 0.612211221122152  C 16.2563256325632 1.02035203520347  17.0418041804181 1.5170517051705  17.6270627062706 2.10231023102313  L 34.1452145214521 18.5973597359737  Z " fill-rule="nonzero" fill="#000000" stroke="none" transform="matrix(1 0 0 1 420 630 )" />
  </g>
</svg>