<?xml version="1.0" encoding="utf-8"?>
<svg version="1.1" xmlns:xlink="http://www.w3.org/1999/xlink" width="35px" height="26px" xmlns="http://www.w3.org/2000/svg">
  <g transform="matrix(1 0 0 1 -420 -494 )">
    <path d="M 19.1573319755601 24.6301075268817  C 18.29005431093 25.5433691756273  17.7376103190767 26  17.5 26  C 17.2623896809233 26  16.70994568907 25.5433691756273  15.8426680244399 24.6301075268817  C 14.9753903598099 23.7168458781363  14.5417515274949 23.1359617682198  14.5417515274949 22.8874551971327  C 14.5417515274949 22.489844683393  14.9130176510523 22.1543608124252  15.655549898167 21.8810035842293  C 16.3980821452818 21.6076463560335  17.0128988458927 21.4709677419355  17.5 21.4709677419355  C 17.9871011541073 21.4709677419355  18.6019178547182 21.6076463560335  19.344450101833 21.8810035842293  C 20.0869823489477 22.1543608124252  20.4582484725051 22.489844683393  20.4582484725051 22.8874551971327  C 20.4582484725051 23.1359617682198  20.0246096401901 23.7168458781363  19.1573319755601 24.6301075268817  Z M 23.9778513238289 19.5512544802867  C 23.0808723693144 20.4831541218638  22.5254582484726 20.9491039426523  22.3116089613035 20.9491039426523  C 22.2878479293958 20.9491039426523  22.0502376103191 20.7937873357228  21.5987780040733 20.4831541218638  C 21.1473183978276 20.1725209080048  20.5443822131704 19.8618876941457  19.7899694501018 19.5512544802867  C 19.0355566870333 19.2406212664278  18.2722335369994 19.0853046594982  17.5 19.0853046594982  C 16.7277664630006 19.0853046594982  15.9644433129668 19.2406212664278  15.2100305498982 19.5512544802867  C 14.4556177868296 19.8618876941457  13.8556517311609 20.1725209080048  13.4101323828921 20.4831541218638  C 12.9646130346232 20.7937873357228  12.7240325865581 20.9491039426523  12.6883910386965 20.9491039426523  C 12.4745417515275 20.9491039426523  11.9191276306856 20.4831541218638  11.0221486761711 19.5512544802867  C 10.1251697216564 18.6193548387097  9.67668024439917 18.0415770609319  9.67668024439917 17.8179211469534  C 9.67668024439917 17.6563918757467  9.73608282416836 17.5135005973715  9.85488798370676 17.389247311828  C 10.7815682281059 16.4324970131422  11.9458587915818 15.6807646356034  13.3477596741344 15.1340501792115  C 14.749660556687 14.5873357228196  16.1337406653089 14.3139784946237  17.5 14.3139784946237  C 18.8662593346911 14.3139784946237  20.250339443313 14.5873357228196  21.6522403258656 15.1340501792115  C 23.0541412084182 15.6807646356034  24.2184317718941 16.4324970131422  25.1451120162932 17.389247311828  C 25.2639171758316 17.5135005973715  25.3233197556008 17.6563918757467  25.3233197556008 17.8179211469534  C 25.3233197556008 18.0415770609319  24.8748302783436 18.6193548387097  23.9778513238289 19.5512544802867  Z M 28.8161914460285 14.4817204301075  C 27.9251527494908 15.4136200716846  27.3786490156144 15.8795698924731  27.1766802443992 15.8795698924731  C 27.045994568907 15.8795698924731  26.9093686354379 15.8298685782556  26.7668024439919 15.7304659498208  C 25.1510522742702 14.4258064516129  23.6541072640869 13.4659498207885  22.2759674134419 12.8508960573477  C 20.897827562797 12.2358422939068  19.3058384249831 11.9283154121864  17.5 11.9283154121864  C 16.490156143924 11.9283154121864  15.4773421588595 12.0649940262844  14.4615580448065 12.3383512544802  C 13.4457739307535 12.6117084826762  12.5606754921928 12.9409796893668  11.8062627291242 13.326164874552  C 11.0518499660557 13.7113500597372  10.3776306856755 14.0965352449223  9.7836048879837 14.4817204301075  C 9.18957909029194 14.8669056152928  8.72029871011546 15.1961768219833  8.37576374745419 15.4695340501792  C 8.03122878479292 15.7428912783751  7.8470807875085 15.8795698924731  7.82331975560083 15.8795698924731  C 7.62135098438563 15.8795698924731  7.07484725050915 15.4136200716846  6.18380855397146 14.4817204301075  C 5.29276985743383 13.5498207885304  4.84725050916501 12.9720430107527  4.84725050916501 12.7483870967742  C 4.84725050916501 12.5992831541218  4.90665308893415 12.4626045400239  5.02545824847255 12.3383512544802  C 6.59368635437886 10.6982078853047  8.49456890699253 9.4246117084827  10.7281059063137 8.51756272401434  C 12.9616429056348 7.61051373954604  15.2189409368635 7.15698924731186  17.5 7.15698924731186  C 19.7810590631365 7.15698924731186  22.0383570943652 7.61051373954604  24.2718940936863 8.51756272401434  C 26.5054310930075 9.4246117084827  28.4063136456211 10.6982078853047  29.9745417515275 12.3383512544802  C 30.0933469110659 12.4626045400239  30.152749490835 12.5992831541218  30.152749490835 12.7483870967742  C 30.152749490835 12.9720430107527  29.7072301425662 13.5498207885304  28.8161914460285 14.4817204301075  Z M 33.6545315682281 9.43082437275984  C 32.7575526137135 10.3627240143369  32.2080787508486 10.8286738351255  32.0061099796334 10.8286738351255  C 31.8754243041412 10.8286738351255  31.744738628649 10.7727598566308  31.6140529531568 10.6609318996416  C 29.4874405974202 8.71015531660692  27.2806347589952 7.24086021505377  24.9936354378819 6.2530465949821  C 22.7066361167685 5.26523297491042  20.2087576374745 4.77132616487455  17.5 4.77132616487455  C 14.7912423625255 4.77132616487455  12.2933638832315 5.26523297491042  10.0063645621181 6.2530465949821  C 7.71936524100477 7.24086021505377  5.51255940257977 8.71015531660692  3.38594704684317 10.6609318996416  C 3.25526137135097 10.7727598566308  3.12457569585877 10.8286738351255  2.99389002036662 10.8286738351255  C 2.79192124915141 10.8286738351255  2.24244738628647 10.3627240143369  1.34546843177191 9.43082437275984  C 0.448489477257283 8.4989247311828  0 7.92114695340501  0 7.69749103942655  C 0 7.53596176821986  0.0594025797691984 7.39307048984472  0.178207739307538 7.26881720430106  C 2.39986422267481 4.95770609318998  5.04327902240323 3.16845878136201  8.10845213849291 1.90107526881718  C 11.1736252545825 0.633691756272412  14.3041412084182 0  17.5 0  C 20.6958587915818 0  23.8263747454175 0.633691756272412  26.8915478615071 1.90107526881718  C 29.9567209775968 3.16845878136201  32.6001357773252 4.95770609318998  34.8217922606925 7.26881720430106  C 34.9405974202308 7.39307048984472  35 7.53596176821986  35 7.69749103942655  C 35 7.92114695340501  34.5515105227427 8.4989247311828  33.6545315682281 9.43082437275984  Z " fill-rule="nonzero" fill="#000000" stroke="none" transform="matrix(1 0 0 1 420 494 )" />
  </g>
</svg>