<?xml version="1.0" encoding="utf-8"?>
<svg version="1.1" xmlns:xlink="http://www.w3.org/1999/xlink" width="35px" height="28px" xmlns="http://www.w3.org/2000/svg">
  <g transform="matrix(1 0 0 1 -645 -417 )">
    <path d="M 34.453125 19.1770833333333  C 34.8177083333333 19.5173611111111  35 19.9305555555556  35 20.4166666666667  L 35 26.25  C 35 26.7361111111111  34.8177083333333 27.1493055555556  34.453125 27.4895833333333  C 34.0885416666667 27.8298611111111  33.6458333333334 28  33.125 28  L 26.875 28  C 26.3541666666666 28  25.9114583333333 27.8298611111111  25.546875 27.4895833333333  C 25.1822916666667 27.1493055555556  25 26.7361111111111  25 26.25  L 25 20.4166666666667  C 25 19.9305555555556  25.1822916666667 19.5173611111111  25.546875 19.1770833333333  C 25.9114583333333 18.8368055555556  26.3541666666666 18.6666666666667  26.875 18.6666666666667  L 28.75 18.6666666666667  L 28.75 15  L 18.75 15  L 18.75 18.6666666666667  L 20.625 18.6666666666667  C 21.1458333333333 18.6666666666667  21.5885416666666 18.8368055555556  21.953125 19.1770833333333  C 22.3177083333334 19.5173611111111  22.5 19.9305555555556  22.5 20.4166666666667  L 22.5 26.25  C 22.5 26.7361111111111  22.3177083333334 27.1493055555556  21.953125 27.4895833333333  C 21.5885416666666 27.8298611111111  21.1458333333333 28  20.625 28  L 14.375 28  C 13.8541666666667 28  13.4114583333334 27.8298611111111  13.046875 27.4895833333333  C 12.6822916666666 27.1493055555556  12.5 26.7361111111111  12.5 26.25  L 12.5 20.4166666666667  C 12.5 19.9305555555556  12.6822916666666 19.5173611111111  13.046875 19.1770833333333  C 13.4114583333334 18.8368055555556  13.8541666666667 18.6666666666667  14.375 18.6666666666667  L 16.25 18.6666666666667  L 16.25 15  L 6.25 15  L 6.25 18.6666666666667  L 8.125 18.6666666666667  C 8.64583333333337 18.6666666666667  9.08854166666674 18.8368055555556  9.453125 19.1770833333333  C 9.81770833333326 19.5173611111111  10 19.9305555555556  10 20.4166666666667  L 10 26.25  C 10 26.7361111111111  9.81770833333326 27.1493055555556  9.453125 27.4895833333333  C 9.08854166666674 27.8298611111111  8.64583333333337 28  8.125 28  L 1.875 28  C 1.35416666666663 28  0.911458333333258 27.8298611111111  0.546875 27.4895833333333  C 0.182291666666742 27.1493055555556  0 26.7361111111111  0 26.25  L 0 20.4166666666667  C 0 19.9305555555556  0.182291666666742 19.5173611111111  0.546875 19.1770833333333  C 0.911458333333258 18.8368055555556  1.35416666666663 18.6666666666667  1.875 18.6666666666667  L 3.75 18.6666666666667  L 3.75 15.1666666666667  C 3.75 14.5347222222222  3.99739583333337 13.9878472222222  4.4921875 13.5260416666667  C 4.98697916666674 13.0642361111111  5.57291666666663 12.8333333333333  6.25 13  L 16.25 13  L 16.25 9.33333333333331  L 14.375 9.33333333333331  C 13.8541666666667 9.33333333333331  13.4114583333334 9.1631944444444  13.046875 8.82291666666669  C 12.6822916666666 8.48263888888886  12.5 8.0694444444444  12.5 7.58333333333331  L 12.5 1.75  C 12.5 1.26388888888886  12.6822916666666 0.8506944444444  13.046875 0.510416666666686  C 13.4114583333334 0.170138888888857  13.8541666666667 0  14.375 0  L 20.625 0  C 21.1458333333333 0  21.5885416666666 0.170138888888857  21.953125 0.510416666666686  C 22.3177083333334 0.8506944444444  22.5 1.26388888888886  22.5 1.75  L 22.5 7.58333333333331  C 22.5 8.0694444444444  22.3177083333334 8.48263888888886  21.953125 8.82291666666669  C 21.5885416666666 9.1631944444444  21.1458333333333 9.33333333333331  20.625 9.33333333333331  L 18.75 9.33333333333331  L 18.75 13  L 28.75 13  C 29.4270833333334 12.8333333333333  30.0130208333333 13.0642361111111  30.5078125 13.5260416666667  C 31.0026041666666 13.9878472222222  31.25 14.5347222222222  31.25 15.1666666666667  L 31.25 18.6666666666667  L 33.125 18.6666666666667  C 33.6458333333334 18.6666666666667  34.0885416666667 18.8368055555556  34.453125 19.1770833333333  Z " fill-rule="nonzero" fill="#000000" stroke="none" transform="matrix(1 0 0 1 645 417 )" />
  </g>
</svg>