<?xml version="1.0" encoding="utf-8"?>
<svg version="1.1" xmlns:xlink="http://www.w3.org/1999/xlink" width="35px" height="27px" xmlns="http://www.w3.org/2000/svg">
  <g transform="matrix(1 0 0 1 -613 -468 )">
    <path d="M 6.69320913461536 18.9172585227273  C 7.1761246565934 18.4378551136364  7.41758241758248 17.859375  7.41758241758248 17.1818181818181  C 7.41758241758248 16.5042613636364  7.1761246565934 15.92578125  6.69320913461536 15.4463778409091  C 6.21029361263732 14.9669744318181  5.62757554945051 14.7272727272727  4.94505494505495 14.7272727272727  C 4.26253434065927 14.7272727272727  3.67981627747247 14.9669744318181  3.19690075549454 15.4463778409091  C 2.7139852335165 15.92578125  2.47252747252753 16.5042613636364  2.47252747252753 17.1818181818181  C 2.47252747252753 17.859375  2.7139852335165 18.4378551136364  3.19690075549454 18.9172585227273  C 3.67981627747247 19.3966619318181  4.26253434065927 19.6363636363636  4.94505494505495 19.6363636363636  C 5.62757554945051 19.6363636363636  6.21029361263732 19.3966619318181  6.69320913461536 18.9172585227273  Z M 10.4020003434066 10.3263494318181  C 10.8849158653846 9.84694602272725  11.1263736263736 9.26846590909088  11.1263736263736 8.59090909090912  C 11.1263736263736 7.91335227272725  10.8849158653846 7.33487215909088  10.4020003434066 6.85546875  C 9.91908482142856 6.37606534090912  9.33636675824175 6.13636363636363  8.65384615384619 6.13636363636363  C 7.97132554945063 6.13636363636363  7.38860748626371 6.37606534090912  6.90569196428567 6.85546875  C 6.42277644230762 7.33487215909088  6.18131868131866 7.91335227272725  6.18131868131866 8.59090909090912  C 6.18131868131866 9.26846590909088  6.42277644230762 9.84694602272725  6.90569196428567 10.3263494318181  C 7.38860748626371 10.8057528409091  7.97132554945063 11.0454545454545  8.65384615384619 11.0454545454545  C 9.33636675824175 11.0454545454545  9.91908482142856 10.8057528409091  10.4020003434066 10.3263494318181  Z M 20.784684065934 19.5596590909091  C 20.5013736263736 18.8309659090909  20.0377747252747 18.2492897727273  19.3938873626373 17.8146306818181  L 21.3448660714287 10.4893465909091  C 21.4221325549451 10.1569602272727  21.3738410027473 9.84694602272725  21.1999914148352 9.55930397727275  C 21.0261418269231 9.27166193181813  20.7782451923077 9.08309659090912  20.456301510989 8.9936079545455  C 20.1343578296704 8.90411931818181  19.8252918956044 8.94566761363637  19.5291037087911 9.11825284090912  C 19.232915521978 9.29083806818187  19.0397493131868 9.54332386363637  18.9496050824176 9.87571022727275  L 16.9986263736264 17.2009943181819  C 16.2259615384615 17.2649147727273  15.5370020604396 17.54296875  14.9317479395605 18.03515625  C 14.3264938186813 18.52734375  13.9208447802198 19.1569602272727  13.7148008241759 19.9240056818181  C 13.4572458791209 20.9083806818181  13.5860233516484 21.8416193181819  14.1011332417582 22.7237215909091  C 14.6162431318681 23.6058238636364  15.3695913461538 24.1747159090909  16.3611778846154 24.4303977272727  C 17.3527644230769 24.6860795454545  18.2928399725275 24.5582386363636  19.181404532967 24.046875  C 20.0699690934066 23.5355113636364  20.6430288461539 22.7876420454545  20.9005837912088 21.8032670454545  C 21.1066277472528 21.0362215909091  21.0679945054945 20.2883522727273  20.784684065934 19.5596590909091  Z M 31.4184838598901 18.9172585227273  C 31.9013993818681 18.4378551136364  32.1428571428571 17.859375  32.1428571428571 17.1818181818181  C 32.1428571428571 16.5042613636364  31.9013993818681 15.92578125  31.4184838598901 15.4463778409091  C 30.9355683379122 14.9669744318181  30.3528502747253 14.7272727272727  29.6703296703297 14.7272727272727  C 28.9878090659341 14.7272727272727  28.4050910027473 14.9669744318181  27.9221754807693 15.4463778409091  C 27.4392599587911 15.92578125  27.1978021978022 16.5042613636364  27.1978021978022 17.1818181818181  C 27.1978021978022 17.859375  27.4392599587911 18.4378551136364  27.9221754807693 18.9172585227273  C 28.4050910027473 19.3966619318181  28.9878090659341 19.6363636363636  29.6703296703297 19.6363636363636  C 30.3528502747253 19.6363636363636  30.9355683379122 19.3966619318181  31.4184838598901 18.9172585227273  Z M 19.0558464972528 6.64453125  C 19.5387620192308 6.16512784090912  19.7802197802198 5.58664772727275  19.7802197802198 4.90909090909088  C 19.7802197802198 4.23153409090912  19.5387620192308 3.65305397727275  19.0558464972528 3.17365056818187  C 18.5729309752746 2.69424715909088  17.9902129120879 2.4545454545455  17.3076923076924 2.4545454545455  C 16.6251717032967 2.4545454545455  16.0424536401099 2.69424715909088  15.5595381181319 3.17365056818187  C 15.0766225961538 3.65305397727275  14.8351648351648 4.23153409090912  14.8351648351648 4.90909090909088  C 14.8351648351648 5.58664772727275  15.0766225961538 6.16512784090912  15.5595381181319 6.64453125  C 16.0424536401099 7.12393465909088  16.6251717032967 7.36363636363637  17.3076923076924 7.36363636363637  C 17.9902129120879 7.36363636363637  18.5729309752746 7.12393465909088  19.0558464972528 6.64453125  Z M 27.709692651099 10.3263494318181  C 28.192608173077 9.84694602272725  28.434065934066 9.26846590909088  28.434065934066 8.59090909090912  C 28.434065934066 7.91335227272725  28.192608173077 7.33487215909088  27.709692651099 6.85546875  C 27.2267771291208 6.37606534090912  26.644059065934 6.13636363636363  25.9615384615384 6.13636363636363  C 25.2790178571429 6.13636363636363  24.696299793956 6.37606534090912  24.213384271978 6.85546875  C 23.73046875 7.33487215909088  23.489010989011 7.91335227272725  23.489010989011 8.59090909090912  C 23.489010989011 9.26846590909088  23.73046875 9.84694602272725  24.213384271978 10.3263494318181  C 24.696299793956 10.8057528409091  25.2790178571429 11.0454545454545  25.9615384615384 11.0454545454545  C 26.644059065934 11.0454545454545  27.2267771291208 10.8057528409091  27.709692651099 10.3263494318181  Z M 33.243904532967 10.5085227272727  C 34.1582245879121 12.6306818181819  34.6153846153846 14.8551136363636  34.6153846153846 17.1818181818181  C 34.6153846153846 20.5184659090909  33.707503434066 23.6058238636364  31.8917410714287 26.4438920454545  C 31.6470638736264 26.8146306818181  31.2993646978022 27  30.848643543956 27  L 3.76674107142856 27  C 3.31601991758248 27  2.96832074175825 26.8146306818181  2.72364354395597 26.4438920454545  C 0.907881181318658 23.6186079545455  0 20.53125  0 17.1818181818181  C 0 14.8551136363636  0.457160027472582 12.6306818181819  1.37148008241763 10.5085227272727  C 2.28580013736268 8.38636363636363  3.515625 6.55823863636363  5.06095467032969 5.02414772727275  C 6.60628434065939 3.49005681818187  8.44780219780216 2.26917613636363  10.5855082417582 1.36150568181813  C 12.7232142857143 0.453835227272748  14.9639423076923 0  17.3076923076924 0  C 19.6514423076924 0  21.8921703296704 0.453835227272748  24.0298763736264 1.36150568181813  C 26.1675824175825 2.26917613636363  28.0091002747253 3.49005681818187  29.5544299450549 5.02414772727275  C 31.0997596153846 6.55823863636363  32.329584478022 8.38636363636363  33.243904532967 10.5085227272727  Z " fill-rule="nonzero" fill="#000000" stroke="none" transform="matrix(1 0 0 1 613 468 )" />
  </g>
</svg>