<?xml version="1.0" encoding="utf-8"?>
<svg version="1.1" xmlns:xlink="http://www.w3.org/1999/xlink" width="30px" height="25px" xmlns="http://www.w3.org/2000/svg">
  <g transform="matrix(1 0 0 1 -76 -369 )">
    <path d="M 25.6877323420075 14.2829306313328  C 25.7001239157373 14.3089114055599  25.7063197026022 14.3478825669005  25.7063197026022 14.3998441153546  L 25.7063197026022 23.7529228371005  C 25.7063197026022 24.0906729020525  25.5885997521685 24.382956612107  25.3531598513011 24.6297739672642  C 25.1177199504337 24.8765913224214  24.8389095415118 25  24.5167286245353 25  L 17.3791821561338 25  L 17.3791821561338 17.5175370226033  L 12.6208178438662 17.5175370226033  L 12.6208178438662 25  L 5.48327137546468 25  C 5.16109045848822 25  4.8822800495663 24.8765913224214  4.64684014869889 24.6297739672642  C 4.41140024783147 24.382956612107  4.29368029739777 24.0906729020525  4.29368029739777 23.7529228371005  L 4.29368029739777 14.3998441153546  C 4.29368029739777 14.3868537282411  4.29677819083022 14.3673681475708  4.30297397769516 14.3413873733437  C 4.3091697645601 14.3154065991166  4.31226765799258 14.2959210184463  4.31226765799258 14.2829306313328  L 15 5.04676539360872  L 25.6877323420075 14.2829306313328  Z M 29.9814126394052 12.5974279033515  C 29.9938042131351 12.7727981293842  29.9504337050805 12.9254351779683  29.8513011152416 13.0553390491037  L 28.6988847583643 14.4972720187062  C 28.5997521685254 14.614185502728  28.4696406443618 14.6856326318524  28.3085501858736 14.7116134060795  L 28.2527881040892 14.7116134060795  C 28.091697645601 14.7116134060795  27.9615861214374 14.6661470511821  27.8624535315985 14.5752143413874  L 15 3.33203429462199  L 2.1375464684015 14.5752143413874  C 1.98884758364312 14.6791374382957  1.84014869888475 14.724603793193  1.6914498141264 14.7116134060795  C 1.53035935563815 14.6856326318524  1.40024783147459 14.614185502728  1.3011152416357 14.4972720187062  L 0.148698884758375 13.0553390491037  C 0.0495662949194582 12.9254351779683  0.00619578686493583 12.7727981293842  0.0185873605948075 12.5974279033515  C 0.0309789343246507 12.4220576773188  0.0991325898389164 12.2824110158483  0.223048327137548 12.17848791894  L 13.5873605947955 0.506625097427928  C 13.9838909541512 0.168875032475967  14.454770755886 0  15 0  C 15.545229244114 0  16.0161090458488 0.168875032475967  16.4126394052045 0.506625097427928  L 20.9479553903346 4.48168355416988  L 20.9479553903346 0.681995323460626  C 20.9479553903346 0.500129903871141  21.003717472119 0.350740452065509  21.1152416356877 0.233826968043644  C 21.2267657992565 0.116913484021808  21.3692688971499 0.0584567420108897  21.542750929368 0.0584567420108897  L 25.1115241635688 0.0584567420108897  C 25.2850061957869 0.0584567420108897  25.4275092936803 0.116913484021808  25.5390334572491 0.233826968043644  C 25.6505576208178 0.350740452065509  25.7063197026022 0.500129903871141  25.7063197026022 0.681995323460626  L 25.7063197026022 8.63211223694464  L 29.7769516728625 12.17848791894  C 29.9008674101611 12.2824110158483  29.9690210656753 12.4220576773188  29.9814126394052 12.5974279033515  Z " fill-rule="nonzero" fill="#ffffff" stroke="none" transform="matrix(1 0 0 1 76 369 )" />
  </g>
</svg>