<?xml version="1.0" encoding="utf-8"?>
<svg version="1.1" xmlns:xlink="http://www.w3.org/1999/xlink" width="22px" height="30px" xmlns="http://www.w3.org/2000/svg">
  <g transform="matrix(1 0 0 1 -1182 -314 )">
    <path d="M 21.8539062499999 21.689453125  C 21.9513020833333 22.6725260416667  22 23.7174479166667  22 24.82421875  C 22 26.2434895833333  21.6419270833333 27.4609375  20.92578125 28.4765625  C 20.2096354166667 29.4921875  19.3473958333334 30  18.3390625 30  L 3.66093750000005 30  C 2.65260416666661 30  1.79036458333326 29.4921875  1.07421875 28.4765625  C 0.358072916666742 27.4609375  0 26.2434895833333  0 24.82421875  C 0 23.7174479166667  0.048697916666697 22.6725260416667  0.146093750000091 21.689453125  C 0.243489583333258 20.7063802083333  0.423958333333303 19.716796875  0.6875 18.720703125  C 0.951041666666697 17.724609375  1.28619791666665 16.8717447916667  1.69296875000009 16.162109375  C 2.0997395833333 15.4524739583333  2.63828125000009 14.873046875  3.30859375 14.423828125  C 3.97890624999991 13.974609375  4.74947916666656 13.75  5.62031249999995 13.75  C 7.12135416666661 15.4166666666667  8.91458333333344 16.25  11 16.25  C 13.0854166666666 16.25  14.8786458333334 15.4166666666667  16.3796875 13.75  C 17.2505208333334 13.75  18.0210937500001 13.974609375  18.69140625 14.423828125  C 19.3617187499999 14.873046875  19.9002604166667 15.4524739583333  20.3070312499999 16.162109375  C 20.7138020833333 16.8717447916667  21.0489583333333 17.724609375  21.3125 18.720703125  C 21.5760416666667 19.716796875  21.7565104166667 20.7063802083333  21.8539062499999 21.689453125  Z M 15.6664062499999 2.197265625  C 16.9554687499999 3.662109375  17.5999999999999 5.4296875  17.5999999999999 7.5  C 17.5999999999999 9.5703125  16.9554687499999 11.337890625  15.6664062499999 12.802734375  C 14.3773437499999 14.267578125  12.8218750000001 15  11 15  C 9.17812499999991 15  7.62265625000009 14.267578125  6.33359375000009 12.802734375  C 5.04453125000009 11.337890625  4.40000000000009 9.5703125  4.40000000000009 7.5  C 4.40000000000009 5.4296875  5.04453125000009 3.662109375  6.33359375000009 2.197265625  C 7.62265625000009 0.732421875  9.17812499999991 0  11 0  C 12.8218750000001 0  14.3773437499999 0.732421875  15.6664062499999 2.197265625  Z " fill-rule="nonzero" fill="#000000" stroke="none" transform="matrix(1 0 0 1 1182 314 )" />
  </g>
</svg>