<?xml version="1.0" encoding="utf-8"?>
<svg version="1.1" xmlns:xlink="http://www.w3.org/1999/xlink" width="45px" height="35px" xmlns="http://www.w3.org/2000/svg">
  <g transform="matrix(1 0 0 1 -584 -398 )">
    <path d="M 22.5 19.0909090909091  L 22.5 9.54545454545456  L 14.0625 9.54545454545456  L 14.0625 19.0909090909091  L 22.5 19.0909090909091  Z M 11.25 25  L 25.3125 25  L 25.3125 28  L 11.25 28  L 11.25 25  Z M 12 7  L 25 7  L 25 22  L 12 22  L 12 7  Z M 28.125 25  L 39.375 25  L 39.375 28  L 28.125 28  L 28.125 25  Z M 28.125 19  L 39.375 19  L 39.375 22  L 28.125 22  L 28.125 19  Z M 28.125 13  L 39.375 13  L 39.375 16  L 28.125 16  L 28.125 13  Z M 28.125 7  L 39.375 7  L 39.375 10  L 28.125 10  L 28.125 7  Z M 5.20751953125 31.3458806818182  C 5.48583984375 31.0310132575758  5.625 30.6581439393939  6 30.2272727272727  L 6 6.36363636363637  L 3 6.36363636363637  L 3 30.2272727272727  C 2.8125 30.6581439393939  2.95166015625 31.0310132575758  3.22998046875 31.3458806818182  C 3.50830078125 31.6607481060607  3.837890625 31.8181818181818  4.21875 31.8181818181818  C 4.599609375 31.8181818181818  4.92919921875 31.6607481060607  5.20751953125 31.3458806818182  Z M 41.77001953125 31.3458806818182  C 42.0483398437501 31.0310132575758  42.1875 30.6581439393939  42 30.2272727272727  L 42 3.18181818181813  L 9 3.18181818181813  L 9 30.2272727272727  C 8.4375 30.7741477272727  8.35693359375 31.3044507575758  8.19580078125 31.8181818181818  L 40.78125 31.8181818181818  C 41.1621093749999 31.8181818181818  41.4916992187499 31.6607481060607  41.77001953125 31.3458806818182  Z M 5.625 0  L 45 0  L 45 30.2272727272727  C 45 31.5530303030303  44.5898437499999 32.6799242424242  43.76953125 33.6079545454546  C 42.9492187500001 34.5359848484849  41.9531249999999 35  40.78125 35  L 4.21875 35  C 3.046875 35  2.05078125 34.5359848484849  1.23046875 33.6079545454546  C 0.41015625 32.6799242424242  0 31.5530303030303  0 30.2272727272727  L 0 3.18181818181813  L 5.625 3.18181818181813  L 5.625 0  Z " fill-rule="nonzero" fill="#000000" stroke="none" transform="matrix(1 0 0 1 584 398 )" />
  </g>
</svg>