<?xml version="1.0" encoding="utf-8"?>
<svg version="1.1" xmlns:xlink="http://www.w3.org/1999/xlink" width="50px" height="50px" xmlns="http://www.w3.org/2000/svg">
  <g transform="matrix(1 0 0 1 -309 -389 )">
    <path d="M 28.8736979166666 12.79296875  C 29.0690104166666 12.98828125  29.1666666666666 13.2378472222222  29 13.5416666666667  L 29 28.125  C 29.1666666666666 28.4288194444445  29.0690104166666 28.6783854166667  28.8736979166666 28.8736979166667  C 28.6783854166666 29.0690104166667  28.4288194444445 29.1666666666667  28.125 29  L 17.7083333333334 29  C 17.4045138888889 29.1666666666667  17.1549479166666 29.0690104166667  16.9596354166666 28.8736979166667  C 16.7643229166666 28.6783854166667  16.6666666666666 28.4288194444445  16.6666666666666 28.125  L 16.6666666666666 26.0416666666667  C 16.6666666666666 25.7378472222222  16.7643229166666 25.48828125  16.9596354166666 25.29296875  C 17.1549479166666 25.09765625  17.4045138888889 25  17.7083333333334 25  L 25 25  L 25 13.5416666666667  C 25 13.2378472222222  25.09765625 12.98828125  25.29296875 12.79296875  C 25.48828125 12.59765625  25.7378472222222 12.5  26.0416666666666 12.5  L 28.125 12.5  C 28.4288194444445 12.5  28.6783854166666 12.59765625  28.8736979166666 12.79296875  Z M 40.33203125 33.88671875  C 41.9162326388889 31.1740451388889  42.7083333333334 28.2118055555555  42.7083333333334 25  C 42.7083333333334 21.7881944444445  41.9162326388889 18.8259548611111  40.33203125 16.11328125  C 38.7478298611111 13.4006076388889  36.5993923611111 11.2521701388889  33.88671875 9.66796875  C 31.1740451388889 8.08376736111109  28.2118055555555 7.29166666666674  25 7.29166666666674  C 21.7881944444445 7.29166666666674  18.8259548611111 8.08376736111109  16.11328125 9.66796875  C 13.4006076388889 11.2521701388889  11.2521701388889 13.4006076388889  9.66796875 16.11328125  C 8.08376736111114 18.8259548611111  7.29166666666663 21.7881944444445  7.29166666666663 25  C 7.29166666666663 28.2118055555555  8.08376736111114 31.1740451388889  9.66796875 33.88671875  C 11.2521701388889 36.5993923611111  13.4006076388889 38.7478298611111  16.11328125 40.33203125  C 18.8259548611111 41.9162326388889  21.7881944444445 42.7083333333333  25 42.7083333333333  C 28.2118055555555 42.7083333333333  31.1740451388889 41.9162326388889  33.88671875 40.33203125  C 36.5993923611111 38.7478298611111  38.7478298611111 36.5993923611111  40.33203125 33.88671875  Z M 46.6471354166666 12.451171875  C 48.8823784722222 16.2814670138889  50 20.4644097222222  50 25  C 50 29.5355902777778  48.8823784722222 33.7185329861111  46.6471354166666 37.548828125  C 44.4118923611111 41.3791232638889  41.3791232638889 44.4118923611111  37.548828125 46.6471354166667  C 33.7185329861111 48.8823784722222  29.5355902777778 50  25 50  C 20.4644097222222 50  16.2814670138889 48.8823784722222  12.451171875 46.6471354166667  C 8.62087673611114 44.4118923611111  5.58810763888886 41.3791232638889  3.35286458333337 37.548828125  C 1.11762152777777 33.7185329861111  0 29.5355902777778  0 25  C 0 20.4644097222222  1.11762152777777 16.2814670138889  3.35286458333337 12.451171875  C 5.58810763888886 8.62087673611109  8.62087673611114 5.58810763888886  12.451171875 3.35286458333326  C 16.2814670138889 1.11762152777777  20.4644097222222 0  25 0  C 29.5355902777778 0  33.7185329861111 1.11762152777777  37.548828125 3.35286458333326  C 41.3791232638889 5.58810763888886  44.4118923611111 8.62087673611109  46.6471354166666 12.451171875  Z " fill-rule="nonzero" fill="#000000" stroke="none" transform="matrix(1 0 0 1 309 389 )" />
  </g>
</svg>