<?xml version="1.0" encoding="utf-8"?>
<svg version="1.1" xmlns:xlink="http://www.w3.org/1999/xlink" width="46px" height="32px" xmlns="http://www.w3.org/2000/svg">
  <g transform="matrix(1 0 0 1 -429 -785 )">
    <path d="M 22.1689453125 23.1145833333333  C 22.7229817708333 22.5243055555555  23 21.7847222222223  23 20.8958333333333  C 23 20.0069444444445  22.9326171875 19.1909722222223  22.7978515625 18.4479166666667  C 22.6630859375 17.7048611111111  22.4422200520833 16.9895833333333  22.13525390625 16.3020833333333  C 21.8282877604167 15.6145833333333  21.3753255208333 15.0729166666667  20.7763671875 14.6770833333333  C 20.1774088541667 14.28125  19.451171875 14.0833333333333  18.59765625 14.0833333333333  C 18.5078125 14.1388888888889  18.283203125 14.2638888888889  17.923828125 14.4583333333333  C 17.564453125 14.6527777777777  17.28369140625 14.8020833333333  17.08154296875 14.90625  C 16.87939453125 15.0104166666667  16.6136067708333 15.1319444444445  16.2841796875 15.2708333333333  C 15.9547526041667 15.4097222222223  15.6328125 15.5104166666667  15.318359375 15.5729166666667  C 15.00390625 15.6354166666667  14.689453125 15.6666666666667  14.375 15.6666666666667  C 14.060546875 15.6666666666667  13.74609375 15.6354166666667  13.431640625 15.5729166666667  C 13.1171875 15.5104166666667  12.7952473958333 15.4097222222223  12.4658203125 15.2708333333333  C 12.1363932291667 15.1319444444445  11.87060546875 15.0104166666667  11.66845703125 14.90625  C 11.46630859375 14.8020833333333  11.185546875 14.6527777777777  10.826171875 14.4583333333333  C 10.466796875 14.2638888888889  10.2421875 14.1388888888889  10.15234375 14.0833333333333  C 9.298828125 14.0833333333333  8.57259114583331 14.28125  7.9736328125 14.6770833333333  C 7.37467447916669 15.0729166666667  6.92171223958331 15.6145833333333  6.61474609375 16.3020833333333  C 6.30777994791669 16.9895833333333  6.0869140625 17.7048611111111  5.9521484375 18.4479166666667  C 5.8173828125 19.1909722222223  5.75 20.0069444444445  5.75 20.8958333333333  C 5.75 21.7847222222223  6.02701822916669 22.5243055555555  6.5810546875 23.1145833333333  C 7.13509114583331 23.7048611111111  7.81640625 24  8.625 24  L 20.125 24  C 20.93359375 24  21.6149088541667 23.7048611111111  22.1689453125 23.1145833333333  Z M 17.97998046875 13.40625  C 18.9757486979167 12.4826388888889  19.4736328125 11.3680555555555  19.4736328125 10.0625  C 19.4736328125 8.75694444444446  18.9757486979167 7.64236111111109  17.97998046875 6.71875  C 16.9842122395833 5.79513888888891  15.7825520833333 5.33333333333326  14.375 5.33333333333326  C 12.9674479166667 5.33333333333326  11.7657877604167 5.79513888888891  10.77001953125 6.71875  C 9.77425130208331 7.64236111111109  9.2763671875 8.75694444444446  9.2763671875 10.0625  C 9.2763671875 11.3680555555555  9.77425130208331 12.4826388888889  10.77001953125 13.40625  C 11.7657877604167 14.3298611111111  12.9674479166667 14.7916666666667  14.375 14.7916666666667  C 15.7825520833333 14.7916666666667  16.9842122395833 14.3298611111111  17.97998046875 13.40625  Z M 40.0478515625 21.1458333333333  C 40.1826171875 21.0208333333333  40.25 20.8611111111111  40.25 20.6666666666667  L 40.25 19.3333333333333  C 40.25 19.1388888888889  40.1826171875 18.9791666666667  40.0478515625 18.8541666666667  C 39.9130859375 18.7291666666667  39.7408854166667 18.6666666666667  39.53125 18.6666666666667  L 26.59375 18.6666666666667  C 26.3841145833333 18.6666666666667  26.2119140625 18.7291666666667  26.0771484375 18.8541666666667  C 25.9423828125 18.9791666666667  25.875 19.1388888888889  25.875 19.3333333333333  L 25.875 20.6666666666667  C 25.875 20.8611111111111  25.9423828125 21.0208333333333  26.0771484375 21.1458333333333  C 26.2119140625 21.2708333333333  26.3841145833333 21.3333333333333  26.59375 21  L 39.53125 21  C 39.7408854166667 21.3333333333333  39.9130859375 21.2708333333333  40.0478515625 21.1458333333333  Z M 40.01416015625 15.78125  C 40.17138671875 15.6354166666667  40.25 15.4583333333333  40.25 15.25  L 40.25 14.0833333333333  C 40.25 13.875  40.17138671875 13.6979166666667  40.01416015625 13.5520833333333  C 39.85693359375 13.40625  39.666015625 13.3333333333333  39.44140625 13.3333333333333  L 26.68359375 13.3333333333333  C 26.458984375 13.3333333333333  26.26806640625 13.40625  26.11083984375 13.5520833333333  C 25.95361328125 13.6979166666667  25.875 13.875  25.875 14.0833333333333  L 25.875 15.25  C 25.875 15.4583333333333  25.95361328125 15.6354166666667  26.11083984375 15.78125  C 26.26806640625 15.9270833333333  26.458984375 16  26.68359375 16  L 39.44140625 16  C 39.666015625 16  39.85693359375 15.9270833333333  40.01416015625 15.78125  Z M 40.0478515625 10.4791666666667  C 40.1826171875 10.3541666666667  40.25 10.1944444444445  40.25 10  L 40.25 8.66666666666674  C 40.25 8.47222222222217  40.1826171875 8.3125  40.0478515625 8.1875  C 39.9130859375 8.0625  39.7408854166667 8  39.53125 8  L 26.59375 8  C 26.3841145833333 8  26.2119140625 8.0625  26.0771484375 8.1875  C 25.9423828125 8.3125  25.875 8.47222222222217  25.875 8.66666666666674  L 25.875 10  C 25.875 10.1944444444445  25.9423828125 10.3541666666667  26.0771484375 10.4791666666667  C 26.2119140625 10.6041666666667  26.3841145833333 10.6666666666667  26.59375 11  L 39.53125 11  C 39.7408854166667 10.6666666666667  39.9130859375 10.6041666666667  40.0478515625 10.4791666666667  Z M 44.9443359375 0.979166666666742  C 45.6481119791666 1.63194444444446  46 2.41666666666674  46 3.33333333333326  L 46 28.6666666666667  C 46 29.5833333333333  45.6481119791666 30.3680555555555  44.9443359375 31.0208333333333  C 44.2405598958334 31.6736111111111  43.39453125 32  42.40625 32  L 34.5 32  L 34.5 30  C 34.5 29.8055555555555  34.4326171875 29.6458333333333  34.2978515625 29.5208333333333  C 34.1630859375 29.3958333333333  33.9908854166667 29.3333333333333  33.78125 29.3333333333333  L 32.34375 29.3333333333333  C 32.1341145833333 29.3333333333333  31.9619140625 29.3958333333333  31.8271484375 29.5208333333333  C 31.6923828125 29.6458333333333  31.625 29.8055555555555  31.625 30  L 31.625 32  L 14.375 32  L 14.375 30  C 14.375 29.8055555555555  14.3076171875 29.6458333333333  14.1728515625 29.5208333333333  C 14.0380859375 29.3958333333333  13.8658854166667 29.3333333333333  13.65625 29.3333333333333  L 12.21875 29.3333333333333  C 12.0091145833333 29.3333333333333  11.8369140625 29.3958333333333  11.7021484375 29.5208333333333  C 11.5673828125 29.6458333333333  11.5 29.8055555555555  11.5 30  L 11.5 32  L 3.59375 32  C 2.60546875 32  1.75944010416669 31.6736111111111  1.0556640625 31.0208333333333  C 0.351888020833314 30.3680555555555  0 29.5833333333333  0 28.6666666666667  L 0 3.33333333333326  C 0 2.41666666666674  0.351888020833314 1.63194444444446  1.0556640625 0.979166666666742  C 1.75944010416669 0.326388888888914  2.60546875 0  3.59375 0  L 42.40625 0  C 43.39453125 0  44.2405598958334 0.326388888888914  44.9443359375 0.979166666666742  Z " fill-rule="nonzero" fill="#000000" stroke="none" transform="matrix(1 0 0 1 429 785 )" />
  </g>
</svg>