<?xml version="1.0" encoding="utf-8"?>
<svg version="1.1" xmlns:xlink="http://www.w3.org/1999/xlink" width="29px" height="34px" xmlns="http://www.w3.org/2000/svg">
  <g transform="matrix(1 0 0 1 -438 -829 )">
    <path d="M 8.05555555555554 10.8181818181819  L 8.05555555555554 16  L 20.9444444444445 16  L 20.9444444444445 10.8181818181819  C 20.9444444444445 9.11174242424249  20.3151041666666 7.6548295454545  19.056423611111 6.44744318181813  C 17.7977430555555 5.24005681818187  16.2789351851853 4.63636363636363  14.5 4.63636363636363  C 12.7210648148147 4.63636363636363  11.2022569444445 5.24005681818187  9.94357638888897 6.44744318181813  C 8.68489583333343 7.6548295454545  8.05555555555554 9.11174242424249  8.05555555555554 10.8181818181819  Z M 28.295138888889 16.1306818181819  C 28.7650462962963 16.5814393939394  29 17.1287878787879  29 17.7727272727273  L 29 31.6818181818182  C 29 32.3257575757575  28.7650462962963 32.8731060606061  28.295138888889 33.3238636363636  C 27.8252314814816 33.7746212121212  27.2546296296296 34  26.5833333333334 34  L 2.41666666666657 34  C 1.74537037037044 34  1.17476851851842 33.7746212121212  0.704861111111029 33.3238636363636  C 0.234953703703695 32.8731060606061  0 32.3257575757575  0 31.6818181818182  L 0 17.7727272727273  C 0 17.1287878787879  0.234953703703695 16.5814393939394  0.704861111111029 16.1306818181819  C 1.17476851851842 15.6799242424242  1.74537037037044 15.4545454545455  2.41666666666657 15.4545454545455  L 3.22222222222229 15.4545454545455  L 3.22222222222229 10.8181818181819  C 3.22222222222229 7.85606060606062  4.32986111111103 5.3125  6.54513888888897 3.1875  C 8.76041666666657 1.0625  11.4120370370371 0  14.5 0  C 17.5879629629629 0  20.2395833333334 1.0625  22.454861111111 3.1875  C 24.670138888889 5.3125  25.7777777777777 7.85606060606062  25.7777777777777 10.8181818181819  L 25.7777777777777 15.4545454545455  L 26.5833333333334 15.4545454545455  C 27.2546296296296 15.4545454545455  27.8252314814816 15.6799242424242  28.295138888889 16.1306818181819  Z " fill-rule="nonzero" fill="#000000" stroke="none" transform="matrix(1 0 0 1 438 829 )" />
  </g>
</svg>