<?xml version="1.0" encoding="utf-8"?>
<svg version="1.1" xmlns:xlink="http://www.w3.org/1999/xlink" width="45px" height="57px" xmlns="http://www.w3.org/2000/svg">
  <g transform="matrix(1 0 0 1 -404 -661 )">
    <path d="M 12.4999999999999 18.1363636363636  L 12.4999999999999 26  L 32.5000000000001 26  L 32.5000000000001 18.1363636363636  C 32.5000000000001 15.2755681818182  31.5234374999999 12.8330965909091  29.5703125000001 10.8089488636364  C 27.6171874999999 8.78480113636363  25.2604166666666 7.77272727272737  22.5 7.77272727272737  C 19.7395833333334 7.77272727272737  17.3828125000001 8.78480113636363  15.4296874999999 10.8089488636364  C 13.4765625000001 12.8330965909091  12.4999999999999 15.2755681818182  12.4999999999999 18.1363636363636  Z M 43.9062499999999 27.0426136363636  C 44.6354166666667 27.7982954545455  45 28.715909090909  45 29.7954545454545  L 45 53.1136363636364  C 45 54.1931818181818  44.6354166666667 55.1107954545454  43.9062499999999 55.8664772727274  C 43.1770833333334 56.6221590909091  42.2916666666666 57  41.2500000000001 57  L 3.74999999999994 57  C 2.70833333333337 57  1.82291666666674 56.6221590909091  1.09375000000011 55.8664772727274  C 0.364583333333428 55.1107954545454  0 54.1931818181818  0 53.1136363636364  L 0 29.7954545454545  C 0 28.715909090909  0.364583333333428 27.7982954545455  1.09375000000011 27.0426136363636  C 1.82291666666674 26.2869318181819  2.70833333333337 25.9090909090909  3.74999999999994 25.9090909090909  L 5 25.9090909090909  L 5 18.1363636363636  C 5 13.1704545454545  6.71875000000011 8.90625  10.1562499999999 5.34375  C 13.5937499999999 1.78125  17.7083333333332 0  22.5 0  C 27.2916666666668 0  31.4062500000001 1.78125  34.8437500000001 5.34375  C 38.2812499999999 8.90625  40 13.1704545454545  40 18.1363636363636  L 40 25.9090909090909  L 41.2500000000001 25.9090909090909  C 42.2916666666666 25.9090909090909  43.1770833333334 26.2869318181819  43.9062499999999 27.0426136363636  Z " fill-rule="nonzero" fill="#000000" stroke="none" transform="matrix(1 0 0 1 404 661 )" />
  </g>
</svg>