<?xml version="1.0" encoding="utf-8"?>
<svg version="1.1" xmlns:xlink="http://www.w3.org/1999/xlink" width="20px" height="20px" xmlns="http://www.w3.org/2000/svg">
  <g transform="matrix(1 0 0 1 -946 -714 )">
    <path d="M 7.71306818181824 17.2721354166667  C 7.750946969697 17.67578125  7.80776515151524 17.9644097222223  7.88352272727275 18.1380208333333  C 8.58428030303025 18.4157986111111  9.24715909090912 18.5546875  9.87215909090912 18.5546875  C 13.4327651515152 18.5546875  15.2130681818182 17.1006944444445  15.2130681818182 14.1927083333333  C 15.2130681818182 13.203125  15.0189393939394 12.421875  14.6306818181818 11.8489583333333  C 14.375 11.4670138888889  14.0838068181818 11.1458333333333  13.7571022727273 10.8854166666667  C 13.4303977272727 10.625  13.1107954545454 10.4231770833333  12.7982954545454 10.2799479166667  C 12.4857954545454 10.13671875  12.1046401515152 10.0282118055555  11.6548295454546 9.95442708333326  C 11.2050189393939 9.88064236111109  10.8072916666667 9.83506944444446  10.4616477272727 9.81770833333326  C 10.1160037878788 9.80034722222229  9.66856060606062 9.79166666666674  9.11931818181824 9.79166666666674  C 8.42803030303025 9.79166666666674  7.94981060606062 9.83506944444446  7.68465909090912 9.921875  C 7.68465909090912 10.3819444444445  7.68229166666674 11.0720486111111  7.67755681818176 11.9921875  C 7.672821969697 12.9123263888889  7.67045454545462 13.5980902777777  7.67045454545462 14.0494791666667  C 7.67045454545462 14.1189236111111  7.66571969696975 14.4118923611111  7.65625 14.9283854166667  C 7.64678030303025 15.4448784722223  7.64441287878788 15.8637152777777  7.64914772727275 16.1848958333333  C 7.65388257575762 16.5060763888889  7.67518939393938 16.8684895833333  7.71306818181824 17.2721354166667  Z M 7.67045454545462 7.52604166666674  C 7.67045454545462 7.92534722222229  7.67518939393938 8.22482638888891  7.68465909090912 8.42447916666674  C 8.08238636363626 8.48524305555554  8.59848484848476 8.515625  9.23295454545462 8.515625  C 10.0094696969697 8.515625  10.686553030303 8.45920138888891  11.2642045454546 8.34635416666674  C 11.8418560606061 8.23350694444446  12.3626893939394 8.04036458333326  12.8267045454546 7.76692708333326  C 13.2907196969697 7.49348958333326  13.6434659090909 7.10503472222229  13.8849431818182 6.6015625  C 14.1264204545454 6.09809027777771  14.2471590909091 5.48177083333326  14.2471590909091 4.75260416666674  C 14.2471590909091 4.14496527777771  14.1098484848485 3.61328125  13.8352272727273 3.15755208333326  C 13.5606060606061 2.70182291666674  13.186553030303 2.34592013888891  12.7130681818182 2.08984375  C 12.2395833333333 1.83376736111109  11.7282196969697 1.64496527777771  11.1789772727273 1.5234375  C 10.6297348484848 1.40190972222229  10.0426136363637 1.34114583333326  9.41761363636374 1.34114583333326  C 8.94412878787875 1.34114583333326  8.3285984848485 1.39756944444446  7.57102272727275 1.51041666666674  C 7.57102272727275 1.94444444444446  7.58996212121212 2.59982638888891  7.62784090909088 3.4765625  C 7.66571969696975 4.35329861111109  7.68465909090912 5.01302083333326  7.68465909090912 5.45572916666674  C 7.68465909090912 5.69010416666674  7.68229166666674 6.03732638888891  7.67755681818176 6.49739583333326  C 7.672821969697 6.95746527777771  7.67045454545462 7.30034722222229  7.67045454545462 7.52604166666674  Z M 3.28125 19.84375  C 1.37784090909088 19.9392361111111  0.284090909090878 19.9913194444445  0 20  L 0.0284090909091219 18.7760416666667  C 0.170454545454618 18.7413194444445  0.572916666666742 18.671875  1.23579545454538 18.5677083333333  C 1.89867424242425 18.4635416666667  2.40056818181824 18.3463541666667  2.74147727272725 18.2161458333333  C 2.80776515151524 18.1119791666667  2.86695075757575 17.9947916666667  2.91903409090912 17.8645833333333  C 2.97111742424238 17.734375  3.01136363636374 17.5889756944445  3.03977272727275 17.4283854166667  C 3.06818181818176 17.2677951388889  3.0942234848485 17.1267361111111  3.11789772727275 17.0052083333333  C 3.141571969697 16.8836805555555  3.1557765151515 16.7209201388889  3.16051136363626 16.5169270833333  C 3.16524621212125 16.3129340277777  3.16761363636374 16.1653645833333  3.16761363636374 16.07421875  L 3.16761363636374 15.6119791666667  L 3.16761363636374 15.2213541666667  C 3.16761363636374 6.69704861111109  3.063446969697 2.24826388888891  2.85511363636374 1.875  C 2.81723484848476 1.80555555555554  2.71306818181824 1.74262152777771  2.54261363636374 1.68619791666674  C 2.37215909090912 1.62977430555554  2.16145833333326 1.58203125  1.91051136363626 1.54296875  C 1.65956439393938 1.50390625  1.42518939393938 1.47352430555554  1.20738636363626 1.45182291666674  C 0.989583333333258 1.43012152777771  0.759943181818244 1.41059027777771  0.518465909090878 1.39322916666674  C 0.27698863636374 1.37586805555554  0.132575757575751 1.36284722222229  0.0852272727272521 1.35416666666674  L 0.0284090909091219 0.2734375  C 0.956439393939377 0.256076388888914  2.56628787878788 0.206163194444457  4.85795454545462 0.123697916666742  C 7.14962121212125 0.0412326388889142  8.91571969696975 0  10.15625 0  C 10.374053030303 0  10.6960227272727 0.00217013888891415  11.1221590909091 0.00651041666674246  C 11.5482954545454 0.0108506944444571  11.8702651515152 0.0130208333332575  12.0880681818182 0.0130208333332575  C 12.750946969697 0.0130208333332575  13.3972537878788 0.0694444444444571  14.0269886363637 0.182291666666742  C 14.6567234848485 0.295138888888914  15.2651515151515 0.477430555555543  15.8522727272727 0.729166666666742  C 16.4393939393939 0.980902777777715  16.9507575757576 1.2890625  17.3863636363637 1.65364583333326  C 17.8219696969697 2.01822916666674  18.1723484848485 2.47178819444446  18.4375 3.01432291666674  C 18.7026515151515 3.55685763888891  18.8352272727273 4.15364583333326  18.8352272727273 4.8046875  C 18.8352272727273 5.25607638888891  18.7571022727273 5.67057291666674  18.6008522727273 6.04817708333326  C 18.4446022727273 6.42578125  18.2599431818182 6.73828125  18.046875 6.98567708333326  C 17.8338068181818 7.23307291666674  17.5284090909091 7.48263888888891  17.1306818181818 7.734375  C 16.7329545454546 7.98611111111109  16.3873106060606 8.18142361111109  16.09375 8.3203125  C 15.8001893939394 8.45920138888891  15.4024621212122 8.6328125  14.9005681818182 8.84114583333326  C 16.3589015151515 9.14496527777771  17.5733901515152 9.7265625  18.5440340909091 10.5859375  C 19.514678030303 11.4453125  20 12.5217013888889  20 13.8151041666667  C 20 14.6831597222223  19.8342803030303 15.4622395833333  19.5028409090909 16.15234375  C 19.1714015151515 16.8424479166667  18.7286931818182 17.4088541666667  18.1747159090909 17.8515625  C 17.6207386363637 18.2942708333333  16.9673295454546 18.6653645833333  16.2144886363637 18.96484375  C 15.4616477272727 19.2643229166667  14.6875 19.4748263888889  13.8920454545454 19.5963541666667  C 13.0965909090909 19.7178819444445  12.2632575757576 19.7786458333333  11.3920454545454 19.7786458333333  C 10.9753787878788 19.7786458333333  10.3503787878788 19.765625  9.51704545454538 19.7395833333333  C 8.68371212121212 19.7135416666667  8.05871212121212 19.7005208333333  7.64204545454538 19.7005208333333  C 6.63825757575762 19.7005208333333  5.18465909090912 19.7482638888889  3.28125 19.84375  Z " fill-rule="nonzero" fill="#000000" stroke="none" transform="matrix(1 0 0 1 946 714 )" />
  </g>
</svg>