<?xml version="1.0" encoding="utf-8"?>
<svg version="1.1" xmlns:xlink="http://www.w3.org/1999/xlink" width="20px" height="20px" xmlns="http://www.w3.org/2000/svg">
  <g transform="matrix(1 0 0 1 -977 -714 )">
    <path d="M 2.36328125 19.8307291666666  C 1.16536458333337 19.9088541666666  0.377604166666629 19.9565972222222  0 19.9739583333334  L 0.33203125 18.8671875  C 0.618489583333371 18.8064236111111  1.01888020833337 18.7348090277778  1.533203125 18.65234375  C 2.04752604166663 18.5698784722222  2.51627604166663 18.4874131944445  2.939453125 18.4049479166666  C 3.36263020833337 18.3224826388889  3.75 18.2204861111111  4.1015625 18.0989583333334  C 4.46614583333337 17.7951388888889  4.73307291666663 17.3567708333334  4.90234375 16.7838541666666  C 4.91536458333337 16.7230902777778  5.31901041666663 15.46875  6.11328125 13.0208333333334  C 6.90755208333337 10.5729166666666  7.64973958333337 8.21397569444446  8.33984375 5.94401041666663  C 9.02994791666663 3.67404513888891  9.36848958333337 2.38715277777783  9.35546875 2.08333333333337  L 9.35546875 1.7578125  C 9.04296875 1.64496527777783  8.68815104166663 1.56467013888891  8.291015625 1.51692708333337  C 7.89388020833337 1.46918402777783  7.44140625 1.43446180555554  6.93359375 1.41276041666663  C 6.42578125 1.39105902777783  6.04817708333337 1.3671875  5.80078125 1.34114583333337  L 6.171875 0  C 6.6015625 0.0173611111110858  7.3828125 0.0455729166666288  8.515625 0.0846354166666288  C 9.6484375 0.123697916666629  10.6217447916666 0.154079861111086  11.435546875 0.17578125  C 12.2493489583334 0.197482638888914  13.0338541666666 0.208333333333371  13.7890625 0.208333333333371  C 14.4140625 0.208333333333371  15.0553385416666 0.197482638888914  15.712890625 0.17578125  C 16.3704427083334 0.154079861111086  17.158203125 0.123697916666629  18.076171875 0.0846354166666288  C 18.994140625 0.0455729166666288  19.6354166666666 0.0173611111110858  20 0  C 19.9348958333334 0.338541666666629  19.8111979166666 0.724826388888914  19.62890625 1.15885416666663  C 19.23828125 1.24565972222217  18.5774739583334 1.36935763888891  17.646484375 1.52994791666663  C 16.7154947916666 1.69053819444446  16.0091145833334 1.8359375  15.52734375 1.96614583333337  C 15.4231770833334 2.13107638888891  15.33203125 2.31553819444446  15.25390625 2.51953125  C 15.17578125 2.72352430555554  15.1171875 2.89713541666663  15.078125 3.04036458333337  C 15.0390625 3.18359375  14.990234375 3.38107638888891  14.931640625 3.6328125  C 14.873046875 3.88454861111109  14.8307291666666 4.06684027777783  14.8046875 4.1796875  C 14.453125 5.46440972222217  13.8834635416666 7.28515625  13.095703125 9.64192708333337  C 12.3079427083334 11.9986979166666  11.8033854166666 13.5416666666666  11.58203125 14.2708333333334  C 11.5559895833334 14.3489583333334  11.4713541666666 14.6006944444445  11.328125 15.0260416666666  C 11.1848958333334 15.4513888888889  11.0546875 15.8420138888889  10.9375 16.1979166666666  C 10.8203125 16.5538194444445  10.7161458333334 16.9162326388889  10.625 17.28515625  C 10.5338541666666 17.6540798611111  10.4947916666666 17.9036458333334  10.5078125 18.0338541666666  L 10.52734375 18.2682291666666  C 10.7486979166666 18.3029513888889  11.953125 18.4375  14.140625 18.671875  C 14.1015625 19.0538194444445  13.9973958333334 19.4835069444445  13.828125 19.9609375  C 13.6848958333334 19.9609375  13.4733072916666 19.9674479166666  13.193359375 19.98046875  C 12.9134114583334 19.9934895833334  12.7018229166666 20  12.55859375 20  C 12.1809895833334 20  11.6145833333334 19.9565972222222  10.859375 19.8697916666666  C 10.1041666666666 19.7829861111111  9.54427083333337 19.7395833333334  9.1796875 19.7395833333334  C 7.3828125 19.7222222222222  6.04166666666663 19.7135416666666  5.15625 19.7135416666666  C 4.4921875 19.7135416666666  3.56119791666663 19.7526041666666  2.36328125 19.8307291666666  Z " fill-rule="nonzero" fill="#000000" stroke="none" transform="matrix(1 0 0 1 977 714 )" />
  </g>
</svg>