<?xml version="1.0" encoding="utf-8"?>
<svg version="1.1" xmlns:xlink="http://www.w3.org/1999/xlink" width="20px" height="20px" xmlns="http://www.w3.org/2000/svg">
  <g transform="matrix(1 0 0 1 -1006 -714 )">
    <path d="M 2.5390625 1.74479166666663  C 2.32204861111109 1.43229166666663  1.68402777777783 1.26302083333337  0.625 1.23697916666663  C 0.303819444444457 1.21961805555554  0.108506944444457 1.20225694444446  0.0390625 1.18489583333337  L 0 0.0390625  C 0.112847222222172 0.0303819444444571  0.286458333333371 0.0260416666666288  0.520833333333371 0.0260416666666288  C 1.04166666666663 0.0260416666666288  1.52777777777783 0.0434027777778283  1.97916666666663 0.078125  C 3.125 0.138888888888914  3.84548611111109 0.169270833333371  4.140625 0.169270833333371  C 4.88715277777783 0.169270833333371  5.61631944444446 0.15625  6.328125 0.130208333333371  C 7.33506944444446 0.0954861111110858  7.96875 0.0737847222221717  8.22916666666663 0.0651041666666288  C 8.71527777777783 0.0651041666666288  9.08854166666663 0.0564236111110858  9.34895833333337 0.0390625  L 9.3359375 0.221354166666629  L 9.36197916666663 1.0546875  L 9.36197916666663 1.171875  C 8.84114583333337 1.25  8.30295138888891 1.2890625  7.74739583333337 1.2890625  C 7.2265625 1.2890625  6.88368055555554 1.39756944444446  6.71875 1.61458333333337  C 6.60590277777783 1.73611111111109  6.54947916666663 2.30902777777783  6.54947916666663 3.33333333333337  C 6.54947916666663 3.44618055555554  6.55164930555554 3.58723958333337  6.55598958333337 3.75651041666663  C 6.56032986111109 3.92578125  6.5625 4.03645833333337  6.5625 4.08854166666663  L 6.57552083333337 7.0703125  L 6.7578125 10.7161458333334  C 6.80989583333337 11.7925347222222  7.03125 12.6692708333334  7.421875 13.3463541666666  C 7.72569444444446 13.8585069444445  8.14236111111109 14.2578125  8.671875 14.5442708333334  C 9.43576388888891 14.9522569444445  10.2039930555555 15.15625  10.9765625 15.15625  C 11.8793402777778 15.15625  12.7083333333334 15.0347222222222  13.4635416666666 14.7916666666666  C 13.9496527777778 14.6354166666666  14.3793402777778 14.4140625  14.7526041666666 14.1276041666666  C 15.1692708333334 13.8151041666666  15.4513888888889 13.5373263888889  15.5989583333334 13.2942708333334  C 15.9114583333334 12.8081597222222  16.1414930555555 12.3133680555555  16.2890625 11.8098958333334  C 16.4713541666666 11.1762152777778  16.5625 10.1822916666666  16.5625 8.828125  C 16.5625 8.14236111111109  16.5473090277778 7.58680555555554  16.5169270833334 7.16145833333337  C 16.4865451388889 6.73611111111109  16.4388020833334 6.20442708333337  16.3736979166666 5.56640625  C 16.30859375 4.92838541666663  16.25 4.23611111111109  16.1979166666666 3.48958333333337  L 16.1458333333334 2.72135416666663  C 16.1024305555555 2.13975694444446  15.9982638888889 1.7578125  15.8333333333334 1.57552083333337  C 15.5381944444445 1.27170138888891  15.2039930555555 1.12413194444446  14.8307291666666 1.1328125  L 13.5286458333334 1.15885416666663  L 13.3463541666666 1.11979166666663  L 13.3723958333334 0  L 14.4661458333334 0  L 17.1354166666666 0.130208333333371  C 17.7951388888889 0.15625  18.6458333333334 0.112847222222172  19.6875 0  L 19.921875 0.0260416666666288  C 19.9739583333334 0.355902777777828  20 0.577256944444457  20 0.690104166666629  C 20 0.750868055555543  19.9826388888889 0.885416666666629  19.9479166666666 1.09375  C 19.5572916666666 1.19791666666663  19.1927083333334 1.25434027777783  18.8541666666666 1.26302083333337  C 18.2204861111111 1.35850694444446  17.8776041666666 1.43229166666663  17.8255208333334 1.484375  C 17.6953125 1.61458333333337  17.6302083333334 1.79253472222217  17.6302083333334 2.01822916666663  C 17.6302083333334 2.07899305555554  17.63671875 2.19618055555554  17.6497395833334 2.36979166666663  C 17.6627604166666 2.54340277777783  17.6692708333334 2.67795138888891  17.6692708333334 2.7734375  C 17.7387152777778 2.93836805555554  17.8342013888889 4.65711805555554  17.9557291666666 7.9296875  C 18.0078125 9.62239583333337  17.9427083333334 10.9418402777778  17.7604166666666 11.8880208333334  C 17.6302083333334 12.5477430555555  17.4522569444445 13.0772569444445  17.2265625 13.4765625  C 16.8967013888889 14.0407986111111  16.4105902777778 14.5746527777778  15.7682291666666 15.078125  C 15.1171875 15.5729166666666  14.3272569444445 15.9592013888889  13.3984375 16.2369791666666  C 12.4522569444445 16.5234375  11.3454861111111 16.6666666666666  10.078125 16.6666666666666  C 8.62847222222217 16.6666666666666  7.39583333333337 16.4670138888889  6.38020833333337 16.0677083333334  C 5.34722222222217 15.6597222222222  4.5703125 15.1302083333334  4.04947916666663 14.4791666666666  C 3.51996527777783 13.8194444444445  3.15972222222217 12.9730902777778  2.96875 11.9401041666666  C 2.82986111111109 11.2456597222222  2.76041666666663 10.2170138888889  2.76041666666663 8.85416666666663  L 2.76041666666663 4.51822916666663  C 2.76041666666663 2.88628472222217  2.68663194444446 1.96180555555554  2.5390625 1.74479166666663  Z M 19.8828125 19.8828125  C 19.9609375 19.8046875  20 19.7048611111111  20 19.5833333333334  L 20 18.75  C 20 18.6284722222222  19.9609375 18.5286458333334  19.8828125 18.4505208333334  C 19.8046875 18.3723958333334  19.7048611111111 18.3333333333334  19.5833333333334 18  L 0.416666666666629 18  C 0.295138888888914 18.3333333333334  0.1953125 18.3723958333334  0.1171875 18.4505208333334  C 0.0390625 18.5286458333334  0 18.6284722222222  0 18.75  L 0 19.5833333333334  C 0 19.7048611111111  0.0390625 19.8046875  0.1171875 19.8828125  C 0.1953125 19.9609375  0.295138888888914 20  0.416666666666629 20  L 19.5833333333334 20  C 19.7048611111111 20  19.8046875 19.9609375  19.8828125 19.8828125  Z " fill-rule="nonzero" fill="#000000" stroke="none" transform="matrix(1 0 0 1 1006 714 )" />
  </g>
</svg>