<?xml version="1.0" encoding="utf-8"?>
<svg version="1.1" xmlns:xlink="http://www.w3.org/1999/xlink" width="42px" height="32px" xmlns="http://www.w3.org/2000/svg">
  <g transform="matrix(1 0 0 1 -635 -820 )">
    <path d="M 20.2412109375 23.1145833333333  C 20.7470703125 22.5243055555555  21 21.7847222222223  21 20.8958333333333  C 21 20.0069444444445  20.9384765625 19.1909722222223  20.8154296875 18.4479166666667  C 20.6923828125 17.7048611111111  20.49072265625 16.9895833333333  20.21044921875 16.3020833333333  C 19.93017578125 15.6145833333333  19.5166015625 15.0729166666667  18.9697265625 14.6770833333333  C 18.4228515625 14.28125  17.759765625 14.0833333333333  16.98046875 14.0833333333333  C 16.8984375 14.1388888888889  16.693359375 14.2638888888889  16.365234375 14.4583333333333  C 16.037109375 14.6527777777777  15.78076171875 14.8020833333333  15.59619140625 14.90625  C 15.41162109375 15.0104166666667  15.1689453125 15.1319444444445  14.8681640625 15.2708333333333  C 14.5673828125 15.4097222222223  14.2734375 15.5104166666667  13.986328125 15.5729166666667  C 13.69921875 15.6354166666667  13.412109375 15.6666666666667  13.125 15.6666666666667  C 12.837890625 15.6666666666667  12.55078125 15.6354166666667  12.263671875 15.5729166666667  C 11.9765625 15.5104166666667  11.6826171875 15.4097222222223  11.3818359375 15.2708333333333  C 11.0810546875 15.1319444444445  10.83837890625 15.0104166666667  10.65380859375 14.90625  C 10.46923828125 14.8020833333333  10.212890625 14.6527777777777  9.884765625 14.4583333333333  C 9.556640625 14.2638888888889  9.3515625 14.1388888888889  9.26953125 14.0833333333333  C 8.490234375 14.0833333333333  7.8271484375 14.28125  7.2802734375 14.6770833333333  C 6.7333984375 15.0729166666667  6.31982421875 15.6145833333333  6.03955078125 16.3020833333333  C 5.75927734375 16.9895833333333  5.5576171875 17.7048611111111  5.4345703125 18.4479166666667  C 5.3115234375 19.1909722222223  5.25 20.0069444444445  5.25 20.8958333333333  C 5.25 21.7847222222223  5.5029296875 22.5243055555555  6.0087890625 23.1145833333333  C 6.5146484375 23.7048611111111  7.13671875 24  7.875 24  L 18.375 24  C 19.11328125 24  19.7353515625 23.7048611111111  20.2412109375 23.1145833333333  Z M 16.41650390625 13.40625  C 17.32568359375 12.4826388888889  17.7802734375 11.3680555555555  17.7802734375 10.0625  C 17.7802734375 8.75694444444446  17.32568359375 7.64236111111109  16.41650390625 6.71875  C 15.50732421875 5.79513888888891  14.41015625 5.33333333333326  13.125 5.33333333333326  C 11.83984375 5.33333333333326  10.74267578125 5.79513888888891  9.83349609375 6.71875  C 8.92431640625 7.64236111111109  8.4697265625 8.75694444444446  8.4697265625 10.0625  C 8.4697265625 11.3680555555555  8.92431640625 12.4826388888889  9.83349609375 13.40625  C 10.74267578125 14.3298611111111  11.83984375 14.7916666666667  13.125 14.7916666666667  C 14.41015625 14.7916666666667  15.50732421875 14.3298611111111  16.41650390625 13.40625  Z M 36.5654296875 21.1458333333333  C 36.6884765625 21.0208333333333  36.75 20.8611111111111  36.75 20.6666666666667  L 36.75 19.3333333333333  C 36.75 19.1388888888889  36.6884765625 18.9791666666667  36.5654296875 18.8541666666667  C 36.4423828125 18.7291666666667  36.28515625 18.6666666666667  36.09375 18.6666666666667  L 24.28125 18.6666666666667  C 24.08984375 18.6666666666667  23.9326171875 18.7291666666667  23.8095703125 18.8541666666667  C 23.6865234375 18.9791666666667  23.625 19.1388888888889  23.625 19.3333333333333  L 23.625 20.6666666666667  C 23.625 20.8611111111111  23.6865234375 21.0208333333333  23.8095703125 21.1458333333333  C 23.9326171875 21.2708333333333  24.08984375 21.3333333333333  24.28125 21  L 36.09375 21  C 36.28515625 21.3333333333333  36.4423828125 21.2708333333333  36.5654296875 21.1458333333333  Z M 36.53466796875 15.78125  C 36.67822265625 15.6354166666667  36.75 15.4583333333333  36.75 15.25  L 36.75 14.0833333333333  C 36.75 13.875  36.67822265625 13.6979166666667  36.53466796875 13.5520833333333  C 36.39111328125 13.40625  36.216796875 13.3333333333333  36.01171875 13.3333333333333  L 24.36328125 13.3333333333333  C 24.158203125 13.3333333333333  23.98388671875 13.40625  23.84033203125 13.5520833333333  C 23.69677734375 13.6979166666667  23.625 13.875  23.625 14.0833333333333  L 23.625 15.25  C 23.625 15.4583333333333  23.69677734375 15.6354166666667  23.84033203125 15.78125  C 23.98388671875 15.9270833333333  24.158203125 16  24.36328125 16  L 36.01171875 16  C 36.216796875 16  36.39111328125 15.9270833333333  36.53466796875 15.78125  Z M 36.5654296875 10.4791666666667  C 36.6884765625 10.3541666666667  36.75 10.1944444444445  36.75 10  L 36.75 8.66666666666674  C 36.75 8.47222222222217  36.6884765625 8.3125  36.5654296875 8.1875  C 36.4423828125 8.0625  36.28515625 8  36.09375 8  L 24.28125 8  C 24.08984375 8  23.9326171875 8.0625  23.8095703125 8.1875  C 23.6865234375 8.3125  23.625 8.47222222222217  23.625 8.66666666666674  L 23.625 10  C 23.625 10.1944444444445  23.6865234375 10.3541666666667  23.8095703125 10.4791666666667  C 23.9326171875 10.6041666666667  24.08984375 10.6666666666667  24.28125 11  L 36.09375 11  C 36.28515625 10.6666666666667  36.4423828125 10.6041666666667  36.5654296875 10.4791666666667  Z M 41.0361328125 0.979166666666742  C 41.6787109375 1.63194444444446  42 2.41666666666674  42 3.33333333333326  L 42 28.6666666666667  C 42 29.5833333333333  41.6787109375 30.3680555555555  41.0361328125 31.0208333333333  C 40.3935546875 31.6736111111111  39.62109375 32  38.71875 32  L 31.5 32  L 31.5 30  C 31.5 29.8055555555555  31.4384765625 29.6458333333333  31.3154296875 29.5208333333333  C 31.1923828125 29.3958333333333  31.03515625 29.3333333333333  30.84375 29.3333333333333  L 29.53125 29.3333333333333  C 29.33984375 29.3333333333333  29.1826171875 29.3958333333333  29.0595703125 29.5208333333333  C 28.9365234375 29.6458333333333  28.875 29.8055555555555  28.875 30  L 28.875 32  L 13.125 32  L 13.125 30  C 13.125 29.8055555555555  13.0634765625 29.6458333333333  12.9404296875 29.5208333333333  C 12.8173828125 29.3958333333333  12.66015625 29.3333333333333  12.46875 29.3333333333333  L 11.15625 29.3333333333333  C 10.96484375 29.3333333333333  10.8076171875 29.3958333333333  10.6845703125 29.5208333333333  C 10.5615234375 29.6458333333333  10.5 29.8055555555555  10.5 30  L 10.5 32  L 3.28125 32  C 2.37890625 32  1.6064453125 31.6736111111111  0.9638671875 31.0208333333333  C 0.3212890625 30.3680555555555  0 29.5833333333333  0 28.6666666666667  L 0 3.33333333333326  C 0 2.41666666666674  0.3212890625 1.63194444444446  0.9638671875 0.979166666666742  C 1.6064453125 0.326388888888914  2.37890625 0  3.28125 0  L 38.71875 0  C 39.62109375 0  40.3935546875 0.326388888888914  41.0361328125 0.979166666666742  Z " fill-rule="nonzero" fill="#000000" stroke="none" transform="matrix(1 0 0 1 635 820 )" />
  </g>
</svg>