<?xml version="1.0" encoding="utf-8"?>
<svg version="1.1" xmlns:xlink="http://www.w3.org/1999/xlink" width="26px" height="34px" xmlns="http://www.w3.org/2000/svg">
  <g transform="matrix(1 0 0 1 -643 -864 )">
    <path d="M 7.22222222222217 10.8181818181819  L 7.22222222222217 16  L 18.7777777777778 16  L 18.7777777777778 10.8181818181819  C 18.7777777777778 9.11174242424249  18.2135416666666 7.6548295454545  17.0850694444443 6.44744318181813  C 15.9565972222222 5.24005681818187  14.5949074074075 4.63636363636363  13 4.63636363636363  C 11.4050925925925 4.63636363636363  10.0434027777778 5.24005681818187  8.91493055555566 6.44744318181813  C 7.78645833333337 7.6548295454545  7.22222222222217 9.11174242424249  7.22222222222217 10.8181818181819  Z M 25.3680555555557 16.1306818181819  C 25.7893518518518 16.5814393939394  26 17.1287878787879  26 17.7727272727273  L 26 31.6818181818182  C 26 32.3257575757575  25.7893518518518 32.8731060606061  25.3680555555557 33.3238636363636  C 24.9467592592594 33.7746212121212  24.4351851851851 34  23.8333333333334 34  L 2.16666666666663 34  C 1.56481481481489 34  1.05324074074065 33.7746212121212  0.631944444444343 33.3238636363636  C 0.210648148148152 32.8731060606061  0 32.3257575757575  0 31.6818181818182  L 0 17.7727272727273  C 0 17.1287878787879  0.210648148148152 16.5814393939394  0.631944444444343 16.1306818181819  C 1.05324074074065 15.6799242424242  1.56481481481489 15.4545454545455  2.16666666666663 15.4545454545455  L 2.88888888888891 15.4545454545455  L 2.88888888888891 10.8181818181819  C 2.88888888888891 7.85606060606062  3.88194444444434 5.3125  5.86805555555566 3.1875  C 7.85416666666663 1.0625  10.2314814814815 0  13 0  C 15.7685185185185 0  18.1458333333334 1.0625  20.1319444444443 3.1875  C 22.1180555555557 5.3125  23.1111111111111 7.85606060606062  23.1111111111111 10.8181818181819  L 23.1111111111111 15.4545454545455  L 23.8333333333334 15.4545454545455  C 24.4351851851851 15.4545454545455  24.9467592592594 15.6799242424242  25.3680555555557 16.1306818181819  Z " fill-rule="nonzero" fill="#000000" stroke="none" transform="matrix(1 0 0 1 643 864 )" />
  </g>
</svg>