<?xml version="1.0" encoding="utf-8"?>
<svg version="1.1" xmlns:xlink="http://www.w3.org/1999/xlink" width="189px" height="44px" xmlns="http://www.w3.org/2000/svg">
  <defs>
    <filter x="1541px" y="2742px" width="189px" height="44px" filterUnits="userSpaceOnUse" id="filter15">
      <feOffset dx="1" dy="1" in="SourceAlpha" result="shadowOffsetInner" />
      <feGaussianBlur stdDeviation="1" in="shadowOffsetInner" result="shadowGaussian" />
      <feComposite in2="shadowGaussian" operator="atop" in="SourceAlpha" result="shadowComposite" />
      <feColorMatrix type="matrix" values="0 0 0 0 0  0 0 0 0 0  0 0 0 0 0  0 0 0 0.349019607843137 0  " in="shadowComposite" />
    </filter>
    <g id="widget16">
      <path d="M 1542.5 2748  A 4.5 4.5 0 0 1 1547 2743.5 L 1722 2743.5  A 4.5 4.5 0 0 1 1726.5 2748 L 1726.5 2778  A 4.5 4.5 0 0 1 1722 2782.5 L 1547 2782.5  A 4.5 4.5 0 0 1 1542.5 2778 L 1542.5 2748  Z " fill-rule="nonzero" fill="#1f6137" stroke="none" fill-opacity="0.898039215686275" />
      <path d="M 1542.5 2748  A 4.5 4.5 0 0 1 1547 2743.5 L 1722 2743.5  A 4.5 4.5 0 0 1 1726.5 2748 L 1726.5 2778  A 4.5 4.5 0 0 1 1722 2782.5 L 1547 2782.5  A 4.5 4.5 0 0 1 1542.5 2778 L 1542.5 2748  Z " stroke-width="1" stroke="#797979" fill="none" />
    </g>
  </defs>
  <g transform="matrix(1 0 0 1 -1541 -2742 )">
    <use xlink:href="#widget16" filter="url(#filter15)" />
    <use xlink:href="#widget16" />
  </g>
</svg>