<?xml version="1.0" encoding="utf-8"?>
<svg version="1.1" xmlns:xlink="http://www.w3.org/1999/xlink" width="33px" height="40px" xmlns="http://www.w3.org/2000/svg">
  <g transform="matrix(1 0 0 1 -1458 -2867 )">
    <path d="M 6.982421875 16.1830357142857  C 9.93294270833326 16.8229166666666  13.10546875 17.1428571428572  16.5 17.1428571428572  C 19.89453125 17.1428571428572  23.0670572916667 16.8229166666666  26.017578125 16.1830357142857  C 28.9680989583333 15.5431547619048  31.2955729166667 14.5982142857143  33 13.3482142857143  L 33 17.1428571428572  C 33 18.1696428571428  32.2623697916667 19.1220238095238  30.787109375 20  C 29.3118489583333 20.8779761904762  27.306640625 21.5736607142857  24.771484375 22.0870535714286  C 22.236328125 22.6004464285714  19.4791666666667 22.8571428571428  16.5 22.8571428571428  C 13.5208333333333 22.8571428571428  10.763671875 22.6004464285714  8.228515625 22.0870535714286  C 5.693359375 21.5736607142857  3.68815104166674 20.8779761904762  2.212890625 20  C 0.737630208333258 19.1220238095238  0 18.1696428571428  0 17.1428571428572  L 0 13.3482142857143  C 1.70442708333326 14.5982142857143  4.03190104166674 15.5431547619048  6.982421875 16.1830357142857  Z M 6.982421875 33.3258928571428  C 9.93294270833326 33.9657738095238  13.10546875 34.2857142857143  16.5 34.2857142857143  C 19.89453125 34.2857142857143  23.0670572916667 33.9657738095238  26.017578125 33.3258928571428  C 28.9680989583333 32.6860119047619  31.2955729166667 31.7410714285714  33 30.4910714285714  L 33 34.2857142857143  C 33 35.3125  32.2623697916667 36.264880952381  30.787109375 37.1428571428572  C 29.3118489583333 38.0208333333334  27.306640625 38.7165178571428  24.771484375 39.2299107142857  C 22.236328125 39.7433035714286  19.4791666666667 40  16.5 40  C 13.5208333333333 40  10.763671875 39.7433035714286  8.228515625 39.2299107142857  C 5.693359375 38.7165178571428  3.68815104166674 38.0208333333334  2.212890625 37.1428571428572  C 0.737630208333258 36.264880952381  0 35.3125  0 34.2857142857143  L 0 30.4910714285714  C 1.70442708333326 31.7410714285714  4.03190104166674 32.6860119047619  6.982421875 33.3258928571428  Z M 6.982421875 24.7544642857143  C 9.93294270833326 25.3943452380952  13.10546875 25.7142857142857  16.5 25.7142857142857  C 19.89453125 25.7142857142857  23.0670572916667 25.3943452380952  26.017578125 24.7544642857143  C 28.9680989583333 24.1145833333334  31.2955729166667 23.1696428571428  33 21.9196428571428  L 33 25.7142857142857  C 33 26.7410714285714  32.2623697916667 27.6934523809524  30.787109375 28.5714285714286  C 29.3118489583333 29.4494047619048  27.306640625 30.1450892857143  24.771484375 30.6584821428572  C 22.236328125 31.171875  19.4791666666667 31.4285714285714  16.5 31.4285714285714  C 13.5208333333333 31.4285714285714  10.763671875 31.171875  8.228515625 30.6584821428572  C 5.693359375 30.1450892857143  3.68815104166674 29.4494047619048  2.212890625 28.5714285714286  C 0.737630208333258 27.6934523809524  0 26.7410714285714  0 25.7142857142857  L 0 21.9196428571428  C 1.70442708333326 23.1696428571428  4.03190104166674 24.1145833333334  6.982421875 24.7544642857143  Z M 8.228515625 0.770089285714278  C 10.763671875 0.256696428571445  13.5208333333333 0  16.5 0  C 19.4791666666667 0  22.236328125 0.256696428571445  24.771484375 0.770089285714278  C 27.306640625 1.28348214285717  29.3118489583333 1.97916666666663  30.787109375 2.85714285714283  C 32.2623697916667 3.73511904761904  33 4.6875  33 5.71428571428572  L 33 8.57142857142856  C 33 9.59821428571428  32.2623697916667 10.5505952380952  30.787109375 11.4285714285714  C 29.3118489583333 12.3065476190476  27.306640625 13.0022321428572  24.771484375 13.515625  C 22.236328125 14.0290178571428  19.4791666666667 14.2857142857143  16.5 14.2857142857143  C 13.5208333333333 14.2857142857143  10.763671875 14.0290178571428  8.228515625 13.515625  C 5.693359375 13.0022321428572  3.68815104166674 12.3065476190476  2.212890625 11.4285714285714  C 0.737630208333258 10.5505952380952  0 9.59821428571428  0 8.57142857142856  L 0 5.71428571428572  C 0 4.6875  0.737630208333258 3.73511904761904  2.212890625 2.85714285714283  C 3.68815104166674 1.97916666666663  5.693359375 1.28348214285717  8.228515625 0.770089285714278  Z " fill-rule="nonzero" fill="#000000" stroke="none" transform="matrix(1 0 0 1 1458 2867 )" />
  </g>
</svg>