<?xml version="1.0" encoding="utf-8"?>
<svg version="1.1" xmlns:xlink="http://www.w3.org/1999/xlink" width="30px" height="20px" xmlns="http://www.w3.org/2000/svg">
  <g transform="matrix(1 0 0 1 -2303 -2753 )">
    <path d="M 0.556640625 0.659722222222172  C 0.185546875000001 1.09953703703707  0 1.62037037037032  0 2.22222222222217  C 0 2.82407407407402  0.185546875000001 3.34490740740739  0.556640625 3.78472222222217  L 13.681640625 19.3402777777778  C 14.052734375 19.7800925925926  14.4921875 20  15 20  C 15.5078125 20  15.947265625 19.7800925925926  16.318359375 19.3402777777778  L 29.443359375 3.78472222222217  C 29.814453125 3.34490740740739  30 2.82407407407402  30 2.22222222222217  C 30 1.62037037037032  29.814453125 1.09953703703707  29.443359375 0.659722222222172  C 29.072265625 0.219907407407391  28.6328125 0  28.125 0  L 1.875 0  C 1.3671875 0  0.927734374999999 0.219907407407391  0.556640625 0.659722222222172  Z " fill-rule="nonzero" fill="#1f6137" stroke="none" transform="matrix(1 0 0 1 2303 2753 )" />
  </g>
</svg>