<?xml version="1.0" encoding="utf-8"?>
<svg version="1.1" xmlns:xlink="http://www.w3.org/1999/xlink" width="30px" height="30px" xmlns="http://www.w3.org/2000/svg">
  <g transform="matrix(1 0 0 1 -1471 -2872 )">
    <path d="M 24.8882681564246 0.90401785714289  C 25.5474860335196 0.301339285714278  26.2737430167598 0  27.0670391061452 0  C 27.8491620111732 0  28.5335195530727 0.25948660714289  29.1201117318436 0.778459821428555  C 29.7067039106146 1.29743303571428  30 1.94754464285717  30 2.72879464285711  C 30 3.43191964285711  29.7486033519554 4.27455357142856  29.2458100558659 5.25669642857144  C 25.536312849162 12.2767857142857  22.9385474860335 16.4732142857143  21.4525139664804 17.8459821428571  C 20.3687150837989 18.8616071428572  19.1508379888268 19.3694196428571  17.7988826815642 19.3694196428571  C 16.391061452514 19.3694196428571  15.18156424581 18.8532366071428  14.1703910614525 17.8208705357143  C 13.159217877095 16.7885044642857  12.6536312849162 15.5636160714286  12.6536312849162 14.1462053571429  C 12.6536312849162 12.7176339285714  13.1675977653631 11.5345982142857  14.1955307262569 10.5970982142857  L 24.8882681564246 0.90401785714289  Z M 9.73743016759772 17.4860491071429  C 10.31843575419 17.40234375  11.0167597765363 17.34375  11.8324022346369 17.3102678571429  C 12.268156424581 18.1584821428572  12.8631284916202 18.8839285714286  13.6173184357542 19.4866071428571  C 14.3715083798883 20.0892857142857  15.2122905027933 20.5133928571428  16.1396648044692 20.7589285714286  L 16.1564245810056 21.9475446428571  C 16.2011173184358 24.3247767857143  15.477653631285 26.2611607142857  13.9860335195531 27.7566964285714  C 12.4944134078212 29.2522321428572  10.5474860335196 30  8.14525139664806 30  C 6.77094972067039 30  5.55307262569829 29.7405133928571  4.49162011173189 29.2215401785714  C 3.43016759776538 28.7025669642857  2.57821229050285 27.9910714285714  1.93575418994408 27.0870535714286  C 1.29329608938542 26.1830357142857  0.810055865921754 25.1618303571429  0.486033519553075 24.0234375  C 0.162011173184396 22.8850446428571  0 21.6573660714286  0 20.3404017857143  C 0.0782122905028473 20.3962053571428  0.307262569832346 20.5636160714286  0.687150837988838 20.8426339285714  C 1.06703910614522 21.1216517857143  1.41340782122904 21.3699776785714  1.72625698324021 21.5876116071429  C 2.03910614525137 21.8052455357143  2.36871508379886 22.0089285714286  2.71508379888269 22.1986607142857  C 3.06145251396651 22.3883928571428  3.31843575418998 22.4832589285714  3.48603351955308 22.4832589285714  C 3.9441340782123 22.4832589285714  4.25139664804465 22.2767857142857  4.40782122905023 21.8638392857143  C 4.68715083798884 21.1272321428571  5.00837988826811 20.4994419642857  5.37150837988827 19.98046875  C 5.73463687150843 19.4614955357143  6.12290502793292 19.0373883928572  6.53631284916196 18.7081473214286  C 6.94972067039112 18.37890625  7.44134078212289 18.1138392857143  8.01117318435752 17.9129464285714  C 8.58100558659214 17.7120535714286  9.15642458100558 17.5697544642857  9.73743016759772 17.4860491071429  Z " fill-rule="nonzero" fill="#cccccc" stroke="none" transform="matrix(1 0 0 1 1471 2872 )" />
  </g>
</svg>