<?xml version="1.0" encoding="utf-8"?>
<svg version="1.1" xmlns:xlink="http://www.w3.org/1999/xlink" width="40px" height="32px" xmlns="http://www.w3.org/2000/svg">
  <g transform="matrix(1 0 0 1 -1170 -310 )">
    <path d="M 19.27734375 23.1145833333333  C 19.7591145833333 22.5243055555555  20 21.7847222222222  20 20.8958333333333  C 20 20.0069444444445  19.94140625 19.1909722222222  19.82421875 18.4479166666667  C 19.70703125 17.7048611111111  19.5149739583333 16.9895833333333  19.248046875 16.3020833333333  C 18.9811197916667 15.6145833333333  18.5872395833333 15.0729166666667  18.06640625 14.6770833333333  C 17.5455729166667 14.28125  16.9140625 14.0833333333333  16.171875 14.0833333333333  C 16.09375 14.1388888888889  15.8984375 14.2638888888889  15.5859375 14.4583333333333  C 15.2734375 14.6527777777778  15.029296875 14.8020833333333  14.853515625 14.90625  C 14.677734375 15.0104166666667  14.4466145833333 15.1319444444444  14.16015625 15.2708333333333  C 13.8736979166667 15.4097222222222  13.59375 15.5104166666667  13.3203125 15.5729166666667  C 13.046875 15.6354166666667  12.7734375 15.6666666666667  12.5 15.6666666666667  C 12.2265625 15.6666666666667  11.953125 15.6354166666667  11.6796875 15.5729166666667  C 11.40625 15.5104166666667  11.1263020833333 15.4097222222222  10.83984375 15.2708333333333  C 10.5533854166667 15.1319444444444  10.322265625 15.0104166666667  10.146484375 14.90625  C 9.970703125 14.8020833333333  9.7265625 14.6527777777778  9.4140625 14.4583333333333  C 9.1015625 14.2638888888889  8.90625 14.1388888888889  8.828125 14.0833333333333  C 8.0859375 14.0833333333333  7.45442708333326 14.28125  6.93359375 14.6770833333333  C 6.41276041666674 15.0729166666667  6.01888020833326 15.6145833333333  5.751953125 16.3020833333333  C 5.48502604166674 16.9895833333333  5.29296875 17.7048611111111  5.17578125 18.4479166666667  C 5.05859375 19.1909722222222  5 20.0069444444445  5 20.8958333333333  C 5 21.7847222222222  5.24088541666674 22.5243055555555  5.72265625 23.1145833333333  C 6.20442708333326 23.7048611111111  6.796875 24  7.5 24  L 17.5 24  C 18.203125 24  18.7955729166667 23.7048611111111  19.27734375 23.1145833333333  Z M 15.634765625 13.40625  C 16.5006510416667 12.4826388888889  16.93359375 11.3680555555556  16.93359375 10.0625  C 16.93359375 8.7569444444444  16.5006510416667 7.64236111111114  15.634765625 6.71875  C 14.7688802083333 5.79513888888886  13.7239583333333 5.33333333333331  12.5 5.33333333333331  C 11.2760416666667 5.33333333333331  10.2311197916667 5.79513888888886  9.365234375 6.71875  C 8.49934895833326 7.64236111111114  8.06640625 8.7569444444444  8.06640625 10.0625  C 8.06640625 11.3680555555556  8.49934895833326 12.4826388888889  9.365234375 13.40625  C 10.2311197916667 14.3298611111111  11.2760416666667 14.7916666666667  12.5 14.7916666666667  C 13.7239583333333 14.7916666666667  14.7688802083333 14.3298611111111  15.634765625 13.40625  Z M 34.82421875 21.1458333333333  C 34.94140625 21.0208333333333  35 20.8611111111111  35 20.6666666666667  L 35 19.3333333333333  C 35 19.1388888888889  34.94140625 18.9791666666667  34.82421875 18.8541666666667  C 34.70703125 18.7291666666667  34.5572916666667 18.6666666666667  34.375 18.6666666666667  L 23.125 18.6666666666667  C 22.9427083333333 18.6666666666667  22.79296875 18.7291666666667  22.67578125 18.8541666666667  C 22.55859375 18.9791666666667  22.5 19.1388888888889  22.5 19.3333333333333  L 22.5 20.6666666666667  C 22.5 20.8611111111111  22.55859375 21.0208333333333  22.67578125 21.1458333333333  C 22.79296875 21.2708333333333  22.9427083333333 21.3333333333333  23.125 21  L 34.375 21  C 34.5572916666667 21.3333333333333  34.70703125 21.2708333333333  34.82421875 21.1458333333333  Z M 34.794921875 15.78125  C 34.931640625 15.6354166666667  35 15.4583333333333  35 15.25  L 35 14.0833333333333  C 35 13.875  34.931640625 13.6979166666667  34.794921875 13.5520833333333  C 34.658203125 13.40625  34.4921875 13.3333333333333  34.296875 13.3333333333333  L 23.203125 13.3333333333333  C 23.0078125 13.3333333333333  22.841796875 13.40625  22.705078125 13.5520833333333  C 22.568359375 13.6979166666667  22.5 13.875  22.5 14.0833333333333  L 22.5 15.25  C 22.5 15.4583333333333  22.568359375 15.6354166666667  22.705078125 15.78125  C 22.841796875 15.9270833333333  23.0078125 16  23.203125 16  L 34.296875 16  C 34.4921875 16  34.658203125 15.9270833333333  34.794921875 15.78125  Z M 34.82421875 10.4791666666667  C 34.94140625 10.3541666666667  35 10.1944444444444  35 10  L 35 8.66666666666669  C 35 8.47222222222217  34.94140625 8.3125  34.82421875 8.1875  C 34.70703125 8.0625  34.5572916666667 8  34.375 8  L 23.125 8  C 22.9427083333333 8  22.79296875 8.0625  22.67578125 8.1875  C 22.55859375 8.3125  22.5 8.47222222222217  22.5 8.66666666666669  L 22.5 10  C 22.5 10.1944444444444  22.55859375 10.3541666666667  22.67578125 10.4791666666667  C 22.79296875 10.6041666666667  22.9427083333333 10.6666666666667  23.125 11  L 34.375 11  C 34.5572916666667 10.6666666666667  34.70703125 10.6041666666667  34.82421875 10.4791666666667  Z M 39.08203125 0.979166666666686  C 39.6940104166667 1.6319444444444  40 2.41666666666669  40 3.33333333333331  L 40 28.6666666666667  C 40 29.5833333333333  39.6940104166667 30.3680555555555  39.08203125 31.0208333333333  C 38.4700520833333 31.6736111111111  37.734375 32  36.875 32  L 30 32  L 30 30  C 30 29.8055555555555  29.94140625 29.6458333333333  29.82421875 29.5208333333333  C 29.70703125 29.3958333333333  29.5572916666667 29.3333333333333  29.375 29.3333333333333  L 28.125 29.3333333333333  C 27.9427083333333 29.3333333333333  27.79296875 29.3958333333333  27.67578125 29.5208333333333  C 27.55859375 29.6458333333333  27.5 29.8055555555555  27.5 30  L 27.5 32  L 12.5 32  L 12.5 30  C 12.5 29.8055555555555  12.44140625 29.6458333333333  12.32421875 29.5208333333333  C 12.20703125 29.3958333333333  12.0572916666667 29.3333333333333  11.875 29.3333333333333  L 10.625 29.3333333333333  C 10.4427083333333 29.3333333333333  10.29296875 29.3958333333333  10.17578125 29.5208333333333  C 10.05859375 29.6458333333333  10 29.8055555555555  10 30  L 10 32  L 3.125 32  C 2.265625 32  1.52994791666674 31.6736111111111  0.91796875 31.0208333333333  C 0.305989583333258 30.3680555555555  0 29.5833333333333  0 28.6666666666667  L 0 3.33333333333331  C 0 2.41666666666669  0.305989583333258 1.6319444444444  0.91796875 0.979166666666686  C 1.52994791666674 0.326388888888857  2.265625 0  3.125 0  L 36.875 0  C 37.734375 0  38.4700520833333 0.326388888888857  39.08203125 0.979166666666686  Z " fill-rule="nonzero" fill="#000000" stroke="none" transform="matrix(1 0 0 1 1170 310 )" />
  </g>
</svg>