<?xml version="1.0" encoding="utf-8"?>
<svg version="1.1" xmlns:xlink="http://www.w3.org/1999/xlink" width="45px" height="34px" xmlns="http://www.w3.org/2000/svg">
  <g transform="matrix(1 0 0 1 -270 -310 )">
    <path d="M 8.701171875 23.8217329545455  C 9.32896205357144 23.2180397727273  9.64285714285711 22.4895833333333  9.64285714285711 21.6363636363637  C 9.64285714285711 20.7831439393939  9.32896205357144 20.0546875  8.701171875 19.4509943181819  C 8.07338169642856 18.8473011363637  7.31584821428572 18.5454545454545  6.42857142857144 18.5454545454545  C 5.54129464285711 18.5454545454545  4.78376116071428 18.8473011363637  4.15597098214289 19.4509943181819  C 3.52818080357145 20.0546875  3.21428571428572 20.7831439393939  3.21428571428572 21.6363636363637  C 3.21428571428572 22.4895833333333  3.52818080357145 23.2180397727273  4.15597098214289 23.8217329545455  C 4.78376116071428 24.4254261363637  5.54129464285711 24.7272727272727  6.42857142857144 24.7272727272727  C 7.31584821428572 24.7272727272727  8.07338169642856 24.4254261363637  8.701171875 23.8217329545455  Z M 13.5226004464286 13.0035511363637  C 14.150390625 12.3998579545455  14.4642857142857 11.6714015151516  14.4642857142857 10.8181818181819  C 14.4642857142857 9.96496212121207  14.150390625 9.23650568181813  13.5226004464286 8.6328125  C 12.8948102678571 8.02911931818187  12.1372767857143 7.7272727272728  11.25 7.7272727272728  C 10.3627232142857 7.7272727272728  9.60518973214289 8.02911931818187  8.97739955357144 8.6328125  C 8.349609375 9.23650568181813  8.03571428571428 9.96496212121207  8.03571428571428 10.8181818181819  C 8.03571428571428 11.6714015151516  8.349609375 12.3998579545455  8.97739955357144 13.0035511363637  C 9.60518973214289 13.6072443181819  10.3627232142857 13.9090909090909  11.25 13.9090909090909  C 12.1372767857143 13.9090909090909  12.8948102678571 13.6072443181819  13.5226004464286 13.0035511363637  Z M 27.0200892857143 24.6306818181819  C 26.6517857142857 23.7130681818181  26.0491071428572 22.9805871212121  25.2120535714286 22.4332386363637  L 27.7483258928571 13.2088068181819  C 27.8487723214286 12.7902462121212  27.7859933035714 12.3998579545455  27.5599888392857 12.0376420454545  C 27.333984375 11.6754261363635  27.0117187500001 11.4379734848484  26.5931919642857 11.3252840909091  C 26.1746651785714 11.2125946969696  25.7728794642857 11.2649147727272  25.3878348214286 11.4822443181819  C 25.0027901785714 11.6995738636363  24.7516741071428 12.0175189393939  24.6344866071429 12.4360795454545  L 22.0982142857143 21.6605113636363  C 21.09375 21.7410037878788  20.1981026785714 22.0911458333333  19.4112723214286 22.7109375  C 18.6244419642857 23.3307291666667  18.0970982142857 24.1235795454545  17.8292410714286 25.0894886363637  C 17.4944196428571 26.3290719696969  17.6618303571429 27.5042613636363  18.3314732142857 28.6150568181819  C 19.0011160714286 29.7258522727273  19.9804687500001 30.4422348484849  21.26953125 30.7642045454545  C 22.5585937499999 31.0861742424242  23.7806919642858 30.9251893939394  24.9358258928571 30.28125  C 26.0909598214286 29.6373106060606  26.8359375000001 28.6955492424242  27.1707589285714 27.4559659090909  C 27.4386160714286 26.4900568181819  27.3883928571428 25.5482954545455  27.0200892857143 24.6306818181819  Z M 40.8440290178571 23.8217329545455  C 41.4718191964286 23.2180397727273  41.7857142857143 22.4895833333333  41.7857142857143 21.6363636363637  C 41.7857142857143 20.7831439393939  41.4718191964286 20.0546875  40.8440290178571 19.4509943181819  C 40.2162388392857 18.8473011363637  39.4587053571429 18.5454545454545  38.5714285714286 18.5454545454545  C 37.6841517857143 18.5454545454545  36.9266183035714 18.8473011363637  36.298828125 19.4509943181819  C 35.6710379464286 20.0546875  35.3571428571429 20.7831439393939  35.3571428571429 21.6363636363637  C 35.3571428571429 22.4895833333333  35.6710379464286 23.2180397727273  36.298828125 23.8217329545455  C 36.9266183035714 24.4254261363637  37.6841517857143 24.7272727272727  38.5714285714286 24.7272727272727  C 39.4587053571429 24.7272727272727  40.2162388392857 24.4254261363637  40.8440290178571 23.8217329545455  Z M 24.7726004464286 8.3671875  C 25.400390625 7.76349431818181  25.7142857142857 7.03503787878793  25.7142857142857 6.18181818181819  C 25.7142857142857 5.32859848484838  25.400390625 4.6001420454545  24.7726004464286 3.99644886363632  C 24.1448102678571 3.39275568181819  23.3872767857143 3.09090909090907  22.5 3.09090909090907  C 21.6127232142857 3.09090909090907  20.8551897321429 3.39275568181819  20.2273995535714 3.99644886363632  C 19.599609375 4.6001420454545  19.2857142857143 5.32859848484838  19.2857142857143 6.18181818181819  C 19.2857142857143 7.03503787878793  19.599609375 7.76349431818181  20.2273995535714 8.3671875  C 20.8551897321429 8.97088068181813  21.6127232142857 9.2727272727272  22.5 9.2727272727272  C 23.3872767857143 9.2727272727272  24.1448102678571 8.97088068181813  24.7726004464286 8.3671875  Z M 36.0226004464286 13.0035511363637  C 36.650390625 12.3998579545455  36.9642857142857 11.6714015151516  36.9642857142857 10.8181818181819  C 36.9642857142857 9.96496212121207  36.650390625 9.23650568181813  36.0226004464286 8.6328125  C 35.3948102678571 8.02911931818187  34.6372767857143 7.7272727272728  33.75 7.7272727272728  C 32.8627232142857 7.7272727272728  32.1051897321429 8.02911931818187  31.4773995535714 8.6328125  C 30.849609375 9.23650568181813  30.5357142857143 9.96496212121207  30.5357142857143 10.8181818181819  C 30.5357142857143 11.6714015151516  30.849609375 12.3998579545455  31.4773995535714 13.0035511363637  C 32.1051897321429 13.6072443181819  32.8627232142857 13.9090909090909  33.75 13.9090909090909  C 34.6372767857143 13.9090909090909  35.3948102678571 13.6072443181819  36.0226004464286 13.0035511363637  Z M 43.2170758928571 13.2329545454545  C 44.4056919642857 15.9053030303031  45 18.7064393939394  45 21.6363636363637  C 45 25.8380681818181  43.8197544642857 29.7258522727273  41.4592633928571 33.2997159090909  C 41.1411830357143 33.766571969697  40.6891741071429 34  40.1032366071429 34  L 4.89676339285711 34  C 4.31082589285711 34  3.85881696428572 33.766571969697  3.54073660714283 33.2997159090909  C 1.18024553571428 29.7419507575758  0 25.8541666666667  0 21.6363636363637  C 0 18.7064393939394  0.594308035714278 15.9053030303031  1.78292410714289 13.2329545454545  C 2.97154017857139 10.5606060606061  4.5703125 8.2585227272728  6.57924107142856 6.3267045454545  C 8.58816964285711 4.39488636363632  10.9821428571429 2.85748106060606  13.7611607142857 1.71448863636368  C 16.5401785714286 0.57149621212119  19.4531250000001 0  22.5 0  C 25.5468749999999 0  28.4598214285714 0.57149621212119  31.2388392857143 1.71448863636368  C 34.0178571428571 2.85748106060606  36.4118303571429 4.39488636363632  38.4207589285714 6.3267045454545  C 40.4296875 8.2585227272728  42.0284598214286 10.5606060606061  43.2170758928571 13.2329545454545  Z " fill-rule="nonzero" fill="#000000" stroke="none" transform="matrix(1 0 0 1 270 310 )" />
  </g>
</svg>