<?xml version="1.0" encoding="utf-8"?>
<svg version="1.1" xmlns:xlink="http://www.w3.org/1999/xlink" width="38px" height="38px" xmlns="http://www.w3.org/2000/svg">
  <g transform="matrix(1 0 0 1 -1022 -314 )">
    <path d="M 28.796875 34.50875  C 29.0861378205129 34.2079166666667  29.2307692307693 33.8516666666667  29.2307692307693 33.4400000000001  C 29.2307692307693 33.0283333333333  29.0861378205129 32.6720833333334  28.796875 32.37125  C 28.5076121794873 32.0704166666667  28.1650641025642 31.9200000000001  27.7692307692307 31.9200000000001  C 27.3733974358975 31.9200000000001  27.0308493589744 32.0704166666667  26.7415865384614 32.37125  C 26.4523237179487 32.6720833333334  26.3076923076924 33.0283333333333  26.3076923076924 33.4400000000001  C 26.3076923076924 33.8516666666667  26.4523237179487 34.2079166666667  26.7415865384614 34.50875  C 27.0308493589744 34.8095833333333  27.3733974358975 34.96  27.7692307692307 34.96  C 28.1650641025642 34.96  28.5076121794873 34.8095833333333  28.796875 34.50875  Z M 34.6430288461538 34.50875  C 34.9322916666667 34.2079166666667  35.0769230769231 33.8516666666667  35.0769230769231 33.4400000000001  C 35.0769230769231 33.0283333333333  34.9322916666667 32.6720833333334  34.6430288461538 32.37125  C 34.3537660256411 32.0704166666667  34.011217948718 31.9200000000001  33.6153846153845 31.9200000000001  C 33.2195512820513 31.9200000000001  32.8770032051282 32.0704166666667  32.5877403846155 32.37125  C 32.2984775641025 32.6720833333334  32.1538461538462 33.0283333333333  32.1538461538462 33.4400000000001  C 32.1538461538462 33.8516666666667  32.2984775641025 34.2079166666667  32.5877403846155 34.50875  C 32.8770032051282 34.8095833333333  33.2195512820513 34.96  33.6153846153845 34.96  C 34.011217948718 34.96  34.3537660256411 34.8095833333333  34.6430288461538 34.50875  Z M 37.3605769230769 26.505  C 37.7868589743589 26.9483333333333  38 27.4866666666667  38 28.12  L 38 35.72  C 38 36.3533333333332  37.7868589743589 36.8916666666667  37.3605769230769 37.335  C 36.9342948717949 37.7783333333333  36.4166666666667 38  35.8076923076924 38  L 2.19230769230762 38  C 1.58333333333326 38  1.06570512820508 37.7783333333333  0.639423076923094 37.335  C 0.213141025641107 36.8916666666667  0 36.3533333333332  0 35.72  L 0 28.12  C 0 27.4866666666667  0.213141025641107 26.9483333333333  0.639423076923094 26.505  C 1.06570512820508 26.0616666666666  1.58333333333326 25.84  2.19230769230762 25.84  L 11.9435096153845 25.84  C 12.2632211538462 26.7266666666667  12.7998798076924 27.4549999999999  13.5534855769231 28.025  C 14.3070913461538 28.595  15.1482371794871 28.88  16.0769230769231 28.88  L 21.9230769230769 28.88  C 22.8517628205129 28.88  23.6929086538462 28.595  24.4465144230769 28.025  C 25.2001201923076 27.4549999999999  25.7367788461538 26.7266666666667  26.0564903846155 25.84  L 35.8076923076924 25.84  C 36.4166666666667 25.84  36.9342948717949 26.0616666666666  37.3605769230769 26.505  Z M 30.2584134615386 11.0912499999999  C 30.7303685897436 11.56625  30.8369391025642 12.1125  30.578125 12.73  C 30.3193108974358 13.3633333333333  29.8701923076924 13.68  29.2307692307693 13.68  L 23 13.68  L 23 24.3200000000001  C 23.3846153846155 24.7316666666667  23.2399839743589 25.0879166666667  22.9507211538462 25.3887500000001  C 22.6614583333333 25.6895833333334  22.3189102564102 25.84  21.9230769230769 25.84  L 16.0769230769231 25.84  C 15.6810897435898 25.84  15.3385416666667 25.6895833333334  15.0492788461538 25.3887500000001  C 14.7600160256411 25.0879166666667  14.6153846153845 24.7316666666667  15 24.3200000000001  L 15 13.68  L 8.76923076923072 13.68  C 8.12980769230762 13.68  7.6806891025642 13.3633333333333  7.421875 12.73  C 7.1630608974358 12.1125  7.26963141025635 11.56625  7.74158653846143 11.0912499999999  L 17.9723557692307 0.451250000000073  C 18.2463942307693 0.150416666666729  18.5889423076924 0  19 0  C 19.4110576923076 0  19.7536057692307 0.150416666666729  20.0276442307693 0.451250000000073  L 30.2584134615386 11.0912499999999  Z " fill-rule="nonzero" fill="#000000" stroke="none" transform="matrix(1 0 0 1 1022 314 )" />
  </g>
</svg>