<?xml version="1.0" encoding="utf-8"?>
<svg version="1.1" xmlns:xlink="http://www.w3.org/1999/xlink" width="38px" height="38px" xmlns="http://www.w3.org/2000/svg">
  <g transform="matrix(1 0 0 1 -82 -1059 )">
    <path d="M 9.5 25  L 9.5 34.8333333333333  L 28.5 34.8333333333333  L 28.5 25  L 9.5 25  Z M 31 24.5416666666667  L 31 34.8333333333333  L 34.8333333333333 34.8333333333333  L 34.8333333333333 12.6666666666667  C 34.8333333333333 12.4357638888889  34.7508680555557 12.1182725694444  34.5859375 11.7141927083333  C 34.4210069444443 11.3101128472222  34.2560763888889 11.0256076388889  34.0911458333333 10.8606770833333  L 27.1393229166667 3.90885416666669  C 26.9743923611111 3.74392361111109  26.6940104166667 3.57899305555554  26.2981770833333 3.4140625  C 25.90234375 3.2491319444444  25.5807291666667 3.16666666666669  25 3.16666666666669  L 25 13.4583333333333  C 25.3333333333333 14.1180555555556  25.1024305555557 14.6788194444444  24.640625 15.140625  C 24.1788194444443 15.6024305555556  23.6180555555557 15.8333333333333  22.9583333333333 16  L 8.70833333333326 16  C 8.04861111111109 15.8333333333333  7.48784722222217 15.6024305555556  7.02604166666674 15.140625  C 6.56423611111109 14.6788194444444  6.33333333333326 14.1180555555556  7 13.4583333333333  L 7 3.16666666666669  L 3.16666666666674 3.16666666666669  L 3.16666666666674 34.8333333333333  L 7 34.8333333333333  L 7 24.5416666666667  C 6.33333333333326 23.8819444444445  6.56423611111109 23.3211805555555  7.02604166666674 22.859375  C 7.48784722222217 22.3975694444445  8.04861111111109 22.1666666666667  8.70833333333326 22  L 29.2916666666667 22  C 29.9513888888889 22.1666666666667  30.5121527777778 22.3975694444445  30.9739583333333 22.859375  C 31.4357638888889 23.3211805555555  31.6666666666667 23.8819444444445  31 24.5416666666667  Z M 21.931640625 12.431640625  C 22.0883246527778 12.2749565972222  22.1666666666667 12.0894097222222  22.1666666666667 11.875  L 22.1666666666667 3.95833333333331  C 22.1666666666667 3.74392361111109  22.0883246527778 3.55837673611109  21.931640625 3.40169270833331  C 21.7749565972222 3.24500868055554  21.5894097222222 3.16666666666669  21.375 3.16666666666669  L 16.625 3.16666666666669  C 16.4105902777778 3.16666666666669  16.2250434027778 3.24500868055554  16.068359375 3.40169270833331  C 15.9116753472222 3.55837673611109  15.8333333333333 3.74392361111109  15.8333333333333 3.95833333333331  L 15.8333333333333 11.875  C 15.8333333333333 12.0894097222222  15.9116753472222 12.2749565972222  16.068359375 12.431640625  C 16.2250434027778 12.5883246527778  16.4105902777778 12.6666666666667  16.625 12.6666666666667  L 21.375 12.6666666666667  C 21.5894097222222 12.6666666666667  21.7749565972222 12.5883246527778  21.931640625 12.431640625  Z M 37.5052083333333 10.4895833333333  C 37.8350694444443 11.28125  38 12.0069444444444  38 12.6666666666667  L 38 35.625  C 38 36.2847222222222  37.7690972222222 36.8454861111111  37.3072916666667 37.3072916666667  C 36.8454861111111 37.7690972222222  36.2847222222222 38  35.625 38  L 2.375 38  C 1.71527777777783 38  1.15451388888891 37.7690972222222  0.692708333333258 37.3072916666667  C 0.230902777777828 36.8454861111111  0 36.2847222222222  0 35.625  L 0 2.375  C 0 1.71527777777777  0.230902777777828 1.15451388888891  0.692708333333258 0.692708333333314  C 1.15451388888891 0.230902777777771  1.71527777777783 0  2.375 0  L 25.3333333333333 0  C 25.9930555555557 0  26.71875 0.164930555555543  27.5104166666667 0.494791666666686  C 28.3020833333333 0.824652777777771  28.9288194444443 1.22048611111109  29.390625 1.68229166666669  L 36.3177083333333 8.609375  C 36.7795138888889 9.07118055555554  37.1753472222222 9.69791666666669  37.5052083333333 10.4895833333333  Z " fill-rule="nonzero" fill="#000000" stroke="none" transform="matrix(1 0 0 1 82 1059 )" />
  </g>
</svg>