<?xml version="1.0" encoding="utf-8"?>
<svg version="1.1" xmlns:xlink="http://www.w3.org/1999/xlink" width="38px" height="38px" xmlns="http://www.w3.org/2000/svg">
  <g transform="matrix(1 0 0 1 -955 -314 )">
    <path d="M 28.796875 34.36328125  C 29.0861378205129 34.0499131944443  29.2307692307693 33.6788194444443  29.2307692307693 33.25  C 29.2307692307693 32.8211805555557  29.0861378205129 32.4500868055557  28.796875 32.13671875  C 28.5076121794873 31.8233506944443  28.1650641025642 31.6666666666667  27.7692307692307 31.6666666666667  C 27.3733974358975 31.6666666666667  27.0308493589744 31.8233506944443  26.7415865384614 32.13671875  C 26.4523237179487 32.4500868055557  26.3076923076924 32.8211805555557  26.3076923076924 33.25  C 26.3076923076924 33.6788194444443  26.4523237179487 34.0499131944443  26.7415865384614 34.36328125  C 27.0308493589744 34.6766493055557  27.3733974358975 34.8333333333333  27.7692307692307 34.8333333333333  C 28.1650641025642 34.8333333333333  28.5076121794873 34.6766493055557  28.796875 34.36328125  Z M 34.6430288461538 34.36328125  C 34.9322916666667 34.0499131944443  35.0769230769231 33.6788194444443  35.0769230769231 33.25  C 35.0769230769231 32.8211805555557  34.9322916666667 32.4500868055557  34.6430288461538 32.13671875  C 34.3537660256411 31.8233506944443  34.011217948718 31.6666666666667  33.6153846153845 31.6666666666667  C 33.2195512820513 31.6666666666667  32.8770032051282 31.8233506944443  32.5877403846155 32.13671875  C 32.2984775641025 32.4500868055557  32.1538461538462 32.8211805555557  32.1538461538462 33.25  C 32.1538461538462 33.6788194444443  32.2984775641025 34.0499131944443  32.5877403846155 34.36328125  C 32.8770032051282 34.6766493055557  33.2195512820513 34.8333333333333  33.6153846153845 34.8333333333333  C 34.011217948718 34.8333333333333  34.3537660256411 34.6766493055557  34.6430288461538 34.36328125  Z M 37.3605769230769 26.0260416666667  C 37.7868589743589 26.4878472222222  38 27.0486111111111  38 27.7083333333333  L 38 35.625  C 38 36.2847222222222  37.7868589743589 36.8454861111111  37.3605769230769 37.3072916666667  C 36.9342948717949 37.7690972222222  36.4166666666667 38  35.8076923076924 38  L 2.19230769230762 38  C 1.58333333333326 38  1.06570512820508 37.7690972222222  0.639423076923094 37.3072916666667  C 0.213141025641107 36.8454861111111  0 36.2847222222222  0 35.625  L 0 27.7083333333333  C 0 27.0486111111111  0.213141025641107 26.4878472222222  0.639423076923094 26.0260416666667  C 1.06570512820508 25.5642361111111  1.58333333333326 25.3333333333333  2.19230769230762 25  L 12.8112980769231 25  L 15.8942307692307 28.6979166666667  C 16.7772435897436 29.6215277777778  17.8125 30.0833333333333  19 30.0833333333333  C 20.1875 30.0833333333333  21.2227564102564 29.6215277777778  22.1057692307693 28.6979166666667  L 25.2115384615386 25  L 35.8076923076924 25  C 36.4166666666667 25.3333333333333  36.9342948717949 25.5642361111111  37.3605769230769 26.0260416666667  Z M 29.2307692307693 12.6666666666667  C 29.8701923076924 12.6666666666667  30.3193108974358 12.98828125  30.578125 13.6315104166667  C 30.8369391025642 14.3077256944445  30.7303685897436 14.8849826388889  30.2584134615386 15.36328125  L 20.0276442307693 26.4466145833333  C 19.7536057692307 26.7599826388889  19.4110576923076 26.9166666666667  19 26.9166666666667  C 18.5889423076924 26.9166666666667  18.2463942307693 26.7599826388889  17.9723557692307 26.4466145833333  L 7.74158653846143 15.36328125  C 7.26963141025635 14.8849826388889  7.1630608974358 14.3077256944445  7.421875 13.6315104166667  C 7.6806891025642 12.98828125  8.12980769230762 12.6666666666667  8.76923076923072 12.6666666666667  L 15 12.6666666666667  L 15 1.58333333333326  C 14.6153846153845 1.15451388888891  14.7600160256411 0.783420138888914  15.0492788461538 0.470052083333258  C 15.3385416666667 0.156684027777828  15.6810897435898 0  16.0769230769231 0  L 21.9230769230769 0  C 22.3189102564102 0  22.6614583333333 0.156684027777828  22.9507211538462 0.470052083333258  C 23.2399839743589 0.783420138888914  23.3846153846155 1.15451388888891  23 1.58333333333326  L 23 12.6666666666667  L 29.2307692307693 12.6666666666667  Z " fill-rule="nonzero" fill="#000000" stroke="none" transform="matrix(1 0 0 1 955 314 )" />
  </g>
</svg>