<?xml version="1.0" encoding="utf-8"?>
<svg version="1.1" xmlns:xlink="http://www.w3.org/1999/xlink" width="30px" height="30px" xmlns="http://www.w3.org/2000/svg">
  <defs>
    <mask fill="white" id="clip4">
      <path d="M 29.4034090909091 11.5056818181818  C 29.8011363636364 11.903409090909  30 12.3863636363635  30 12.9545454545453  L 30 17.0454545454547  C 30 17.6136363636365  29.8011363636364 18.096590909091  29.4034090909091 18.4943181818182  C 29.0056818181819 18.8920454545455  28.5227272727273 19.090909090909  27.9545454545455 19.090909090909  L 19.0909090909091 19.090909090909  L 19.0909090909091 27.9545454545453  C 19.0909090909091 28.5227272727273  18.8920454545455 29.005681818182  18.4943181818182 29.403409090909  C 18.096590909091 29.8011363636365  17.6136363636364 30  17.0454545454545 30  L 12.9545454545455 30  C 12.3863636363636 30  11.903409090909 29.8011363636365  11.5056818181818 29.403409090909  C 11.1079545454545 29.005681818182  10.9090909090909 28.5227272727273  10.9090909090909 27.9545454545453  L 10.9090909090909 19.090909090909  L 2.0454545454545 19.090909090909  C 1.47727272727275 19.090909090909  0.99431818181813 18.8920454545455  0.596590909090878 18.4943181818182  C 0.198863636363626 18.096590909091  0 17.6136363636365  0 17.0454545454547  L 0 12.9545454545453  C 0 12.3863636363635  0.198863636363626 11.903409090909  0.596590909090878 11.5056818181818  C 0.99431818181813 11.1079545454545  1.47727272727275 10.909090909091  2.0454545454545 10.909090909091  L 10.9090909090909 10.909090909091  L 10.9090909090909 2.04545454545473  C 10.9090909090909 1.47727272727275  11.1079545454545 0.994318181818016  11.5056818181818 0.596590909090992  C 11.903409090909 0.198863636363512  12.3863636363636 0  12.9545454545455 0  L 17.0454545454545 0  C 17.6136363636364 0  18.096590909091 0.198863636363512  18.4943181818182 0.596590909090992  C 18.8920454545455 0.994318181818016  19.0909090909091 1.47727272727275  19.0909090909091 2.04545454545473  L 19.0909090909091 10.909090909091  L 27.9545454545455 10.909090909091  C 28.5227272727273 10.909090909091  29.0056818181819 11.1079545454545  29.4034090909091 11.5056818181818  Z " fill-rule="evenodd" />
    </mask>
  </defs>
  <g transform="matrix(1 0 0 1 -1117 -316 )">
    <path d="M 29.4034090909091 11.5056818181818  C 29.8011363636364 11.903409090909  30 12.3863636363635  30 12.9545454545453  L 30 17.0454545454547  C 30 17.6136363636365  29.8011363636364 18.096590909091  29.4034090909091 18.4943181818182  C 29.0056818181819 18.8920454545455  28.5227272727273 19.090909090909  27.9545454545455 19.090909090909  L 19.0909090909091 19.090909090909  L 19.0909090909091 27.9545454545453  C 19.0909090909091 28.5227272727273  18.8920454545455 29.005681818182  18.4943181818182 29.403409090909  C 18.096590909091 29.8011363636365  17.6136363636364 30  17.0454545454545 30  L 12.9545454545455 30  C 12.3863636363636 30  11.903409090909 29.8011363636365  11.5056818181818 29.403409090909  C 11.1079545454545 29.005681818182  10.9090909090909 28.5227272727273  10.9090909090909 27.9545454545453  L 10.9090909090909 19.090909090909  L 2.0454545454545 19.090909090909  C 1.47727272727275 19.090909090909  0.99431818181813 18.8920454545455  0.596590909090878 18.4943181818182  C 0.198863636363626 18.096590909091  0 17.6136363636365  0 17.0454545454547  L 0 12.9545454545453  C 0 12.3863636363635  0.198863636363626 11.903409090909  0.596590909090878 11.5056818181818  C 0.99431818181813 11.1079545454545  1.47727272727275 10.909090909091  2.0454545454545 10.909090909091  L 10.9090909090909 10.909090909091  L 10.9090909090909 2.04545454545473  C 10.9090909090909 1.47727272727275  11.1079545454545 0.994318181818016  11.5056818181818 0.596590909090992  C 11.903409090909 0.198863636363512  12.3863636363636 0  12.9545454545455 0  L 17.0454545454545 0  C 17.6136363636364 0  18.096590909091 0.198863636363512  18.4943181818182 0.596590909090992  C 18.8920454545455 0.994318181818016  19.0909090909091 1.47727272727275  19.0909090909091 2.04545454545473  L 19.0909090909091 10.909090909091  L 27.9545454545455 10.909090909091  C 28.5227272727273 10.909090909091  29.0056818181819 11.1079545454545  29.4034090909091 11.5056818181818  Z " fill-rule="nonzero" fill="#1f6137" stroke="none" transform="matrix(1 0 0 1 1117 316 )" />
    <path d="M 29.4034090909091 11.5056818181818  C 29.8011363636364 11.903409090909  30 12.3863636363635  30 12.9545454545453  L 30 17.0454545454547  C 30 17.6136363636365  29.8011363636364 18.096590909091  29.4034090909091 18.4943181818182  C 29.0056818181819 18.8920454545455  28.5227272727273 19.090909090909  27.9545454545455 19.090909090909  L 19.0909090909091 19.090909090909  L 19.0909090909091 27.9545454545453  C 19.0909090909091 28.5227272727273  18.8920454545455 29.005681818182  18.4943181818182 29.403409090909  C 18.096590909091 29.8011363636365  17.6136363636364 30  17.0454545454545 30  L 12.9545454545455 30  C 12.3863636363636 30  11.903409090909 29.8011363636365  11.5056818181818 29.403409090909  C 11.1079545454545 29.005681818182  10.9090909090909 28.5227272727273  10.9090909090909 27.9545454545453  L 10.9090909090909 19.090909090909  L 2.0454545454545 19.090909090909  C 1.47727272727275 19.090909090909  0.99431818181813 18.8920454545455  0.596590909090878 18.4943181818182  C 0.198863636363626 18.096590909091  0 17.6136363636365  0 17.0454545454547  L 0 12.9545454545453  C 0 12.3863636363635  0.198863636363626 11.903409090909  0.596590909090878 11.5056818181818  C 0.99431818181813 11.1079545454545  1.47727272727275 10.909090909091  2.0454545454545 10.909090909091  L 10.9090909090909 10.909090909091  L 10.9090909090909 2.04545454545473  C 10.9090909090909 1.47727272727275  11.1079545454545 0.994318181818016  11.5056818181818 0.596590909090992  C 11.903409090909 0.198863636363512  12.3863636363636 0  12.9545454545455 0  L 17.0454545454545 0  C 17.6136363636364 0  18.096590909091 0.198863636363512  18.4943181818182 0.596590909090992  C 18.8920454545455 0.994318181818016  19.0909090909091 1.47727272727275  19.0909090909091 2.04545454545473  L 19.0909090909091 10.909090909091  L 27.9545454545455 10.909090909091  C 28.5227272727273 10.909090909091  29.0056818181819 11.1079545454545  29.4034090909091 11.5056818181818  Z " stroke-width="4" stroke="#006600" fill="none" transform="matrix(1 0 0 1 1117 316 )" mask="url(#clip4)" />
  </g>
</svg>