<?xml version="1.0" encoding="utf-8"?>
<svg version="1.1" xmlns:xlink="http://www.w3.org/1999/xlink" width="40px" height="32px" xmlns="http://www.w3.org/2000/svg">
  <g transform="matrix(1 0 0 1 -270 -312 )">
    <path d="M 10.6666666666667 11.4285714285714  C 10.6666666666667 13.0833333333333  11.2291666666667 14.6071428571429  12.3541666666667 16  C 10.1041666666667 16.0595238095239  8.26388888888889 16.8214285714286  6.83333333333334 18.2857142857142  L 4.04166666666666 18.2857142857142  C 2.90277777777777 18.2857142857142  1.94444444444446 18.0446428571429  1.16666666666666 17.5625  C 0.388888888888886 17.0803571428571  0 16.375  0 15.4464285714286  C 0 11.2440476190476  0.861111111111114 9.14285714285711  2.58333333333334 9.14285714285711  C 2.66666666666666 9.14285714285711  2.96875 9.26785714285711  3.48958333333334 9.51785714285711  C 4.01041666666666 9.76785714285711  4.6875 10.0208333333333  5.52083333333334 10.2767857142858  C 6.35416666666666 10.5327380952382  7.18055555555554 10.6607142857142  8 10.6607142857142  C 8.93055555555554 10.6607142857142  9.85416666666666 10.5238095238095  10.7708333333333 10.25  C 10.7013888888889 10.6904761904761  10.6666666666667 11.0833333333333  10.6666666666667 11.4285714285714  Z M 34.59375 25.5267857142858  C 34.6423611111111 26.1279761904761  34.6666666666667 26.7440476190476  34.6666666666667 27.375  C 34.6666666666667 28.8035714285714  34.1597222222222 29.9315476190476  33.1458333333333 30.7589285714286  C 32.1319444444445 31.5863095238095  30.7847222222222 32  29.1041666666667 32  L 10.8958333333333 32  C 9.21527777777777 32  7.86805555555554 31.5863095238095  6.85416666666666 30.7589285714286  C 5.84027777777777 29.9315476190476  5.33333333333334 28.8035714285714  5.33333333333334 27.375  C 5.33333333333334 26.7440476190476  5.35763888888889 26.1279761904761  5.40625 25.5267857142858  C 5.45486111111111 24.9255952380953  5.55208333333334 24.2767857142858  5.69791666666666 23.5803571428571  C 5.84375 22.8839285714286  6.02777777777777 22.2380952380953  6.25 21.6428571428571  C 6.47222222222223 21.047619047619  6.77083333333334 20.4672619047618  7.14583333333334 19.9017857142858  C 7.52083333333334 19.3363095238095  7.95138888888889 18.8541666666667  8.4375 18.4553571428571  C 8.92361111111111 18.0565476190476  9.51736111111111 17.7380952380953  10.21875 17.5  C 10.9201388888889 17.2619047619047  11.6944444444445 17.1428571428571  12.5416666666667 17.1428571428571  C 12.6805555555555 17.1428571428571  12.9791666666667 17.2708333333333  13.4375 17.5267857142858  C 13.8958333333333 17.7827380952382  14.4027777777778 18.0684523809524  14.9583333333333 18.3839285714286  C 15.5138888888889 18.6994047619047  16.2569444444445 18.985119047619  17.1875 19.2410714285714  C 18.1180555555555 19.4970238095239  19.0555555555555 19.625  20 19.625  C 20.9444444444445 19.625  21.8819444444445 19.4970238095239  22.8125 19.2410714285714  C 23.7430555555556 18.985119047619  24.4861111111111 18.6994047619047  25.0416666666667 18.3839285714286  C 25.5972222222222 18.0684523809524  26.1041666666667 17.7827380952382  26.5625 17.5267857142858  C 27.0208333333333 17.2708333333333  27.3194444444445 17.1428571428571  27.4583333333333 17.1428571428571  C 28.3055555555555 17.1428571428571  29.0798611111111 17.2619047619047  29.78125 17.5  C 30.4826388888889 17.7380952380953  31.0763888888889 18.0565476190476  31.5625 18.4553571428571  C 32.0486111111111 18.8541666666667  32.4791666666667 19.3363095238095  32.8541666666667 19.9017857142858  C 33.2291666666667 20.4672619047618  33.5277777777778 21.047619047619  33.75 21.6428571428571  C 33.9722222222222 22.2380952380953  34.15625 22.8839285714286  34.3020833333333 23.5803571428571  C 34.4479166666667 24.2767857142858  34.5451388888889 24.9255952380953  34.59375 25.5267857142858  Z M 11.7708333333333 1.33928571428578  C 12.8125 2.23214285714289  13.3333333333333 3.30952380952385  13.3333333333333 4.57142857142856  C 13.3333333333333 5.83333333333326  12.8125 6.91071428571422  11.7708333333333 7.80357142857144  C 10.7291666666667 8.69642857142856  9.47222222222223 9.14285714285711  8 9.14285714285711  C 6.52777777777777 9.14285714285711  5.27083333333334 8.69642857142856  4.22916666666666 7.80357142857144  C 3.1875 6.91071428571422  2.66666666666666 5.83333333333326  2.66666666666666 4.57142857142856  C 2.66666666666666 3.30952380952385  3.1875 2.23214285714289  4.22916666666666 1.33928571428578  C 5.27083333333334 0.446428571428555  6.52777777777777 0  8 0  C 9.47222222222223 0  10.7291666666667 0.446428571428555  11.7708333333333 1.33928571428578  Z M 25.65625 6.58035714285711  C 27.21875 7.91964285714289  28 9.53571428571422  28 11.4285714285714  C 28 13.3214285714286  27.21875 14.9375  25.65625 16.2767857142858  C 24.09375 17.6160714285714  22.2083333333333 18.2857142857142  20 18.2857142857142  C 17.7916666666667 18.2857142857142  15.90625 17.6160714285714  14.34375 16.2767857142858  C 12.78125 14.9375  12 13.3214285714286  12 11.4285714285714  C 12 9.53571428571422  12.78125 7.91964285714289  14.34375 6.58035714285711  C 15.90625 5.24107142857144  17.7916666666667 4.57142857142856  20 4.57142857142856  C 22.2083333333333 4.57142857142856  24.09375 5.24107142857144  25.65625 6.58035714285711  Z M 37.4166666666667 9.14285714285711  C 39.1388888888889 9.14285714285711  40 11.2440476190476  40 15.4464285714286  C 40 16.375  39.6111111111111 17.0803571428571  38.8333333333333 17.5625  C 38.0555555555556 18.0446428571429  37.0972222222222 18.2857142857142  35.9583333333333 18.2857142857142  L 33.1666666666667 18.2857142857142  C 31.7361111111111 16.8214285714286  29.8958333333333 16.0595238095239  27.6458333333333 16  C 28.7708333333333 14.6071428571429  29.3333333333333 13.0833333333333  29.3333333333333 11.4285714285714  C 29.3333333333333 11.0833333333333  29.2986111111111 10.6904761904761  29.2291666666667 10.25  C 30.1458333333333 10.5238095238095  31.0694444444445 10.6607142857142  32 10.6607142857142  C 32.8194444444445 10.6607142857142  33.6458333333333 10.5327380952382  34.4791666666667 10.2767857142858  C 35.3125 10.0208333333333  35.9895833333333 9.76785714285711  36.5104166666667 9.51785714285711  C 37.03125 9.26785714285711  37.3333333333333 9.14285714285711  37.4166666666667 9.14285714285711  Z M 35.7708333333333 1.33928571428578  C 36.8125 2.23214285714289  37.3333333333333 3.30952380952385  37.3333333333333 4.57142857142856  C 37.3333333333333 5.83333333333326  36.8125 6.91071428571422  35.7708333333333 7.80357142857144  C 34.7291666666667 8.69642857142856  33.4722222222222 9.14285714285711  32 9.14285714285711  C 30.5277777777778 9.14285714285711  29.2708333333333 8.69642857142856  28.2291666666667 7.80357142857144  C 27.1875 6.91071428571422  26.6666666666667 5.83333333333326  26.6666666666667 4.57142857142856  C 26.6666666666667 3.30952380952385  27.1875 2.23214285714289  28.2291666666667 1.33928571428578  C 29.2708333333333 0.446428571428555  30.5277777777778 0  32 0  C 33.4722222222222 0  34.7291666666667 0.446428571428555  35.7708333333333 1.33928571428578  Z " fill-rule="nonzero" fill="#000000" stroke="none" transform="matrix(1 0 0 1 270 312 )" />
  </g>
</svg>