<?xml version="1.0" encoding="utf-8"?>
<svg version="1.1" xmlns:xlink="http://www.w3.org/1999/xlink" width="40px" height="40px" xmlns="http://www.w3.org/2000/svg">
  <g transform="matrix(1 0 0 1 -1088 -341 )">
    <path d="M 39.1015625 23.5807291666667  C 39.2664930555557 23.7456597222222  39.3489583333333 23.9409722222222  39.3489583333333 24.1666666666667  C 39.3489583333333 24.2534722222222  39.3402777777778 24.3142361111111  39.3229166666667 24.3489583333333  C 38.2118055555557 29.0017361111111  35.8854166666667 32.7734375  32.34375 35.6640625  C 28.8020833333333 38.5546875  24.6527777777778 40  19.8958333333333 40  C 17.3611111111111 40  14.9088541666667 39.5225694444445  12.5390625 38.5677083333333  C 10.1692708333333 37.6128472222222  8.05555555555566 36.25  6.19791666666674 34.4791666666667  L 2.83854166666674 37.8385416666667  C 2.50868055555566 38.1684027777778  2.11805555555566 38.3333333333333  1.66666666666674 38.3333333333333  C 1.21527777777783 38.3333333333333  0.824652777777828 38.1684027777778  0.494791666666742 37.8385416666667  C 0.164930555555657 37.5086805555555  0 37.1180555555555  0 36.6666666666667  L 0 25  C 0 24.5486111111111  0.164930555555657 24.1579861111111  0.494791666666742 23.828125  C 0.824652777777828 23.4982638888889  1.21527777777783 23.3333333333333  1.66666666666674 23  L 13.3333333333333 23  C 13.7847222222222 23.3333333333333  14.1753472222222 23.4982638888889  14.5052083333333 23.828125  C 14.8350694444443 24.1579861111111  15 24.5486111111111  15 25  C 15 25.4513888888889  14.8350694444443 25.8420138888889  14.5052083333333 26.171875  L 10.9375 29.7395833333333  C 12.1701388888889 30.8854166666667  13.5677083333333 31.7708333333333  15.1302083333333 32.3958333333333  C 16.6927083333333 33.0208333333333  18.3159722222222 33.3333333333333  20 33.3333333333333  C 22.3263888888889 33.3333333333333  24.4965277777778 32.7690972222222  26.5104166666667 31.640625  C 28.5243055555557 30.5121527777778  30.1388888888889 28.9583333333333  31.3541666666667 26.9791666666667  C 31.5451388888889 26.6840277777778  32.0052083333333 25.6684027777778  32.734375 23.9322916666667  C 32.8732638888889 23.5329861111111  33.1336805555557 23.3333333333333  33.515625 23.3333333333333  L 38.515625 23.3333333333333  C 38.7413194444443 23.3333333333333  38.9366319444443 23.4157986111111  39.1015625 23.5807291666667  Z M 39.5052083333333 2.16145833333331  C 39.8350694444443 2.49131944444446  40 2.88194444444446  40 3.33333333333331  L 40 15  C 40 15.4513888888889  39.8350694444443 15.8420138888889  39.5052083333333 16.171875  C 39.1753472222222 16.5017361111111  38.7847222222222 16.6666666666667  38.3333333333333 17  L 26.6666666666667 17  C 26.2152777777778 16.6666666666667  25.8246527777778 16.5017361111111  25.4947916666667 16.171875  C 25.1649305555557 15.8420138888889  25 15.4513888888889  25 15  C 25 14.5486111111111  25.1649305555557 14.1579861111111  25.4947916666667 13.828125  L 29.0885416666667 10.234375  C 26.5190972222222 7.85590277777777  23.4895833333333 6.66666666666669  20 6.66666666666669  C 17.6736111111111 6.66666666666669  15.5034722222222 7.23090277777777  13.4895833333333 8.359375  C 11.4756944444443 9.48784722222223  9.86111111111109 11.0416666666667  8.64583333333326 13.0208333333333  C 8.45486111111109 13.3159722222222  7.99479166666674 14.3315972222222  7.265625 16.0677083333333  C 7.12673611111109 16.4670138888889  6.86631944444434 16.6666666666667  6.484375 16.6666666666667  L 1.30208333333326 16.6666666666667  C 1.07638888888891 16.6666666666667  0.881076388888914 16.5842013888889  0.716145833333258 16.4192708333333  C 0.551215277777828 16.2543402777778  0.46875 16.0590277777778  0.46875 15.8333333333333  L 0.46875 15.6510416666667  C 1.59722222222217 10.9982638888889  3.94097222222217 7.2265625  7.5 4.3359375  C 11.0590277777778 1.4453125  15.2256944444443 0  20 0  C 22.5347222222222 0  25 0.481770833333314  27.3958333333333 1.4453125  C 29.7916666666667 2.40885416666669  31.9184027777778 3.76736111111109  33.7760416666667 5.52083333333331  L 37.1614583333333 2.16145833333331  C 37.4913194444443 1.83159722222223  37.8819444444443 1.66666666666669  38.3333333333333 1.66666666666669  C 38.7847222222222 1.66666666666669  39.1753472222222 1.83159722222223  39.5052083333333 2.16145833333331  Z " fill-rule="nonzero" fill="#ff0000" stroke="none" fill-opacity="0.6" transform="matrix(1 0 0 1 1088 341 )" />
  </g>
</svg>