<?xml version="1.0" encoding="utf-8"?>
<svg version="1.1" xmlns:xlink="http://www.w3.org/1999/xlink" width="18px" height="30px" xmlns="http://www.w3.org/2000/svg">
  <g transform="matrix(1 0 0 1 -613 -1898 )">
    <path d="M 12.2783203125 6.9921875  C 12.7177734375 7.48697916666663  12.9375 8.07291666666663  12.9375 8.75  C 12.9375 8.91927083333337  12.8818359375 9.06575520833337  12.7705078125 9.189453125  C 12.6591796875 9.31315104166663  12.52734375 9.375  12.375 9.375  C 12.22265625 9.375  12.0908203125 9.31315104166663  11.9794921875 9.189453125  C 11.8681640625 9.06575520833337  11.8125 8.91927083333337  11.8125 8.75  C 11.8125 8.15104166666663  11.49609375 7.68880208333337  10.86328125 7.36328125  C 10.23046875 7.03776041666663  9.609375 6.875  9 6.875  C 8.84765625 6.875  8.7158203125 6.81315104166663  8.6044921875 6.689453125  C 8.4931640625 6.56575520833337  8.4375 6.41927083333337  8.4375 6.25  C 8.4375 6.08072916666663  8.4931640625 5.93424479166663  8.6044921875 5.810546875  C 8.7158203125 5.68684895833337  8.84765625 5.625  9 5.625  C 9.5859375 5.625  10.1689453125 5.72916666666663  10.7490234375 5.9375  C 11.3291015625 6.14583333333337  11.8388671875 6.49739583333337  12.2783203125 6.9921875  Z M 14.5546875 12.265625  C 15.3515625 11.2369791666666  15.75 10.0651041666666  15.75 8.75  C 15.75 7.8125  15.5478515625 6.94010416666663  15.1435546875 6.1328125  C 14.7392578125 5.32552083333337  14.2119140625 4.66471354166663  13.5615234375 4.150390625  C 12.9111328125 3.63606770833337  12.1904296875 3.232421875  11.3994140625 2.939453125  C 10.6083984375 2.646484375  9.80859375 2.5  9 2.5  C 8.19140625 2.5  7.3916015625 2.646484375  6.6005859375 2.939453125  C 5.8095703125 3.232421875  5.0888671875 3.63606770833337  4.4384765625 4.150390625  C 3.7880859375 4.66471354166663  3.2607421875 5.32552083333337  2.8564453125 6.1328125  C 2.4521484375 6.94010416666663  2.25 7.8125  2.25 8.75  C 2.25 10.0651041666666  2.6484375 11.2369791666666  3.4453125 12.265625  C 3.5625 12.4088541666666  3.7412109375 12.6236979166666  3.9814453125 12.91015625  C 4.2216796875 13.1966145833334  4.400390625 13.4114583333334  4.517578125 13.5546875  C 6.017578125 15.546875  6.84375 17.4869791666666  6.99609375 19.375  L 11.00390625 19.375  C 11.15625 17.4869791666666  11.982421875 15.546875  13.482421875 13.5546875  C 13.599609375 13.4114583333334  13.7783203125 13.1966145833334  14.0185546875 12.91015625  C 14.2587890625 12.6236979166666  14.4375 12.4088541666666  14.5546875 12.265625  Z M 17.2177734375 5.146484375  C 17.7392578125 6.259765625  18 7.4609375  18 8.75  C 18 10.7682291666666  17.396484375 12.5130208333334  16.189453125 13.984375  C 15.662109375 14.6223958333334  15.2255859375 15.1888020833334  14.8798828125 15.68359375  C 14.5341796875 16.1783854166666  14.185546875 16.8001302083334  13.833984375 17.548828125  C 13.482421875 18.2975260416666  13.283203125 18.9973958333334  13.236328125 19.6484375  C 13.787109375 20.0130208333334  14.0625 20.546875  14.0625 21.25  C 14.0625 21.7317708333334  13.916015625 22.1484375  13.623046875 22.5  C 13.916015625 22.8515625  14.0625 23.2682291666666  14.0625 23.75  C 14.0625 24.4270833333334  13.798828125 24.9544270833334  13.271484375 25.33203125  C 13.423828125 25.6315104166666  13.5 25.9375  13.5 26.25  C 13.5 26.8489583333334  13.3154296875 27.3111979166666  12.9462890625 27.63671875  C 12.5771484375 27.9622395833334  12.123046875 28.125  11.583984375 28.125  C 11.349609375 28.6979166666666  10.998046875 29.1536458333334  10.529296875 29.4921875  C 10.060546875 29.8307291666666  9.55078125 30  9 30  C 8.44921875 30  7.939453125 29.8307291666666  7.470703125 29.4921875  C 7.001953125 29.1536458333334  6.650390625 28.6979166666666  6.416015625 28.125  C 5.876953125 28.125  5.4228515625 27.9622395833334  5.0537109375 27.63671875  C 4.6845703125 27.3111979166666  4.5 26.8489583333334  4.5 26.25  C 4.5 25.9375  4.576171875 25.6315104166666  4.728515625 25.33203125  C 4.201171875 24.9544270833334  3.9375 24.4270833333334  3.9375 23.75  C 3.9375 23.2682291666666  4.083984375 22.8515625  4.376953125 22.5  C 4.083984375 22.1484375  3.9375 21.7317708333334  3.9375 21.25  C 3.9375 20.546875  4.212890625 20.0130208333334  4.763671875 19.6484375  C 4.716796875 18.9973958333334  4.517578125 18.2975260416666  4.166015625 17.548828125  C 3.814453125 16.8001302083334  3.4658203125 16.1783854166666  3.1201171875 15.68359375  C 2.7744140625 15.1888020833334  2.337890625 14.6223958333334  1.810546875 13.984375  C 0.603515625 12.5130208333334  0 10.7682291666666  0 8.75  C 0 7.4609375  0.2607421875 6.259765625  0.7822265625 5.146484375  C 1.3037109375 4.033203125  1.9892578125 3.10872395833337  2.8388671875 2.373046875  C 3.6884765625 1.63736979166663  4.6494140625 1.05794270833337  5.7216796875 0.634765625  C 6.7939453125 0.211588541666629  7.88671875 0  9 0  C 10.11328125 0  11.2060546875 0.211588541666629  12.2783203125 0.634765625  C 13.3505859375 1.05794270833337  14.3115234375 1.63736979166663  15.1611328125 2.373046875  C 16.0107421875 3.10872395833337  16.6962890625 4.033203125  17.2177734375 5.146484375  Z " fill-rule="nonzero" fill="#009900" stroke="none" transform="matrix(1 0 0 1 613 1898 )" />
  </g>
</svg>