<?xml version="1.0" encoding="utf-8"?>
<svg version="1.1" xmlns:xlink="http://www.w3.org/1999/xlink" width="30px" height="30px" xmlns="http://www.w3.org/2000/svg">
  <g transform="matrix(1 0 0 1 -811 -418 )">
    <path d="M 8.12871287128712 8.12871287128712  C 8.62376237623766 7.63366336633663  8.87128712871288 7.03630363036302  8.87128712871288 6.33663366336634  C 8.87128712871288 5.63696369636961  8.62376237623766 5.03960396039605  8.12871287128712 4.54455445544556  C 7.63366336633658 4.04950495049508  7.03630363036302 3.80198019801981  6.33663366336634 3.80198019801981  C 5.63696369636966 3.80198019801981  5.03960396039599 4.04950495049508  4.54455445544556 4.54455445544556  C 4.04950495049502 5.03960396039605  3.80198019801981 5.63696369636961  3.80198019801981 6.33663366336634  C 3.80198019801981 7.03630363036302  4.04950495049502 7.63366336633663  4.54455445544556 8.12871287128712  C 5.03960396039599 8.62376237623761  5.63696369636966 8.87128712871288  6.33663366336634 8.87128712871288  C 7.03630363036302 8.87128712871288  7.63366336633658 8.62376237623761  8.12871287128712 8.12871287128712  Z M 29.2673267326733 15.940594059406  C 29.7557755775578 16.4554455445544  30 17.0561056105611  30 17.7425742574258  C 30 18.4422442244224  29.7557755775578 19.036303630363  29.2673267326733 19.5247524752475  L 19.5445544554456 29.2673267326733  C 19.0297029702971 29.7557755775578  18.4290429042904 30  17.7425742574258 30  C 17.0429042904291 30  16.4488448844885 29.7557755775578  15.960396039604 29.2673267326733  L 1.80198019801981 15.0891089108911  C 1.30033003300332 14.6006600660066  0.87458745874585 13.93399339934  0.52475247524751 13.0891089108911  C 0.17491749174917 12.2442244224422  0 11.4719471947195  0 10.7722772277228  L 0 2.53465346534654  C 0 1.84818481848185  0.2508250825083 1.25412541254127  0.752475247524785 0.752475247524785  C 1.25412541254127 0.250825082508243  1.84818481848185 0  2.53465346534654 0  L 10.7722772277227 0  C 11.4719471947195 0  12.2442244224422 0.17491749174917  13.0891089108911 0.52475247524751  C 13.9339933993399 0.87458745874585  14.6072607260726 1.30033003300332  15.1089108910891 1.80198019801981  L 29.2673267326733 15.940594059406  Z " fill-rule="nonzero" fill="#000000" stroke="none" transform="matrix(1 0 0 1 811 418 )" />
  </g>
</svg>