<?xml version="1.0" encoding="utf-8"?>
<svg version="1.1" xmlns:xlink="http://www.w3.org/1999/xlink" width="35px" height="28px" xmlns="http://www.w3.org/2000/svg">
  <g transform="matrix(1 0 0 1 -648 -419 )">
    <path d="M 19.1573319755599 26.5247311827957  C 18.2900543109301 27.5082437275986  17.7376103190767 28  17.5 28  C 17.2623896809233 28  16.7099456890699 27.5082437275986  15.8426680244401 26.5247311827957  C 14.97539035981 25.5412186379928  14.5417515274949 24.9156511350059  14.5417515274949 24.6480286738351  C 14.5417515274949 24.2198327359617  14.9130176510523 23.8585424133811  15.655549898167 23.5641577060932  C 16.3980821452818 23.2697729988053  17.0128988458928 23.1225806451613  17.5 23.1225806451613  C 17.9871011541072 23.1225806451613  18.6019178547182 23.2697729988053  19.344450101833 23.5641577060932  C 20.0869823489477 23.8585424133811  20.4582484725051 24.2198327359617  20.4582484725051 24.6480286738351  C 20.4582484725051 24.9156511350059  20.02460964019 25.5412186379928  19.1573319755599 26.5247311827957  Z M 23.9778513238289 21.0551971326165  C 23.0808723693143 22.0587813620072  22.5254582484724 22.5605734767025  22.3116089613036 22.5605734767025  C 22.2878479293958 22.5605734767025  22.050237610319 22.3933094384707  21.5987780040733 22.0587813620072  C 21.1473183978276 21.7242532855436  20.5443822131705 21.38972520908  19.7899694501019 21.0551971326165  C 19.0355566870333 20.7206690561529  18.2722335369994 20.5534050179211  17.5 20.5534050179211  C 16.7277664630006 20.5534050179211  15.9644433129668 20.7206690561529  15.2100305498981 21.0551971326165  C 14.4556177868295 21.38972520908  13.8556517311608 21.7242532855436  13.4101323828921 22.0587813620072  C 12.9646130346232 22.3933094384707  12.724032586558 22.5605734767025  12.6883910386964 22.5605734767025  C 12.4745417515276 22.5605734767025  11.9191276306857 22.0587813620072  11.0221486761711 21.0551971326165  C 10.1251697216564 20.0516129032258  9.67668024439922 19.4293906810036  9.67668024439922 19.1885304659498  C 9.67668024439922 19.0145758661888  9.73608282416831 18.8606929510156  9.85488798370682 18.7268817204301  C 10.7815682281059 17.6965352449224  11.9458587915818 16.8869772998805  13.3477596741344 16.2982078853046  C 14.749660556687 15.7094384707288  16.133740665309 15.4150537634409  17.5 15.4150537634409  C 18.866259334691 15.4150537634409  20.250339443313 15.7094384707288  21.6522403258656 16.2982078853046  C 23.0541412084182 16.8869772998805  24.2184317718941 17.6965352449224  25.1451120162932 18.7268817204301  C 25.2639171758317 18.8606929510156  25.3233197556008 19.0145758661888  25.3233197556008 19.1885304659498  C 25.3233197556008 19.4293906810036  24.8748302783436 20.0516129032258  23.9778513238289 21.0551971326165  Z M 28.8161914460286 15.5956989247312  C 27.9251527494907 16.5992831541219  27.3786490156143 17.1010752688172  27.1766802443992 17.1010752688172  C 27.045994568907 17.1010752688172  26.9093686354379 17.0475507765831  26.7668024439919 16.9405017921147  C 25.1510522742701 15.5354838709678  23.6541072640869 14.5017921146953  22.275967413442 13.8394265232975  C 20.8978275627971 13.1770609318996  19.3058384249831 12.8458781362007  17.5 12.8458781362007  C 16.4901561439239 12.8458781362007  15.4773421588594 12.9930704898447  14.4615580448066 13.2874551971326  C 13.4457739307536 13.5818399044205  12.5606754921928 13.9364396654719  11.8062627291242 14.3512544802867  C 11.0518499660557 14.7660692951015  10.3776306856755 15.1808841099163  9.78360488798364 15.5956989247312  C 9.18957909029189 16.010513739546  8.72029871011534 16.3651135005974  8.37576374745413 16.6594982078853  C 8.03122878479292 16.9538829151733  7.84708078750839 17.1010752688172  7.82331975560078 17.1010752688172  C 7.62135098438569 17.1010752688172  7.07484725050927 16.5992831541219  6.1838085539714 15.5956989247312  C 5.29276985743377 14.5921146953405  4.84725050916495 13.9698924731183  4.84725050916495 13.7290322580645  C 4.84725050916495 13.568458781362  4.90665308893426 13.421266427718  5.02545824847243 13.2874551971326  C 6.59368635437875 11.521146953405  8.49456890699253 10.1495818399044  10.7281059063137 9.17275985663082  C 12.9616429056347 8.19593787335725  15.2189409368635 7.70752688172047  17.5 7.70752688172047  C 19.7810590631365 7.70752688172047  22.0383570943653 8.19593787335725  24.2718940936863 9.17275985663082  C 26.5054310930075 10.1495818399044  28.4063136456213 11.521146953405  29.9745417515276 13.2874551971326  C 30.0933469110657 13.421266427718  30.152749490835 13.568458781362  30.152749490835 13.7290322580645  C 30.152749490835 13.9698924731183  29.7072301425662 14.5921146953405  28.8161914460286 15.5956989247312  Z M 33.6545315682281 10.1562724014337  C 32.7575526137135 11.1598566308244  32.2080787508487 11.6616487455197  32.0061099796335 11.6616487455197  C 31.8754243041412 11.6616487455197  31.744738628649 11.6014336917563  31.6140529531568 11.4810035842294  C 29.4874405974202 9.38016726403822  27.2806347589952 7.79784946236555  24.9936354378818 6.73405017921147  C 22.7066361167686 5.67025089605738  20.2087576374746 5.13835125448031  17.5 5.13835125448031  C 14.7912423625254 5.13835125448031  12.2933638832315 5.67025089605738  10.0063645621182 6.73405017921147  C 7.71936524100477 7.79784946236555  5.51255940257977 9.38016726403822  3.38594704684317 11.4810035842294  C 3.25526137135103 11.6014336917563  3.12457569585877 11.6616487455197  2.99389002036651 11.6616487455197  C 2.7919212491513 11.6616487455197  2.24244738628647 11.1598566308244  1.34546843177191 10.1562724014337  C 0.448489477257226 9.15268817204299  0 8.53046594982078  0 8.28960573476706  C 0 8.11565113500598  0.0594025797690847 7.96176821983272  0.178207739307595 7.8279569892473  C 2.39986422267475 5.33906810035842  5.04327902240323 3.4121863799283  8.10845213849291 2.047311827957  C 11.1736252545826 0.682437275985649  14.3041412084182 0  17.5 0  C 20.6958587915818 0  23.8263747454174 0.682437275985649  26.8915478615071 2.047311827957  C 29.9567209775968 3.4121863799283  32.6001357773252 5.33906810035842  34.8217922606924 7.8279569892473  C 34.9405974202309 7.96176821983272  35 8.11565113500598  35 8.28960573476706  C 35 8.53046594982078  34.5515105227428 9.15268817204299  33.6545315682281 10.1562724014337  Z " fill-rule="nonzero" fill="#000000" stroke="none" transform="matrix(1 0 0 1 648 419 )" />
  </g>
</svg>