<?xml version="1.0" encoding="utf-8"?>
<svg version="1.1" xmlns:xlink="http://www.w3.org/1999/xlink" width="25px" height="7px" xmlns="http://www.w3.org/2000/svg">
  <g transform="matrix(1 0 0 1 -682 -612 )">
    <path d="M 6.32102272727275 0.510416666666629  C 6.65246212121212 0.850694444444457  6.81818181818187 1.26388888888891  6.81818181818187 1.75  L 6.81818181818187 5.25  C 6.81818181818187 5.73611111111109  6.65246212121212 6.14930555555554  6.32102272727275 6.48958333333337  C 5.98958333333337 6.82986111111109  5.58712121212125 7  5.11363636363637 7  L 1.7045454545455 7  C 1.23106060606062 7  0.828598484848499 6.82986111111109  0.497159090909122 6.48958333333337  C 0.165719696969745 6.14930555555554  0 5.73611111111109  0 5.25  L 0 1.75  C 0 1.26388888888891  0.165719696969745 0.850694444444457  0.497159090909122 0.510416666666629  C 0.828598484848499 0.170138888888914  1.23106060606062 0  1.7045454545455 0  L 5.11363636363637 0  C 5.58712121212125 0  5.98958333333337 0.170138888888914  6.32102272727275 0.510416666666629  Z M 15.4119318181819 0.510416666666629  C 15.7433712121212 0.850694444444457  15.9090909090909 1.26388888888891  15.9090909090909 1.75  L 15.9090909090909 5.25  C 15.9090909090909 5.73611111111109  15.7433712121212 6.14930555555554  15.4119318181819 6.48958333333337  C 15.0804924242424 6.82986111111109  14.6780303030303 7  14.2045454545455 7  L 10.7954545454545 7  C 10.3219696969697 7  9.91950757575762 6.82986111111109  9.58806818181813 6.48958333333337  C 9.25662878787875 6.14930555555554  9.09090909090912 5.73611111111109  9.09090909090912 5.25  L 9.09090909090912 1.75  C 9.09090909090912 1.26388888888891  9.25662878787875 0.850694444444457  9.58806818181813 0.510416666666629  C 9.91950757575762 0.170138888888914  10.3219696969697 0  10.7954545454545 0  L 14.2045454545455 0  C 14.6780303030303 0  15.0804924242424 0.170138888888914  15.4119318181819 0.510416666666629  Z M 24.5028409090909 0.510416666666629  C 24.8342803030303 0.850694444444457  25 1.26388888888891  25 1.75  L 25 5.25  C 25 5.73611111111109  24.8342803030303 6.14930555555554  24.5028409090909 6.48958333333337  C 24.1714015151515 6.82986111111109  23.7689393939394 7  23.2954545454545 7  L 19.8863636363636 7  C 19.4128787878788 7  19.0104166666666 6.82986111111109  18.6789772727273 6.48958333333337  C 18.3475378787879 6.14930555555554  18.1818181818181 5.73611111111109  18.1818181818181 5.25  L 18.1818181818181 1.75  C 18.1818181818181 1.26388888888891  18.3475378787879 0.850694444444457  18.6789772727273 0.510416666666629  C 19.0104166666666 0.170138888888914  19.4128787878788 0  19.8863636363636 0  L 23.2954545454545 0  C 23.7689393939394 0  24.1714015151515 0.170138888888914  24.5028409090909 0.510416666666629  Z " fill-rule="nonzero" fill="#000000" stroke="none" transform="matrix(1 0 0 1 682 612 )" />
  </g>
</svg>