<?xml version="1.0" encoding="utf-8"?>
<svg version="1.1" xmlns:xlink="http://www.w3.org/1999/xlink" width="45px" height="45px" xmlns="http://www.w3.org/2000/svg">
  <g transform="matrix(1 0 0 1 -1146 -914 )">
    <path d="M 12 30  L 12 41  L 33 41  L 33 30  L 12 30  Z M 37 29.0625000000001  L 37 41.2499999999999  L 41 41.2499999999999  L 41 15.0000000000001  C 41.25 14.7265625  41.1523437500002 14.3505859375  40.95703125 13.8720703124999  C 40.7617187499998 13.3935546875  40.56640625 13.056640625  40.37109375 12.8613281249999  L 32.138671875 4.62890625000011  C 31.943359375 4.43359375  31.611328125 4.23828125  31.142578125 4.04296875  C 30.673828125 3.84765625  30.29296875 3.75000000000011  30 3.75000000000011  L 30 15.9374999999999  C 30 16.71875  29.7265625000002 17.3828125  29.1796875 17.9296875  C 28.6328124999998 18.4765625  27.9687500000002 18.7499999999999  27.1875 19  L 10.3125 19  C 9.53125 18.7499999999999  8.8671875 18.4765625  8.3203125 17.9296875  C 7.7734375 17.3828125  7.5 16.71875  8 15.9374999999999  L 8 3.75000000000011  L 4 3.75000000000011  L 4 41.2499999999999  L 8 41.2499999999999  L 8 29.0625000000001  C 7.5 28.28125  7.7734375 27.6171875  8.3203125 27.0703125  C 8.8671875 26.5234375  9.53125 26.2500000000001  10.3125 26  L 34.6875 26  C 35.46875 26.2500000000001  36.1328125 26.5234375  36.6796875 27.0703125  C 37.2265625 27.6171875  37.5 28.28125  37 29.0625000000001  Z M 25.9716796875 14.7216796875  C 26.1572265625 14.5361328125  26.25 14.31640625  26.25 14.0625  L 26.25 4.68749999999989  C 26.25 4.43359375  26.1572265625 4.2138671875  25.9716796875 4.02832031249989  C 25.7861328125 3.8427734375  25.56640625 3.75000000000011  25.3125 3.75000000000011  L 19.6875 3.75000000000011  C 19.43359375 3.75000000000011  19.2138671875 3.8427734375  19.0283203125 4.02832031249989  C 18.8427734375 4.2138671875  18.75 4.43359375  18.75 4.68749999999989  L 18.75 14.0625  C 18.75 14.31640625  18.8427734375 14.5361328125  19.0283203125 14.7216796875  C 19.2138671875 14.9072265625  19.43359375 15.0000000000001  19.6875 15.0000000000001  L 25.3125 15.0000000000001  C 25.56640625 15.0000000000001  25.7861328125 14.9072265625  25.9716796875 14.7216796875  Z M 44.4140625 12.4218749999999  C 44.8046874999998 13.359375  45 14.21875  45 15.0000000000001  L 45 42.1875  C 45 42.96875  44.7265625 43.6328125  44.1796875 44.1796875000001  C 43.6328125 44.7265625  42.96875 45  42.1875 45  L 2.8125 45  C 2.03125 45  1.3671875 44.7265625  0.8203125 44.1796875000001  C 0.2734375 43.6328125  0 42.96875  0 42.1875  L 0 2.8125  C 0 2.03125  0.2734375 1.3671875  0.8203125 0.820312499999886  C 1.3671875 0.2734375  2.03125 0  2.8125 0  L 30 0  C 30.7812500000002 0  31.640625 0.1953125  32.578125 0.585937500000114  C 33.515625 0.9765625  34.2578124999998 1.44531249999989  34.8046875 1.99218750000011  L 43.0078125 10.1953125  C 43.5546875 10.7421875  44.0234375 11.4843750000001  44.4140625 12.4218749999999  Z " fill-rule="nonzero" fill="#009900" stroke="none" transform="matrix(1 0 0 1 1146 914 )" />
  </g>
</svg>