<?xml version="1.0" encoding="utf-8"?>
<svg version="1.1" xmlns:xlink="http://www.w3.org/1999/xlink" width="21px" height="35px" xmlns="http://www.w3.org/2000/svg">
  <g transform="matrix(1 0 0 1 -507 -607 )">
    <path d="M 11.99365234375 24.1015625  C 12.4562174479167 24.7526041666666  12.6875 25.46875  12.6875 26.25  C 12.6875 27.2916666666666  12.3174479166667 28.1770833333334  11.57734375 28.90625  C 10.8372395833333 29.6354166666666  9.93854166666665 30  8.88125000000002 30  C 7.82395833333334 30  6.92526041666667 29.6354166666666  6.18515624999998 28.90625  C 5.44505208333334 28.1770833333334  5.07499999999999 27.2916666666666  5.07499999999999 26.25  C 5.07499999999999 25.46875  5.30628255208336 24.7526041666666  5.76884765624999 24.1015625  C 6.23141276041668 23.4505208333334  6.84596354166666 22.98828125  8 22.71484375  L 8 10  L 10 10  L 10 22.71484375  C 10.9165364583333 22.98828125  11.5310872395833 23.4505208333334  11.99365234375 24.1015625  Z M 13.371435546875 30.673828125  C 14.6071451822917 29.4563802083334  15.225 27.9817708333334  15.225 26.25  C 15.225 25.2473958333334  15.0003255208333 24.3098958333334  14.5509765625 23.4375  C 14.1016276041667 22.5651041666666  13.48046875 21.8359375  12.6875 21.25  L 12.6875 6.25  C 12.6875 5.20833333333337  12.3174479166667 4.32291666666663  11.57734375 3.59375  C 10.8372395833333 2.86458333333337  9.93854166666665 2.5  8.88125000000002 2.5  C 7.82395833333334 2.5  6.92526041666667 2.86458333333337  6.18515624999998 3.59375  C 5.44505208333334 4.32291666666663  5.07499999999999 5.20833333333337  5 6.25  L 5 21.25  C 4.28203124999999 21.8359375  3.66087239583334 22.5651041666666  3.21152343749998 23.4375  C 2.76217447916667 24.3098958333334  2.53750000000002 25.2473958333334  2.53750000000002 26.25  C 2.53750000000002 27.9817708333334  3.15535481770831 29.4563802083334  4.39106445312501 30.673828125  C 5.62677408854165 31.8912760416666  7.12350260416668 32.5  8.88125000000002 32.5  C 10.6389973958333 32.5  12.1357259114583 31.8912760416666  13.371435546875 30.673828125  Z M 15 20.13671875  C 16.9166666666667 21.8424479166666  17.7625 23.8802083333334  17.7625 26.25  C 17.7625 28.6588541666666  16.8935384114583 30.7194010416666  15.155615234375 32.431640625  C 13.4176920572917 34.1438802083334  11.3262369791666 35  8.88125000000002 35  C 6.43626302083334 35  4.34480794270831 34.1438802083334  2.60688476562501 32.431640625  C 0.868961588541652 30.7194010416666  0 28.6588541666666  0 26.25  C 0 23.8802083333334  0.84583333333336 21.8424479166666  2.53750000000002 20.13671875  L 2.53750000000002 6.25  C 2.53750000000002 4.51822916666663  3.15535481770831 3.04361979166663  4.39106445312501 1.826171875  C 5.62677408854165 0.608723958333371  7.12350260416668 0  8.88125000000002 0  C 10.6389973958333 0  12.1357259114583 0.608723958333371  13.371435546875 1.826171875  C 14.6071451822917 3.04361979166663  15.225 4.51822916666663  15 6.25  L 15 20.13671875  Z M 16.49375 15  L 20.3 15  L 20.3 17.5  L 16.49375 17.5  L 16.49375 15  Z M 16.49375 10  L 20.3 10  L 20.3 12.5  L 16.49375 12.5  L 16.49375 10  Z M 16.49375 5  L 20.3 5  L 20.3 7.5  L 16.49375 7.5  L 16.49375 5  Z " fill-rule="nonzero" fill="#000000" stroke="none" transform="matrix(1 0 0 1 507 607 )" />
  </g>
</svg>