<?xml version="1.0" encoding="utf-8"?>
<svg version="1.1" xmlns:xlink="http://www.w3.org/1999/xlink" width="37px" height="25px" xmlns="http://www.w3.org/2000/svg">
  <g transform="matrix(1 0 0 1 -499 -557 )">
    <path d="M 20.2520366598778 23.6827956989248  C 19.3352002715546 24.5609318996416  18.7511880515954 25  18.5 25  C 18.2488119484046 25  17.6647997284454 24.5609318996416  16.7479633401222 23.6827956989248  C 15.831126951799 22.8046594982079  15.3727087576375 22.2461170848268  15.3727087576375 22.0071684587814  C 15.3727087576375 21.6248506571087  15.7651900882552 21.3022700119474  16.5501527494908 21.0394265232975  C 17.3351154107264 20.7765830346475  17.9850644942294 20.6451612903226  18.5 20.6451612903226  C 19.0149355057706 20.6451612903226  19.6648845892736 20.7765830346475  20.4498472505092 21.0394265232975  C 21.2348099117447 21.3022700119474  21.6272912423625 21.6248506571087  21.6272912423625 22.0071684587814  C 21.6272912423625 22.2461170848268  21.168873048201 22.8046594982079  20.2520366598778 23.6827956989248  Z M 25.3480142566192 18.7992831541219  C 24.3997793618466 19.6953405017921  23.8126272912424 20.1433691756272  23.5865580448065 20.1433691756272  C 23.561439239647 20.1433691756272  23.3102511880516 19.9940262843488  22.8329938900204 19.6953405017921  C 22.3557365919892 19.3966547192354  21.7183469110659 19.0979689366786  20.9208248472505 18.7992831541219  C 20.1233027834352 18.5005973715651  19.316361167685 18.3512544802867  18.5 18.3512544802867  C 17.683638832315 18.3512544802867  16.8766972165648 18.5005973715651  16.0791751527495 18.7992831541219  C 15.2816530889341 19.0979689366786  14.6474032586558 19.3966547192354  14.1764256619144 19.6953405017921  C 13.7054480651731 19.9940262843488  13.4511201629328 20.1433691756272  13.4134419551935 20.1433691756272  C 13.1873727087576 20.1433691756272  12.6002206381534 19.6953405017921  11.6519857433808 18.7992831541219  C 10.7037508486083 17.9032258064516  10.229633401222 17.347670250896  10.229633401222 17.1326164874552  C 10.229633401222 16.9772998805257  10.2924304141208 16.8399044205496  10.4180244399186 16.7204301075269  C 11.3976578411405 15.8004778972521  12.6284792939579 15.0776583034648  14.1104887983707 14.5519713261649  C 15.5924983027834 14.026284348865  17.0556687033265 13.763440860215  18.5 13.763440860215  C 19.9443312966735 13.763440860215  21.4075016972166 14.026284348865  22.8895112016293 14.5519713261649  C 24.3715207060421 15.0776583034648  25.6023421588595 15.8004778972521  26.5819755600814 16.7204301075269  C 26.7075695858792 16.8399044205496  26.770366598778 16.9772998805257  26.770366598778 17.1326164874552  C 26.770366598778 17.347670250896  26.2962491513917 17.9032258064516  25.3480142566192 18.7992831541219  Z M 30.4628309572302 13.9247311827957  C 29.5208757637475 14.820788530466  28.9431432450781 15.2688172043011  28.729633401222 15.2688172043011  C 28.5914799728445 15.2688172043011  28.4470468431772 15.221027479092  28.29633401222 15.1254480286739  C 26.5882552613713 13.8709677419355  25.0057705363204 12.9480286738351  23.5488798370672 12.3566308243727  C 22.091989137814 11.7652329749104  20.4090291921249 11.4695340501792  18.5 11.4695340501792  C 17.4324507807196 11.4695340501792  16.3617617107943 11.6009557945042  15.287932790224 11.8637992831541  C 14.2141038696537 12.1266427718041  13.278428377461 12.4432497013142  12.4809063136456 12.8136200716846  C 11.6833842498303 13.183990442055  10.9706381534284 13.5543608124253  10.3426680244399 13.9247311827957  C 9.71469789545148 14.2951015531661  9.21860149355058 14.6117084826762  8.8543788187373 14.8745519713261  C 8.49015614392397 15.1373954599761  8.29548540393756 15.2688172043011  8.27036659877803 15.2688172043011  C 8.05685675492191 15.2688172043011  7.47912423625252 14.820788530466  6.53716904276985 13.9247311827957  C 5.59521384928718 13.0286738351255  5.12423625254587 12.4731182795699  5.12423625254587 12.258064516129  C 5.12423625254587 12.1146953405018  5.18703326544465 11.9832735961768  5.31262729124239 11.8637992831541  C 6.97046843177191 10.2867383512545  8.97997284453493 9.06212664277177  11.3411405295316 8.18996415770607  C 13.7023082145282 7.31780167264037  16.0885947046843 6.88172043010752  18.5 6.88172043010752  C 20.9114052953157 6.88172043010752  23.2976917854718 7.31780167264037  25.6588594704684 8.18996415770607  C 28.0200271554651 9.06212664277177  30.0295315682281 10.2867383512545  31.6873727087576 11.8637992831541  C 31.8129667345553 11.9832735961768  31.8757637474542 12.1146953405018  31.8757637474541 12.258064516129  C 31.8757637474542 12.4731182795699  31.4047861507128 13.0286738351255  30.4628309572302 13.9247311827957  Z M 35.5776476578412 9.06810035842295  C 34.6294127630686 9.96415770609326  34.0485403937543 10.4121863799284  33.8350305498981 10.4121863799284  C 33.6968771215207 10.4121863799284  33.5587236931432 10.3584229390681  33.4205702647658 10.2508960573476  C 31.1724372029871 8.37514934289129  28.839528173795 6.96236559139788  26.4218431771894 6.01254480286741  C 24.0041581805838 5.06272401433694  21.3635437881874 4.58781362007164  18.5 4.58781362007164  C 15.6364562118126 4.58781362007164  12.9958418194162 5.06272401433694  10.5781568228106 6.01254480286741  C 8.16047182620503 6.96236559139788  5.82756279701289 8.37514934289129  3.57942973523421 10.2508960573476  C 3.44127630685676 10.3584229390681  3.30312287847931 10.4121863799284  3.16496945010186 10.4121863799284  C 2.95145960624575 10.4121863799284  2.37058723693144 9.96415770609326  1.42235234215883 9.06810035842295  C 0.474117447386277 8.17204301075265  0 7.6164874551971  0 7.40143369175621  C 0 7.24611708482678  0.0627970128988409 7.10872162485066  0.188391038696523 6.98924731182797  C 2.53699932111334 4.7670250896058  5.33146639511199 3.04659498207889  8.57179226069246 1.82795698924735  C 11.8121181262729 0.609318996415823  15.1215207060421 0  18.5 0  C 21.8784792939579 0  25.1878818737271 0.609318996415823  28.4282077393075 1.82795698924735  C 31.668533604888 3.04659498207889  34.4630006788867 4.7670250896058  36.8116089613035 6.98924731182797  C 36.9372029871012 7.10872162485066  37 7.24611708482678  37 7.40143369175621  C 37 7.6164874551971  36.5258825526137 8.17204301075265  35.5776476578412 9.06810035842295  Z " fill-rule="nonzero" fill="#000000" stroke="none" transform="matrix(1 0 0 1 499 557 )" />
  </g>
</svg>