<?xml version="1.0" encoding="utf-8"?>
<svg version="1.1" xmlns:xlink="http://www.w3.org/1999/xlink" width="34px" height="27px" xmlns="http://www.w3.org/2000/svg">
  <g transform="matrix(1 0 0 1 -423 -415 )">
    <path d="M 6.57421875 18.9172585227273  C 7.04854910714283 18.4378551136364  7.28571428571428 17.8593749999999  7.28571428571428 17.1818181818182  C 7.28571428571428 16.5042613636364  7.04854910714283 15.92578125  6.57421875 15.4463778409091  C 6.09988839285717 14.9669744318182  5.52752976190476 14.7272727272727  4.85714285714283 14.7272727272727  C 4.18675595238091 14.7272727272727  3.61439732142856 14.9669744318182  3.14006696428572 15.4463778409091  C 2.66573660714283 15.92578125  2.42857142857144 16.5042613636364  2.42857142857144 17.1818181818182  C 2.42857142857144 17.8593749999999  2.66573660714283 18.4378551136364  3.14006696428572 18.9172585227273  C 3.61439732142856 19.3966619318182  4.18675595238091 19.6363636363636  4.85714285714283 19.6363636363636  C 5.52752976190476 19.6363636363636  6.09988839285717 19.3966619318182  6.57421875 18.9172585227273  Z M 10.2170758928572 10.3263494318182  C 10.69140625 9.84694602272731  10.9285714285714 9.26846590909099  10.9285714285714 8.59090909090912  C 10.9285714285714 7.91335227272725  10.69140625 7.33487215909088  10.2170758928572 6.85546875  C 9.74274553571428 6.37606534090912  9.17038690476193 6.13636363636368  8.5 6.13636363636368  C 7.82961309523807 6.13636363636368  7.25725446428572 6.37606534090912  6.78292410714283 6.85546875  C 6.30859375 7.33487215909088  6.07142857142856 7.91335227272725  6.07142857142856 8.59090909090912  C 6.07142857142856 9.26846590909099  6.30859375 9.84694602272731  6.78292410714283 10.3263494318182  C 7.25725446428572 10.8057528409091  7.82961309523807 11.0454545454546  8.5 11.0454545454546  C 9.17038690476193 11.0454545454546  9.74274553571428 10.8057528409091  10.2170758928572 10.3263494318182  Z M 20.4151785714286 19.5596590909091  C 20.1369047619048 18.8309659090909  19.6815476190476 18.2492897727273  19.0491071428572 17.8146306818182  L 20.9654017857143 10.4893465909091  C 21.0412946428572 10.1569602272727  20.9938616071428 9.84694602272731  20.8231026785714 9.55930397727269  C 20.65234375 9.27166193181807  20.4088541666667 9.08309659090901  20.0926339285714 8.99360795454544  C 19.7764136904761 8.90411931818176  19.4728422619048 8.94566761363632  19.1819196428572 9.11825284090912  C 18.8909970238096 9.29083806818176  18.7012648809524 9.54332386363637  18.6127232142857 9.87571022727269  L 16.6964285714286 17.2009943181818  C 15.9375 17.2649147727273  15.2607886904761 17.5429687499999  14.6662946428572 18.03515625  C 14.0718005952381 18.5273437500001  13.6733630952381 19.1569602272727  13.4709821428572 19.9240056818182  C 13.218005952381 20.9083806818181  13.344494047619 21.8416193181818  13.8504464285714 22.7237215909091  C 14.3563988095239 23.6058238636364  15.0963541666667 24.1747159090909  16.0703125 24.4303977272727  C 17.0442708333333 24.6860795454546  17.9676339285714 24.5582386363636  18.8404017857143 24.046875  C 19.7131696428572 23.5355113636364  20.2760416666667 22.7876420454546  20.5290178571428 21.8032670454546  C 20.7313988095239 21.0362215909091  20.6934523809524 20.2883522727273  20.4151785714286 19.5596590909091  Z M 30.8599330357143 18.9172585227273  C 31.3342633928572 18.4378551136364  31.5714285714286 17.8593749999999  31.5714285714286 17.1818181818182  C 31.5714285714286 16.5042613636364  31.3342633928572 15.92578125  30.8599330357143 15.4463778409091  C 30.3856026785714 14.9669744318182  29.8132440476191 14.7272727272727  29.1428571428572 14.7272727272727  C 28.4724702380952 14.7272727272727  27.9001116071428 14.9669744318182  27.42578125 15.4463778409091  C 26.9514508928572 15.92578125  26.7142857142857 16.5042613636364  26.7142857142857 17.1818181818182  C 26.7142857142857 17.8593749999999  26.9514508928572 18.4378551136364  27.42578125 18.9172585227273  C 27.9001116071428 19.3966619318182  28.4724702380952 19.6363636363636  29.1428571428572 19.6363636363636  C 29.8132440476191 19.6363636363636  30.3856026785714 19.3966619318182  30.8599330357143 18.9172585227273  Z M 18.7170758928572 6.64453125  C 19.19140625 6.16512784090912  19.4285714285714 5.58664772727275  19.4285714285714 4.90909090909088  C 19.4285714285714 4.23153409090901  19.19140625 3.65305397727269  18.7170758928572 3.17365056818176  C 18.2427455357143 2.69424715909088  17.6703869047619 2.45454545454544  17 2.45454545454544  C 16.3296130952381 2.45454545454544  15.7572544642857 2.69424715909088  15.2829241071428 3.17365056818176  C 14.80859375 3.65305397727269  14.5714285714286 4.23153409090901  14.5714285714286 4.90909090909088  C 14.5714285714286 5.58664772727275  14.80859375 6.16512784090912  15.2829241071428 6.64453125  C 15.7572544642857 7.12393465909088  16.3296130952381 7.36363636363632  17 7.36363636363632  C 17.6703869047619 7.36363636363632  18.2427455357143 7.12393465909088  18.7170758928572 6.64453125  Z M 27.2170758928572 10.3263494318182  C 27.69140625 9.84694602272731  27.9285714285714 9.26846590909099  27.9285714285714 8.59090909090912  C 27.9285714285714 7.91335227272725  27.69140625 7.33487215909088  27.2170758928572 6.85546875  C 26.7427455357143 6.37606534090912  26.1703869047619 6.13636363636368  25.5 6.13636363636368  C 24.8296130952381 6.13636363636368  24.2572544642857 6.37606534090912  23.7829241071428 6.85546875  C 23.30859375 7.33487215909088  23.0714285714286 7.91335227272725  23.0714285714286 8.59090909090912  C 23.0714285714286 9.26846590909099  23.30859375 9.84694602272731  23.7829241071428 10.3263494318182  C 24.2572544642857 10.8057528409091  24.8296130952381 11.0454545454546  25.5 11.0454545454546  C 26.1703869047619 11.0454545454546  26.7427455357143 10.8057528409091  27.2170758928572 10.3263494318182  Z M 32.6529017857143 10.5085227272727  C 33.5509672619048 12.6306818181819  34 14.8551136363636  34 17.1818181818182  C 34 20.5184659090909  33.1082589285714 23.6058238636364  31.3247767857143 26.4438920454546  C 31.0844494047619 26.8146306818181  30.7429315476191 27  30.3002232142857 27  L 3.69977678571428 27  C 3.25706845238091 27  2.91555059523807 26.8146306818181  2.67522321428572 26.4438920454546  C 0.891741071428555 23.6186079545454  0 20.5312500000001  0 17.1818181818182  C 0 14.8551136363636  0.449032738095241 12.6306818181819  1.34709821428572 10.5085227272727  C 2.24516369047615 8.38636363636363  3.453125 6.55823863636368  4.97098214285717 5.02414772727269  C 6.48883928571428 3.49005681818176  8.29761904761909 2.26917613636363  10.3973214285714 1.36150568181824  C 12.4970238095239 0.453835227272691  14.6979166666667 0  17 0  C 19.3020833333333 0  21.5029761904761 0.453835227272691  23.6026785714286 1.36150568181824  C 25.7023809523809 2.26917613636363  27.5111607142857 3.49005681818176  29.0290178571428 5.02414772727269  C 30.546875 6.55823863636368  31.7548363095239 8.38636363636363  32.6529017857143 10.5085227272727  Z " fill-rule="nonzero" fill="#000000" stroke="none" transform="matrix(1 0 0 1 423 415 )" />
  </g>
</svg>