<?xml version="1.0" encoding="utf-8"?>
<svg version="1.1" xmlns:xlink="http://www.w3.org/1999/xlink" width="53px" height="40px" xmlns="http://www.w3.org/2000/svg">
  <g transform="matrix(1 0 0 1 -442 -506 )">
    <path d="M 10.248046875 28.0255681818182  C 10.9874441964286 27.3153409090909  11.3571428571428 26.4583333333333  11.3571428571428 25.4545454545455  C 11.3571428571428 24.4507575757576  10.9874441964286 23.59375  10.248046875 22.8835227272727  C 9.50864955357144 22.1732954545455  8.61644345238091 21.8181818181818  7.57142857142856 21.8181818181818  C 6.52641369047615 21.8181818181818  5.63420758928572 22.1732954545455  4.89481026785722 22.8835227272727  C 4.15541294642856 23.59375  3.78571428571428 24.4507575757576  3.78571428571428 25.4545454545455  C 3.78571428571428 26.4583333333333  4.15541294642856 27.3153409090909  4.89481026785722 28.0255681818182  C 5.63420758928572 28.7357954545455  6.52641369047615 29.0909090909091  7.57142857142856 29.0909090909091  C 8.61644345238091 29.0909090909091  9.50864955357144 28.7357954545455  10.248046875 28.0255681818182  Z M 15.9266183035714 15.2982954545455  C 16.666015625 14.5880681818182  17.0357142857143 13.7310606060607  17.0357142857143 12.7272727272727  C 17.0357142857143 11.7234848484848  16.666015625 10.8664772727273  15.9266183035714 10.15625  C 15.1872209821428 9.44602272727275  14.2950148809524 9.09090909090924  13.25 9.09090909090924  C 12.2049851190476 9.09090909090924  11.3127790178572 9.44602272727275  10.5733816964286 10.15625  C 9.833984375 10.8664772727273  9.46428571428572 11.7234848484848  9.46428571428572 12.7272727272727  C 9.46428571428572 13.7310606060607  9.833984375 14.5880681818182  10.5733816964286 15.2982954545455  C 11.3127790178572 16.0085227272727  12.2049851190476 16.3636363636364  13.25 16.3636363636364  C 14.2950148809524 16.3636363636364  15.1872209821428 16.0085227272727  15.9266183035714 15.2982954545455  Z M 31.8236607142857 28.9772727272727  C 31.389880952381 27.8977272727273  30.6800595238096 27.0359848484848  29.6941964285714 26.3920454545455  L 32.6813616071428 15.5397727272727  C 32.7996651785714 15.0473484848485  32.7257254464286 14.5880681818182  32.4595424107143 14.1619318181818  C 32.193359375 13.7357954545453  31.8138020833334 13.4564393939393  31.3208705357143 13.3238636363636  C 30.8279389880953 13.1912878787878  30.354724702381 13.2528409090908  29.9012276785714 13.5085227272727  C 29.4477306547619 13.7642045454545  29.1519717261904 14.1382575757576  29.0139508928572 14.6306818181818  L 26.0267857142857 25.4829545454545  C 24.84375 25.5776515151515  23.7888764880953 25.9895833333333  22.8621651785714 26.71875  C 21.9354538690476 27.4479166666667  21.3143601190476 28.3806818181818  20.9988839285714 29.5170454545455  C 20.6045386904761 30.9753787878788  20.8017113095239 32.3579545454545  21.5904017857143 33.6647727272727  C 22.3790922619047 34.9715909090909  23.5325520833334 35.814393939394  25.05078125 36.1931818181818  C 26.5690104166666 36.5719696969697  28.0083705357143 36.3825757575758  29.3688616071428 35.625  C 30.7293526785714 34.8674242424242  31.6067708333334 33.7594696969697  32.0011160714286 32.3011363636364  C 32.3165922619047 31.1647727272727  32.2574404761904 30.0568181818182  31.8236607142857 28.9772727272727  Z M 48.1051897321428 28.0255681818182  C 48.8445870535714 27.3153409090909  49.2142857142857 26.4583333333333  49.2142857142857 25.4545454545455  C 49.2142857142857 24.4507575757576  48.8445870535714 23.59375  48.1051897321428 22.8835227272727  C 47.3657924107143 22.1732954545455  46.4735863095239 21.8181818181818  45.4285714285714 21.8181818181818  C 44.383556547619 21.8181818181818  43.4913504464286 22.1732954545455  42.751953125 22.8835227272727  C 42.0125558035714 23.59375  41.6428571428572 24.4507575757576  41.6428571428572 25.4545454545455  C 41.6428571428572 26.4583333333333  42.0125558035714 27.3153409090909  42.751953125 28.0255681818182  C 43.4913504464286 28.7357954545455  44.383556547619 29.0909090909091  45.4285714285714 29.0909090909091  C 46.4735863095239 29.0909090909091  47.3657924107143 28.7357954545455  48.1051897321428 28.0255681818182  Z M 29.1766183035714 9.84375  C 29.916015625 9.13352272727275  30.2857142857143 8.27651515151524  30.2857142857143 7.27272727272725  C 30.2857142857143 6.26893939393926  29.916015625 5.41193181818176  29.1766183035714 4.7017045454545  C 28.4372209821428 3.99147727272725  27.5450148809524 3.63636363636363  26.5 3.63636363636363  C 25.4549851190476 3.63636363636363  24.5627790178572 3.99147727272725  23.8233816964286 4.7017045454545  C 23.083984375 5.41193181818176  22.7142857142857 6.26893939393926  22.7142857142857 7.27272727272725  C 22.7142857142857 8.27651515151524  23.083984375 9.13352272727275  23.8233816964286 9.84375  C 24.5627790178572 10.5539772727273  25.4549851190476 10.9090909090908  26.5 10.9090909090908  C 27.5450148809524 10.9090909090908  28.4372209821428 10.5539772727273  29.1766183035714 9.84375  Z M 42.4266183035714 15.2982954545455  C 43.166015625 14.5880681818182  43.5357142857143 13.7310606060607  43.5357142857143 12.7272727272727  C 43.5357142857143 11.7234848484848  43.166015625 10.8664772727273  42.4266183035714 10.15625  C 41.6872209821428 9.44602272727275  40.7950148809524 9.09090909090924  39.75 9.09090909090924  C 38.7049851190476 9.09090909090924  37.8127790178572 9.44602272727275  37.0733816964286 10.15625  C 36.333984375 10.8664772727273  35.9642857142857 11.7234848484848  35.9642857142857 12.7272727272727  C 35.9642857142857 13.7310606060607  36.333984375 14.5880681818182  37.0733816964286 15.2982954545455  C 37.8127790178572 16.0085227272727  38.7049851190476 16.3636363636364  39.75 16.3636363636364  C 40.7950148809524 16.3636363636364  41.6872209821428 16.0085227272727  42.4266183035714 15.2982954545455  Z M 50.9001116071428 15.5681818181818  C 52.300037202381 18.7121212121212  53 22.0075757575758  53 25.4545454545455  C 53 30.3977272727273  51.6099330357143 34.9715909090909  48.8297991071428 39.1761363636364  C 48.4551711309524 39.7253787878789  47.9228050595239 40  47.2327008928572 40  L 5.76729910714278 40  C 5.07719494047615 40  4.54482886904765 39.7253787878789  4.17020089285717 39.1761363636364  C 1.39006696428572 34.9905303030303  0 30.4166666666667  0 25.4545454545455  C 0 22.0075757575758  0.699962797619094 18.7121212121212  2.09988839285722 15.5681818181818  C 3.49981398809524 12.4242424242424  5.3828125 9.71590909090924  7.74888392857144 7.44318181818176  C 10.1149553571428 5.1704545454545  12.9345238095239 3.36174242424238  16.2075892857143 2.0170454545455  C 19.4806547619047 0.672348484848499  22.9114583333334 0  26.5 0  C 30.0885416666666 0  33.5193452380953 0.672348484848499  36.7924107142857 2.0170454545455  C 40.0654761904761 3.36174242424238  42.8850446428572 5.1704545454545  45.2511160714286 7.44318181818176  C 47.6171875 9.71590909090924  49.5001860119047 12.4242424242424  50.9001116071428 15.5681818181818  Z " fill-rule="nonzero" fill="#000000" stroke="none" transform="matrix(1 0 0 1 442 506 )" />
  </g>
</svg>