<?xml version="1.0" encoding="utf-8"?>
<svg version="1.1" xmlns:xlink="http://www.w3.org/1999/xlink" width="30px" height="25px" xmlns="http://www.w3.org/2000/svg">
  <g transform="matrix(1 0 0 1 -627 -419 )">
    <path d="M 8 8.92857142857144  C 8 10.2213541666666  8.421875 11.4118303571429  9.265625 12.5  C 7.578125 12.5465029761905  6.19791666666663 13.1417410714286  5.125 14.2857142857142  L 3.03125 14.2857142857142  C 2.17708333333337 14.2857142857142  1.45833333333337 14.0973772321429  0.875 13.720703125  C 0.291666666666629 13.3440290178571  0 12.79296875  0 12.0675223214286  C 0 8.78441220238091  0.645833333333371 7.14285714285711  1.9375 7.14285714285711  C 2 7.14285714285711  2.2265625 7.24051339285711  2.6171875 7.43582589285711  C 3.0078125 7.63113839285711  3.515625 7.82877604166663  4.140625 8.02873883928578  C 4.765625 8.22870163690482  5.38541666666663 8.32868303571422  6 8.32868303571422  C 6.69791666666663 8.32868303571422  7.390625 8.2217261904762  8.078125 8.0078125  C 8.02604166666663 8.35193452380952  8 8.65885416666663  8 8.92857142857144  Z M 25.9453125 19.9428013392858  C 25.9817708333334 20.4124813988095  26 20.8937872023809  26 21.38671875  C 26 22.5027901785714  25.6197916666666 23.3840215773809  24.859375 24.0304129464286  C 24.0989583333334 24.6768043154762  23.0885416666666 25  21.828125 25  L 8.171875 25  C 6.91145833333337 25  5.90104166666663 24.6768043154762  5.140625 24.0304129464286  C 4.38020833333337 23.3840215773809  4 22.5027901785714  4 21.38671875  C 4 20.8937872023809  4.01822916666663 20.4124813988095  4.0546875 19.9428013392858  C 4.09114583333337 19.4731212797619  4.1640625 18.9662388392858  4.2734375 18.4221540178571  C 4.3828125 17.8780691964286  4.52083333333337 17.3735119047619  4.6875 16.9084821428571  C 4.85416666666663 16.4434523809524  5.078125 15.9900483630952  5.359375 15.5482700892858  C 5.640625 15.1064918154762  5.96354166666663 14.7298177083334  6.328125 14.4182477678571  C 6.69270833333337 14.1066778273809  7.13802083333337 13.8578869047619  7.6640625 13.671875  C 8.19010416666663 13.4858630952381  8.77083333333337 13.3928571428571  9.40625 13.3928571428571  C 9.51041666666663 13.3928571428571  9.734375 13.4928385416666  10.078125 13.6928013392858  C 10.421875 13.8927641369048  10.8020833333334 14.1159784226191  11.21875 14.3624441964286  C 11.6354166666666 14.6089099702381  12.1927083333334 14.8321242559524  12.890625 15.0320870535714  C 13.5885416666666 15.2320498511905  14.2916666666666 15.33203125  15 15.33203125  C 15.7083333333334 15.33203125  16.4114583333334 15.2320498511905  17.109375 15.0320870535714  C 17.8072916666666 14.8321242559524  18.3645833333334 14.6089099702381  18.78125 14.3624441964286  C 19.1979166666666 14.1159784226191  19.578125 13.8927641369048  19.921875 13.6928013392858  C 20.265625 13.4928385416666  20.4895833333334 13.3928571428571  20.59375 13.3928571428571  C 21.2291666666666 13.3928571428571  21.8098958333334 13.4858630952381  22.3359375 13.671875  C 22.8619791666666 13.8578869047619  23.3072916666666 14.1066778273809  23.671875 14.4182477678571  C 24.0364583333333 14.7298177083334  24.359375 15.1064918154762  24.640625 15.5482700892858  C 24.921875 15.9900483630952  25.1458333333334 16.4434523809524  25.3125 16.9084821428571  C 25.4791666666666 17.3735119047619  25.6171875 17.8780691964286  25.7265625 18.4221540178571  C 25.8359375 18.9662388392858  25.9088541666666 19.4731212797619  25.9453125 19.9428013392858  Z M 8.828125 1.04631696428578  C 9.609375 1.74386160714289  10 2.58556547619048  10 3.57142857142856  C 10 4.55729166666663  9.609375 5.39899553571422  8.828125 6.09654017857144  C 8.046875 6.79408482142855  7.10416666666663 7.14285714285711  6 7.14285714285711  C 4.89583333333337 7.14285714285711  3.953125 6.79408482142855  3.171875 6.09654017857144  C 2.390625 5.39899553571422  2 4.55729166666663  2 3.57142857142856  C 2 2.58556547619048  2.390625 1.74386160714289  3.171875 1.04631696428578  C 3.953125 0.348772321428555  4.89583333333337 0  6 0  C 7.10416666666663 0  8.046875 0.348772321428555  8.828125 1.04631696428578  Z M 19.2421875 5.14090401785711  C 20.4140625 6.18722098214289  21 7.44977678571422  21 8.92857142857144  C 21 10.4073660714286  20.4140625 11.669921875  19.2421875 12.7162388392858  C 18.0703125 13.7625558035714  16.65625 14.2857142857142  15 14.2857142857142  C 13.34375 14.2857142857142  11.9296875 13.7625558035714  10.7578125 12.7162388392858  C 9.5859375 11.669921875  9 10.4073660714286  9 8.92857142857144  C 9 7.44977678571422  9.5859375 6.18722098214289  10.7578125 5.14090401785711  C 11.9296875 4.09458705357144  13.34375 3.57142857142856  15 3.57142857142856  C 16.65625 3.57142857142856  18.0703125 4.09458705357144  19.2421875 5.14090401785711  Z M 28.0625 7.14285714285711  C 29.3541666666667 7.14285714285711  30 8.78441220238091  30 12.0675223214286  C 30 12.79296875  29.7083333333333 13.3440290178571  29.125 13.720703125  C 28.5416666666666 14.0973772321429  27.8229166666666 14.2857142857142  26.96875 14.2857142857142  L 24.875 14.2857142857142  C 23.8020833333334 13.1417410714286  22.421875 12.5465029761905  20.734375 12.5  C 21.578125 11.4118303571429  22 10.2213541666666  22 8.92857142857144  C 22 8.65885416666663  21.9739583333334 8.35193452380952  21.921875 8.0078125  C 22.609375 8.2217261904762  23.3020833333334 8.32868303571422  24 8.32868303571422  C 24.6145833333334 8.32868303571422  25.234375 8.22870163690482  25.859375 8.02873883928578  C 26.484375 7.82877604166663  26.9921875 7.63113839285711  27.3828125 7.43582589285711  C 27.7734375 7.24051339285711  28 7.14285714285711  28.0625 7.14285714285711  Z M 26.828125 1.04631696428578  C 27.609375 1.74386160714289  28 2.58556547619048  28 3.57142857142856  C 28 4.55729166666663  27.609375 5.39899553571422  26.828125 6.09654017857144  C 26.046875 6.79408482142855  25.1041666666666 7.14285714285711  24 7.14285714285711  C 22.8958333333334 7.14285714285711  21.953125 6.79408482142855  21.171875 6.09654017857144  C 20.390625 5.39899553571422  20 4.55729166666663  20 3.57142857142856  C 20 2.58556547619048  20.390625 1.74386160714289  21.171875 1.04631696428578  C 21.953125 0.348772321428555  22.8958333333334 0  24 0  C 25.1041666666666 0  26.046875 0.348772321428555  26.828125 1.04631696428578  Z " fill-rule="nonzero" fill="#000000" stroke="none" transform="matrix(1 0 0 1 627 419 )" />
  </g>
</svg>