<?xml version="1.0" encoding="utf-8"?>
<svg version="1.1" xmlns:xlink="http://www.w3.org/1999/xlink" width="50px" height="40px" xmlns="http://www.w3.org/2000/svg">
  <g transform="matrix(1 0 0 1 -332 -506 )">
    <path d="M 25 21.8181818181819  L 25 10.909090909091  L 16 10.909090909091  L 16 21.8181818181819  L 25 21.8181818181819  Z M 12.5 29  L 28.125 29  L 28.125 32  L 12.5 32  L 12.5 29  Z M 13 8  L 28 8  L 28 25  L 13 25  L 13 8  Z M 31.25 29  L 43.75 29  L 43.75 32  L 31.25 32  L 31.25 29  Z M 31.25 21.8181818181819  L 43.75 21.8181818181819  L 43.75 25  L 31.25 25  L 31.25 21.8181818181819  Z M 31.25 15  L 43.75 15  L 43.75 18.1818181818181  L 31.25 18.1818181818181  L 31.25 15  Z M 31.25 8  L 43.75 8  L 43.75 11  L 31.25 11  L 31.25 8  Z M 5.7861328125 35.8238636363636  C 6.09537760416663 35.4640151515151  6.25 35.0378787878786  7 34.5454545454546  L 7 7.27272727272737  L 4 7.27272727272737  L 4 34.5454545454546  C 3.125 35.0378787878786  3.27962239583337 35.4640151515151  3.5888671875 35.8238636363636  C 3.89811197916663 36.1837121212121  4.26432291666663 36.3636363636364  4.6875 36.3636363636364  C 5.11067708333337 36.3636363636364  5.47688802083337 36.1837121212121  5.7861328125 35.8238636363636  Z M 46.4111328125 35.8238636363636  C 46.7203776041667 35.4640151515151  46.875 35.0378787878786  46 34.5454545454546  L 46 4  L 10 4  L 10 34.5454545454546  C 9.375 35.1704545454546  9.28548177083337 35.7765151515151  9.1064453125 36  L 45.3125 36  C 45.7356770833333 36.3636363636364  46.1018880208333 36.1837121212121  46.4111328125 35.8238636363636  Z M 6.25 0  L 50 0  L 50 34.5454545454546  C 50 36.060606060606  49.5442708333333 37.3484848484849  48.6328125 38.409090909091  C 47.7213541666667 39.469696969697  46.6145833333333 40  45.3125 40  L 4.6875 40  C 3.38541666666663 40  2.27864583333337 39.469696969697  1.3671875 38.409090909091  C 0.455729166666629 37.3484848484849  0 36.060606060606  0 34.5454545454546  L 0 3.63636363636363  L 6.25 3.63636363636363  L 6.25 0  Z " fill-rule="nonzero" fill="#000000" stroke="none" transform="matrix(1 0 0 1 332 506 )" />
  </g>
</svg>