<?xml version="1.0" encoding="utf-8"?>
<svg version="1.1" xmlns:xlink="http://www.w3.org/1999/xlink" width="40px" height="40px" xmlns="http://www.w3.org/2000/svg">
  <g transform="matrix(1 0 0 1 -860 -402 )">
    <path d="M 28.7740384615386 14.0056818181818  C 29.0785256410256 13.6458333333334  29.2307692307693 13.219696969697  29.2307692307693 12.7272727272727  C 29.2307692307693 12.2348484848485  29.0785256410256 11.8087121212121  28.7740384615386 11.4488636363637  C 28.4695512820513 11.0890151515151  28.1089743589744 10.909090909091  27.6923076923076 10.909090909091  L 24.6153846153845 10.909090909091  L 24.6153846153845 7.27272727272725  C 24.6153846153845 6.780303030303  24.4631410256411 6.35416666666663  24.1586538461538 5.99431818181824  C 23.8541666666667 5.63446969696963  23.4935897435898 5.4545454545455  23.0769230769231 5.4545454545455  C 22.6602564102564 5.4545454545455  22.2996794871794 5.63446969696963  21.9951923076924 5.99431818181824  C 21.6907051282051 6.35416666666663  21.5384615384614 6.780303030303  21.5384615384614 7.27272727272725  L 21.5384615384614 10.909090909091  L 18.4615384615386 10.909090909091  C 18.0448717948718 10.909090909091  17.6842948717949 11.0890151515151  17.3798076923076 11.4488636363637  C 17.0753205128206 11.8087121212121  16.9230769230769 12.2348484848485  16.9230769230769 12.7272727272727  C 16.9230769230769 13.219696969697  17.0753205128206 13.6458333333334  17.3798076923076 14.0056818181818  C 17.6842948717949 14.3655303030304  18.0448717948718 14.5454545454545  18.4615384615386 14.5454545454545  L 21.5384615384614 14.5454545454545  L 21.5384615384614 18.1818181818182  C 21.5384615384614 18.6742424242424  21.6907051282051 19.1003787878788  21.9951923076924 19.4602272727273  C 22.2996794871794 19.8200757575758  22.6602564102564 20  23.0769230769231 20  C 23.4935897435898 20  23.8541666666667 19.8200757575758  24.1586538461538 19.4602272727273  C 24.4631410256411 19.1003787878788  24.6153846153845 18.6742424242424  24.6153846153845 18.1818181818182  L 24.6153846153845 14.5454545454545  L 27.6923076923076 14.5454545454545  C 28.1089743589744 14.5454545454545  28.4695512820513 14.3655303030304  28.7740384615386 14.0056818181818  Z M 14.4831730769231 33.7926136363637  C 15.0841346153845 34.502840909091  15.3846153846155 35.3598484848485  15.3846153846155 36.3636363636363  C 15.3846153846155 37.3674242424242  15.0841346153845 38.2244318181818  14.4831730769231 38.934659090909  C 13.8822115384614 39.6448863636363  13.1570512820513 40  12.3076923076924 40  C 11.4583333333333 40  10.7331730769231 39.6448863636363  10.1322115384614 38.934659090909  C 9.53125 38.2244318181818  9.23076923076928 37.3674242424242  9.23076923076928 36.3636363636363  C 9.23076923076928 35.3598484848485  9.53125 34.502840909091  10.1322115384614 33.7926136363637  C 10.7331730769231 33.0823863636363  11.4583333333333 32.7272727272727  12.3076923076924 32.7272727272727  C 13.1570512820513 32.7272727272727  13.8822115384614 33.0823863636363  14.4831730769231 33.7926136363637  Z M 36.0216346153845 33.7926136363637  C 36.6225961538462 34.502840909091  36.9230769230769 35.3598484848485  36.9230769230769 36.3636363636363  C 36.9230769230769 37.3674242424242  36.6225961538462 38.2244318181818  36.0216346153845 38.934659090909  C 35.4206730769231 39.6448863636363  34.6955128205129 40  33.8461538461538 40  C 32.9967948717949 40  32.2716346153845 39.6448863636363  31.6706730769231 38.934659090909  C 31.0697115384614 38.2244318181818  30.7692307692307 37.3674242424242  30.7692307692307 36.3636363636363  C 30.7692307692307 35.3598484848485  31.0697115384614 34.502840909091  31.6706730769231 33.7926136363637  C 32.2716346153845 33.0823863636363  32.9967948717949 32.7272727272727  33.8461538461538 32.7272727272727  C 34.6955128205129 32.7272727272727  35.4206730769231 33.0823863636363  36.0216346153845 33.7926136363637  Z M 39.5432692307693 4.17613636363626  C 39.8477564102564 4.53598484848487  40 4.96212121212125  40 5.4545454545455  L 40 20  C 40 20.4545454545455  39.8717948717949 20.8570075757576  39.6153846153845 21.2073863636364  C 39.3589743589744 21.5577651515151  39.0304487179487 21.7613636363636  38.6298076923076 21.8181818181818  L 13.5336538461538 25.284090909091  C 13.5496794871794 25.4166666666666  13.5857371794871 25.6202651515151  13.6418269230769 25.8948863636364  C 13.6979166666667 26.1695075757576  13.7459935897436 26.4204545454545  13.7860576923076 26.6477272727273  C 13.8261217948718 26.875  13.8461538461538 27.0833333333334  13.8461538461538 27.2727272727273  C 13.8461538461538 27.5757575757576  13.6538461538462 28.1818181818182  13.2692307692307 29  L 35.3846153846155 29  C 35.801282051282 29.090909090909  36.1618589743589 29.2708333333334  36.4663461538462 29.6306818181818  C 36.7708333333333 29.9905303030304  36.9230769230769 30.4166666666666  36.9230769230769 30.909090909091  C 36.9230769230769 31.4015151515151  36.7708333333333 31.8276515151515  36.4663461538462 32.1875  C 36.1618589743589 32.5473484848485  35.801282051282 32.7272727272727  35.3846153846155 32  L 10.7692307692307 32  C 10.3525641025642 32.7272727272727  9.99198717948707 32.5473484848485  9.6875 32.1875  C 9.38301282051293 31.8276515151515  9.23076923076928 31.4015151515151  9.23076923076928 30.909090909091  C 9.23076923076928 30.6439393939394  9.31891025641016 30.2698863636363  9.49519230769238 29.7869318181818  C 9.67147435897436 29.3039772727273  9.90785256410254 28.7405303030303  10.2043269230769 28.096590909091  C 10.5008012820513 27.4526515151515  10.6650641025642 27.092803030303  10.6971153846155 27.0170454545455  L 6.44230769230762 3.63636363636374  L 1.53846153846143 3.63636363636374  C 1.12179487179492 3.63636363636374  0.761217948718013 3.45643939393938  0.456730769230717 3.09659090909099  C 0.152243589743648 2.73674242424238  0 2.31060606060612  0 1.81818181818176  C 0 1.32575757575762  0.152243589743648 0.899621212121247  0.456730769230717 0.539772727272748  C 0.761217948718013 0.179924242424249  1.12179487179492 0  1.53846153846143 0  L 7.69230769230762 0  C 7.94871794871801 0  8.17708333333326 0.0615530303030027  8.37740384615381 0.184659090909008  C 8.57772435897436 0.307765151515127  8.73798076923072 0.454545454545496  8.85817307692309 0.625  C 8.97836538461547 0.795454545454504  9.08253205128199 1.02746212121212  9.17067307692309 1.32102272727275  C 9.2588141025642 1.61458333333337  9.31891025641016 1.86553030303037  9.35096153846143 2.07386363636374  C 9.38301282051293 2.282196969697  9.42708333333326 2.561553030303  9.48317307692309 2.91193181818176  C 9.53926282051293 3.26231060606062  9.57532051282055 3.50378787878788  9.59134615384619 4  L 38.4615384615386 4  C 38.8782051282051 3.63636363636374  39.238782051282 3.81628787878788  39.5432692307693 4.17613636363626  Z " fill-rule="nonzero" fill="#000000" stroke="none" transform="matrix(1 0 0 1 860 402 )" />
  </g>
</svg>