<?xml version="1.0" encoding="utf-8"?>
<svg version="1.1" xmlns:xlink="http://www.w3.org/1999/xlink" width="40px" height="30px" xmlns="http://www.w3.org/2000/svg">
  <g transform="matrix(1 0 0 1 -321 -406 )">
    <path d="M 8 15  L 13 15  L 13 25  L 8 25  L 8 15  Z M 15 5  L 20 5  L 20 25  L 15 25  L 15 5  Z M 3 27  L 40 27  L 40 30  L 0 30  L 0 0  L 3 0  L 3 27  Z M 22 10  L 27 10  L 27 25  L 22 25  L 22 10  Z M 30 2.5  L 35 2.5  L 35 25  L 30 25  L 30 2.5  Z " fill-rule="nonzero" fill="#000000" stroke="none" transform="matrix(1 0 0 1 321 406 )" />
  </g>
</svg>