<?xml version="1.0" encoding="utf-8"?>
<svg version="1.1" xmlns:xlink="http://www.w3.org/1999/xlink" width="40px" height="30px" xmlns="http://www.w3.org/2000/svg">
  <g transform="matrix(1 0 0 1 -590 -406 )">
    <path d="M 20 16.3636363636364  L 20 8.18181818181819  L 12.5 8.18181818181819  L 12.5 16.3636363636364  L 20 16.3636363636364  Z M 10 21.8181818181818  L 22.5 21.8181818181818  L 22.5 24  L 10 24  L 10 21.8181818181818  Z M 10 6  L 22 6  L 22 19  L 10 19  L 10 6  Z M 25 21.8181818181818  L 35 21.8181818181818  L 35 24  L 25 24  L 25 21.8181818181818  Z M 25 16  L 35 16  L 35 19  L 25 19  L 25 16  Z M 25 11  L 35 11  L 35 14  L 25 14  L 25 11  Z M 25 6  L 35 6  L 35 8.18181818181819  L 25 8.18181818181819  L 25 6  Z M 4.62890625 26.8678977272727  C 4.87630208333331 26.5980113636364  5 26.2784090909091  5 25.9090909090909  L 5 5.45454545454544  L 3 5.45454545454544  L 3 25.9090909090909  C 2.5 26.2784090909091  2.62369791666669 26.5980113636364  2.87109375 26.8678977272727  C 3.11848958333331 27.1377840909091  3.41145833333331 27.2727272727273  3.75 27.2727272727273  C 4.08854166666669 27.2727272727273  4.38151041666669 27.1377840909091  4.62890625 26.8678977272727  Z M 37.12890625 26.8678977272727  C 37.3763020833334 26.5980113636364  37.5 26.2784090909091  37 25.9090909090909  L 37 3  L 8 3  L 8 25.9090909090909  C 7.5 26.3778409090909  7.42838541666669 26.8323863636364  7.28515625 27  L 36.25 27  C 36.5885416666666 27.2727272727273  36.8815104166666 27.1377840909091  37.12890625 26.8678977272727  Z M 5 0  L 40 0  L 40 25.9090909090909  C 40 27.0454545454545  39.6354166666666 28.0113636363636  38.90625 28.8068181818182  C 38.1770833333334 29.6022727272727  37.2916666666666 30  36.25 30  L 3.75 30  C 2.70833333333331 30  1.82291666666669 29.6022727272727  1.09375 28.8068181818182  C 0.364583333333314 28.0113636363636  0 27.0454545454545  0 25.9090909090909  L 0 2.72727272727269  L 5 2.72727272727269  L 5 0  Z " fill-rule="nonzero" fill="#000000" stroke="none" transform="matrix(1 0 0 1 590 406 )" />
  </g>
</svg>