<?xml version="1.0" encoding="utf-8"?>
<svg version="1.1" xmlns:xlink="http://www.w3.org/1999/xlink" width="130px" height="130px" xmlns="http://www.w3.org/2000/svg">
  <g transform="matrix(1 0 0 1 -857 -462 )">
    <path d="M 58 9.99999999999977  L 58 69.53125  L 98.8541666666667 112.1875  C 93.5378086419753 117.8125  87.3312114197531 122.1875  80.234375 125.3125  C 73.1375385802469 128.4375  65.6520061728395 130  57.7777777777778 130  C 47.295524691358 130  37.6282793209878 127.317708333333  28.7760416666667 121.953125  C 19.9238040123457 116.588541666667  12.914737654321 109.309895833333  7.74884259259261 100.1171875  C 2.5829475308642 90.924479166667  0 80.8854166666665  0 70  C 0 59.1145833333335  2.5829475308642 49.0755208333335  7.74884259259261 39.8828124999998  C 12.914737654321 30.6901041666665  19.9238040123457 23.4114583333333  28.7760416666667 18.0468749999998  C 37.6282793209878 12.682291666667  47.295524691358 9.99999999999977  58 9.99999999999977  Z M 112.847222222222 112.65625  L 71.8460648148148 70  L 130 70  C 130 78.177083333333  128.49537037037 85.9505208333333  125.486111111111 93.3203124999998  C 122.476851851852 100.690104166667  118.263888888889 107.135416666667  112.847222222222 112.65625  Z M 117.436342592593 29.8828125  C 122.602237654321 39.075520833333  125.185185185185 49.1145833333335  125.185185185185 60  L 67 60  L 67 0  C 77.8896604938273 0  87.5569058641975 2.68229166666652  96.4091435185185 8.046875  C 105.261381172839 13.4114583333335  112.270447530864 20.6901041666667  117.436342592593 29.8828125  Z " fill-rule="nonzero" fill="#1f6137" stroke="none" transform="matrix(1 0 0 1 857 462 )" />
  </g>
</svg>