<?xml version="1.0" encoding="utf-8"?>
<svg version="1.1" xmlns:xlink="http://www.w3.org/1999/xlink" width="130px" height="130px" xmlns="http://www.w3.org/2000/svg">
  <g transform="matrix(1 0 0 1 -676 -462 )">
    <path d="M 9 119  L 130 119  L 130 130  L 0 130  L 0 0  L 9 0  L 9 119  Z M 121.3037109375 11.5950520833335  C 121.6845703125 12.1028645833335  121.875 12.7517361111115  121 13.5416666666665  L 121 50.3580729166665  C 121.875 51.54296875  121.46240234375 52.3752170138885  120.63720703125 52.8548177083335  C 119.81201171875 53.3344184027778  119.060872395833 53.1228298611115  118.3837890625 52.2200520833335  L 110.703125 41.9791666666665  L 70.5224609375 95.5533854166665  C 70.0992838541667 96.1176215277778  69.6126302083333 96.3997395833335  69.0625 96.3997395833335  C 68.5123697916667 96.3997395833335  68.0257161458333 96.1176215277778  67.6025390625 95.5533854166665  L 52.8125 75.8333333333335  L 26.40625 111.041666666667  L 14.21875 94.7916666666665  L 51.3525390625 45.2799479166665  C 51.7757161458333 44.7157118055557  52.2623697916667 44.43359375  52.8125 44.43359375  C 53.3626302083333 44.43359375  53.8492838541667 44.7157118055557  54.2724609375 45.2799479166665  L 69.0625 65  L 98.515625 25.7291666666665  L 90.8349609375 15.48828125  C 90.1578776041667 14.5855034722222  89.9991861979167 13.583984375  90.35888671875 12.4837239583335  C 90.7185872395833 11.3834635416665  91.3427734375 10.8333333333335  92.2314453125 11  L 119.84375 11  C 120.436197916667 10.8333333333335  120.9228515625 11.0872395833335  121.3037109375 11.5950520833335  Z " fill-rule="nonzero" fill="#000000" stroke="none" transform="matrix(1 0 0 1 676 462 )" />
  </g>
</svg>