<?xml version="1.0" encoding="utf-8"?>
<svg version="1.1" xmlns:xlink="http://www.w3.org/1999/xlink" width="130px" height="130px" xmlns="http://www.w3.org/2000/svg">
  <g transform="matrix(1 0 0 1 -1035 -462 )">
    <path d="M 75.0716145833333 33.26171875  C 75.5794270833333 33.76953125  75.8333333333333 34.4184027777776  75 35.2083333333335  L 75 73.125  C 75.8333333333333 73.9149305555552  75.5794270833333 74.5638020833335  75.0716145833333 75.0716145833335  C 74.5638020833333 75.5794270833335  73.9149305555557 75.8333333333335  73.125 75  L 46.0416666666667 75  C 45.2517361111111 75.8333333333335  44.6028645833333 75.5794270833335  44.0950520833333 75.0716145833335  C 43.5872395833333 74.5638020833335  43.3333333333333 73.9149305555552  43.3333333333333 73.125  L 43.3333333333333 67.7083333333335  C 43.3333333333333 66.9184027777776  43.5872395833333 66.26953125  44.0950520833333 65.76171875  C 44.6028645833333 65.25390625  45.2517361111111 65  46.0416666666667 65  L 65 65  L 65 35.2083333333335  C 65 34.4184027777776  65.25390625 33.76953125  65.76171875 33.26171875  C 66.26953125 32.75390625  66.9184027777778 32.5  67.7083333333333 32.5  L 73.125 32.5  C 73.9149305555557 32.5  74.5638020833333 32.75390625  75.0716145833333 33.26171875  Z M 104.86328125 88.10546875  C 108.982204861111 81.0525173611111  111.041666666667 73.3506944444448  111.041666666667 65  C 111.041666666667 56.6493055555552  108.982204861111 48.9474826388889  104.86328125 41.89453125  C 100.744357638889 34.8415798611111  95.1584201388889 29.2556423611111  88.10546875 25.13671875  C 81.0525173611111 21.0177951388889  73.3506944444443 18.9583333333335  65 18.9583333333335  C 56.6493055555557 18.9583333333335  48.9474826388889 21.0177951388889  41.89453125 25.13671875  C 34.8415798611111 29.2556423611111  29.2556423611111 34.8415798611111  25.13671875 41.89453125  C 21.0177951388889 48.9474826388889  18.9583333333333 56.6493055555552  18.9583333333333 65  C 18.9583333333333 73.3506944444448  21.0177951388889 81.0525173611111  25.13671875 88.10546875  C 29.2556423611111 95.1584201388889  34.8415798611111 100.744357638889  41.89453125 104.86328125  C 48.9474826388889 108.982204861111  56.6493055555557 111.041666666667  65 111.041666666667  C 73.3506944444443 111.041666666667  81.0525173611111 108.982204861111  88.10546875 104.86328125  C 95.1584201388889 100.744357638889  100.744357638889 95.1584201388889  104.86328125 88.10546875  Z M 121.282552083333 32.373046875  C 127.094184027778 42.3318142361111  130 53.2074652777776  130 65  C 130 76.7925347222224  127.094184027778 87.6681857638889  121.282552083333 97.626953125  C 115.470920138889 107.585720486111  107.585720486111 115.470920138889  97.626953125 121.282552083333  C 87.6681857638889 127.094184027778  76.7925347222222 130  65 130  C 53.2074652777778 130  42.3318142361111 127.094184027778  32.373046875 121.282552083333  C 22.4142795138889 115.470920138889  14.5290798611111 107.585720486111  8.71744791666674 97.626953125  C 2.90581597222217 87.6681857638889  0 76.7925347222224  0 65  C 0 53.2074652777776  2.90581597222217 42.3318142361111  8.71744791666674 32.373046875  C 14.5290798611111 22.4142795138889  22.4142795138889 14.5290798611111  32.373046875 8.71744791666652  C 42.3318142361111 2.9058159722224  53.2074652777778 0  65 0  C 76.7925347222222 0  87.6681857638889 2.9058159722224  97.626953125 8.71744791666652  C 107.585720486111 14.5290798611111  115.470920138889 22.4142795138889  121.282552083333 32.373046875  Z " fill-rule="nonzero" fill="#000000" stroke="none" transform="matrix(1 0 0 1 1035 462 )" />
  </g>
</svg>