<?xml version="1.0" encoding="utf-8"?>
<svg version="1.1" xmlns:xlink="http://www.w3.org/1999/xlink" width="40px" height="39px" xmlns="http://www.w3.org/2000/svg">
  <g transform="matrix(1 0 0 1 -648 -515 )">
    <path d="M 10.6666666666667 13.9285714285714  C 10.6666666666667 15.9453125  11.2291666666667 17.8024553571429  12.3541666666667 19.5  C 10.1041666666667 19.5725446428571  8.26388888888891 20.5011160714286  6.83333333333326 22.2857142857143  L 4.04166666666674 22.2857142857143  C 2.90277777777771 22.2857142857143  1.94444444444446 21.9919084821429  1.16666666666674 21.404296875  C 0.388888888888914 20.8166852678571  0 19.95703125  0 18.8253348214286  C 0 13.7036830357143  0.861111111111086 11.1428571428571  2.58333333333326 11.1428571428571  C 2.66666666666674 11.1428571428571  2.96875 11.2952008928571  3.48958333333326 11.5998883928571  C 4.01041666666674 11.9045758928571  4.6875 12.212890625  5.52083333333326 12.5248325892857  C 6.35416666666674 12.8367745535714  7.18055555555554 12.9927455357143  8 12.9927455357143  C 8.93055555555554 12.9927455357143  9.85416666666674 12.8258928571429  10.7708333333333 12.4921875  C 10.7013888888889 13.0290178571429  10.6666666666667 13.5078125  10.6666666666667 13.9285714285714  Z M 34.59375 31.1107700892857  C 34.6423611111111 31.8434709821429  34.6666666666667 32.5943080357143  34.6666666666667 33.36328125  C 34.6666666666667 35.1043526785714  34.1597222222223 36.4790736607143  33.1458333333333 37.4874441964286  C 32.1319444444445 38.4958147321429  30.7847222222223 39  29.1041666666667 39  L 10.8958333333333 39  C 9.21527777777771 39  7.86805555555554 38.4958147321429  6.85416666666674 37.4874441964286  C 5.84027777777771 36.4790736607143  5.33333333333326 35.1043526785714  5.33333333333326 33.36328125  C 5.33333333333326 32.5943080357143  5.35763888888891 31.8434709821429  5.40625 31.1107700892857  C 5.45486111111109 30.3780691964286  5.55208333333326 29.5873325892857  5.69791666666674 28.7385602678571  C 5.84375 27.8897879464286  6.02777777777771 27.1026785714286  6.25 26.3772321428571  C 6.47222222222229 25.6517857142857  6.77083333333326 24.9444754464286  7.14583333333326 24.2553013392857  C 7.52083333333326 23.5661272321429  7.95138888888891 22.978515625  8.4375 22.4924665178571  C 8.92361111111109 22.0064174107143  9.51736111111109 21.6183035714286  10.21875 21.328125  C 10.9201388888889 21.0379464285714  11.6944444444445 20.8928571428571  12.5416666666667 20.8928571428571  C 12.6805555555555 20.8928571428571  12.9791666666667 21.048828125  13.4375 21.3607700892857  C 13.8958333333333 21.6727120535714  14.4027777777777 22.0209263392857  14.9583333333333 22.4054129464286  C 15.5138888888889 22.7898995535714  16.2569444444445 23.1381138392857  17.1875 23.4500558035714  C 18.1180555555555 23.7619977678571  19.0555555555555 23.91796875  20 23.91796875  C 20.9444444444445 23.91796875  21.8819444444445 23.7619977678571  22.8125 23.4500558035714  C 23.7430555555555 23.1381138392857  24.4861111111111 22.7898995535714  25.0416666666667 22.4054129464286  C 25.5972222222223 22.0209263392857  26.1041666666667 21.6727120535714  26.5625 21.3607700892857  C 27.0208333333333 21.048828125  27.3194444444445 20.8928571428571  27.4583333333333 20.8928571428571  C 28.3055555555555 20.8928571428571  29.0798611111111 21.0379464285714  29.78125 21.328125  C 30.4826388888889 21.6183035714286  31.0763888888889 22.0064174107143  31.5625 22.4924665178571  C 32.0486111111111 22.978515625  32.4791666666667 23.5661272321429  32.8541666666667 24.2553013392857  C 33.2291666666667 24.9444754464286  33.5277777777777 25.6517857142857  33.75 26.3772321428571  C 33.9722222222223 27.1026785714286  34.15625 27.8897879464286  34.3020833333333 28.7385602678571  C 34.4479166666667 29.5873325892857  34.5451388888889 30.3780691964286  34.59375 31.1107700892857  Z M 11.7708333333333 1.63225446428567  C 12.8125 2.72042410714289  13.3333333333333 4.03348214285711  13.3333333333333 5.57142857142856  C 13.3333333333333 7.109375  12.8125 8.42243303571433  11.7708333333333 9.51060267857144  C 10.7291666666667 10.5987723214286  9.47222222222229 11.1428571428571  8 11.1428571428571  C 6.52777777777771 11.1428571428571  5.27083333333326 10.5987723214286  4.22916666666674 9.51060267857144  C 3.1875 8.42243303571433  2.66666666666674 7.109375  2.66666666666674 5.57142857142856  C 2.66666666666674 4.03348214285711  3.1875 2.72042410714289  4.22916666666674 1.63225446428567  C 5.27083333333326 0.544084821428555  6.52777777777771 0  8 0  C 9.47222222222229 0  10.7291666666667 0.544084821428555  11.7708333333333 1.63225446428567  Z M 25.65625 8.01981026785711  C 27.21875 9.65206473214289  28 11.6216517857143  28 13.9285714285714  C 28 16.2354910714286  27.21875 18.205078125  25.65625 19.8373325892857  C 24.09375 21.4695870535714  22.2083333333333 22.2857142857143  20 22.2857142857143  C 17.7916666666667 22.2857142857143  15.90625 21.4695870535714  14.34375 19.8373325892857  C 12.78125 18.205078125  12 16.2354910714286  12 13.9285714285714  C 12 11.6216517857143  12.78125 9.65206473214289  14.34375 8.01981026785711  C 15.90625 6.38755580357144  17.7916666666667 5.57142857142856  20 5.57142857142856  C 22.2083333333333 5.57142857142856  24.09375 6.38755580357144  25.65625 8.01981026785711  Z M 37.4166666666667 11.1428571428571  C 39.1388888888889 11.1428571428571  40 13.7036830357143  40 18.8253348214286  C 40 19.95703125  39.6111111111111 20.8166852678571  38.8333333333333 21.404296875  C 38.0555555555555 21.9919084821429  37.0972222222223 22.2857142857143  35.9583333333333 22.2857142857143  L 33.1666666666667 22.2857142857143  C 31.7361111111111 20.5011160714286  29.8958333333333 19.5725446428571  27.6458333333333 19.5  C 28.7708333333333 17.8024553571429  29.3333333333333 15.9453125  29.3333333333333 13.9285714285714  C 29.3333333333333 13.5078125  29.2986111111111 13.0290178571429  29.2291666666667 12.4921875  C 30.1458333333333 12.8258928571429  31.0694444444445 12.9927455357143  32 12.9927455357143  C 32.8194444444445 12.9927455357143  33.6458333333333 12.8367745535714  34.4791666666667 12.5248325892857  C 35.3125 12.212890625  35.9895833333333 11.9045758928571  36.5104166666667 11.5998883928571  C 37.03125 11.2952008928571  37.3333333333333 11.1428571428571  37.4166666666667 11.1428571428571  Z M 35.7708333333333 1.63225446428567  C 36.8125 2.72042410714289  37.3333333333333 4.03348214285711  37.3333333333333 5.57142857142856  C 37.3333333333333 7.109375  36.8125 8.42243303571433  35.7708333333333 9.51060267857144  C 34.7291666666667 10.5987723214286  33.4722222222223 11.1428571428571  32 11.1428571428571  C 30.5277777777777 11.1428571428571  29.2708333333333 10.5987723214286  28.2291666666667 9.51060267857144  C 27.1875 8.42243303571433  26.6666666666667 7.109375  26.6666666666667 5.57142857142856  C 26.6666666666667 4.03348214285711  27.1875 2.72042410714289  28.2291666666667 1.63225446428567  C 29.2708333333333 0.544084821428555  30.5277777777777 0  32 0  C 33.4722222222223 0  34.7291666666667 0.544084821428555  35.7708333333333 1.63225446428567  Z " fill-rule="nonzero" fill="#000000" stroke="none" transform="matrix(1 0 0 1 648 515 )" />
  </g>
</svg>