<?xml version="1.0" encoding="utf-8"?>
<svg version="1.1" xmlns:xlink="http://www.w3.org/1999/xlink" width="50px" height="39px" xmlns="http://www.w3.org/2000/svg">
  <g transform="matrix(1 0 0 1 -643 -451 )">
    <path d="M 9.66796875 27.3249289772728  C 10.3655133928572 26.6324573863636  10.7142857142857 25.7968749999999  10.7142857142857 24.8181818181819  C 10.7142857142857 23.8394886363636  10.3655133928572 23.00390625  9.66796875 22.3114346590909  C 8.97042410714283 21.6189630681819  8.12872023809524 21.2727272727272  7.14285714285717 21.2727272727272  C 6.15699404761904 21.2727272727272  5.31529017857144 21.6189630681819  4.61774553571433 22.3114346590909  C 3.92020089285717 23.00390625  3.57142857142856 23.8394886363636  3.57142857142856 24.8181818181819  C 3.57142857142856 25.7968749999999  3.92020089285717 26.6324573863636  4.61774553571433 27.3249289772728  C 5.31529017857144 28.0174005681819  6.15699404761904 28.3636363636364  7.14285714285717 28.3636363636364  C 8.12872023809524 28.3636363636364  8.97042410714283 28.0174005681819  9.66796875 27.3249289772728  Z M 15.0251116071428 14.9158380681819  C 15.72265625 14.2233664772728  16.0714285714286 13.3877840909092  16.0714285714286 12.4090909090909  C 16.0714285714286 11.4303977272727  15.72265625 10.5948153409091  15.0251116071428 9.90234375  C 14.3275669642857 9.20987215909093  13.4858630952381 8.86363636363643  12.5 8.86363636363643  C 11.5141369047619 8.86363636363643  10.6724330357143 9.20987215909093  9.97488839285717 9.90234375  C 9.27734375 10.5948153409091  8.92857142857144 11.4303977272727  8.92857142857144 12.4090909090909  C 8.92857142857144 13.3877840909092  9.27734375 14.2233664772728  9.97488839285717 14.9158380681819  C 10.6724330357143 15.6083096590909  11.5141369047619 15.9545454545455  12.5 15.9545454545455  C 13.4858630952381 15.9545454545455  14.3275669642857 15.6083096590909  15.0251116071428 14.9158380681819  Z M 30.0223214285714 28.2528409090909  C 29.6130952380952 27.2002840909091  28.9434523809524 26.3600852272727  28.0133928571428 25.7322443181819  L 30.8314732142857 15.1512784090909  C 30.9430803571428 14.6711647727273  30.8733258928572 14.2233664772728  30.6222098214286 13.8078835227272  C 30.37109375 13.3924005681817  30.0130208333334 13.1200284090908  29.5479910714286 12.9907670454545  C 29.0829613095238 12.8615056818181  28.6365327380952 12.9215198863636  28.2087053571428 13.1708096590909  C 27.7808779761905 13.4200994318181  27.5018601190476 13.7848011363636  27.3716517857143 14.2649147727272  L 24.5535714285714 24.8458806818181  C 23.4375 24.9382102272727  22.4423363095238 25.3398437499999  21.5680803571428 26.05078125  C 20.6938244047619 26.7617187500001  20.1078869047619 27.6711647727272  19.8102678571428 28.7791193181819  C 19.438244047619 30.2009943181818  19.624255952381 31.5490056818181  20.3683035714286 32.8231534090909  C 21.1123511904762 34.0973011363636  22.2005208333334 34.9190340909091  23.6328125 35.2883522727272  C 25.0651041666666 35.6576704545454  26.4229910714286 35.4730113636363  27.7064732142857 34.734375  C 28.9899553571428 33.9957386363637  29.8177083333334 32.9154829545454  30.1897321428572 31.4936079545455  C 30.4873511904762 30.3856534090909  30.4315476190476 29.3053977272728  30.0223214285714 28.2528409090909  Z M 45.3822544642857 27.3249289772728  C 46.0797991071428 26.6324573863636  46.4285714285714 25.7968749999999  46.4285714285714 24.8181818181819  C 46.4285714285714 23.8394886363636  46.0797991071428 23.00390625  45.3822544642857 22.3114346590909  C 44.6847098214286 21.6189630681819  43.843005952381 21.2727272727272  42.8571428571428 21.2727272727272  C 41.8712797619048 21.2727272727272  41.0295758928572 21.6189630681819  40.33203125 22.3114346590909  C 39.6344866071428 23.00390625  39.2857142857143 23.8394886363636  39.2857142857143 24.8181818181819  C 39.2857142857143 25.7968749999999  39.6344866071428 26.6324573863636  40.33203125 27.3249289772728  C 41.0295758928572 28.0174005681819  41.8712797619048 28.3636363636364  42.8571428571428 28.3636363636364  C 43.843005952381 28.3636363636364  44.6847098214286 28.0174005681819  45.3822544642857 27.3249289772728  Z M 27.5251116071428 9.59765625  C 28.22265625 8.90518465909093  28.5714285714286 8.06960227272731  28.5714285714286 7.09090909090907  C 28.5714285714286 6.11221590909082  28.22265625 5.2766335227272  27.5251116071428 4.58416193181813  C 26.8275669642857 3.89169034090907  25.9858630952381 3.5454545454545  25 3.5454545454545  C 24.0141369047619 3.5454545454545  23.1724330357143 3.89169034090907  22.4748883928572 4.58416193181813  C 21.77734375 5.2766335227272  21.4285714285714 6.11221590909082  21.4285714285714 7.09090909090907  C 21.4285714285714 8.06960227272731  21.77734375 8.90518465909093  22.4748883928572 9.59765625  C 23.1724330357143 10.2901278409091  24.0141369047619 10.6363636363636  25 10.6363636363636  C 25.9858630952381 10.6363636363636  26.8275669642857 10.2901278409091  27.5251116071428 9.59765625  Z M 40.0251116071428 14.9158380681819  C 40.72265625 14.2233664772728  41.0714285714286 13.3877840909092  41.0714285714286 12.4090909090909  C 41.0714285714286 11.4303977272727  40.72265625 10.5948153409091  40.0251116071428 9.90234375  C 39.3275669642857 9.20987215909093  38.4858630952381 8.86363636363643  37.5 8.86363636363643  C 36.5141369047619 8.86363636363643  35.6724330357143 9.20987215909093  34.9748883928572 9.90234375  C 34.27734375 10.5948153409091  33.9285714285714 11.4303977272727  33.9285714285714 12.4090909090909  C 33.9285714285714 13.3877840909092  34.27734375 14.2233664772728  34.9748883928572 14.9158380681819  C 35.6724330357143 15.6083096590909  36.5141369047619 15.9545454545455  37.5 15.9545454545455  C 38.4858630952381 15.9545454545455  39.3275669642857 15.6083096590909  40.0251116071428 14.9158380681819  Z M 48.0189732142857 15.1789772727272  C 49.3396577380952 18.2443181818182  50 21.4573863636363  50 24.8181818181819  C 50 29.6377840909091  48.6886160714286 34.0973011363636  46.0658482142857 38.1967329545455  C 45.7124255952381 38.7322443181818  45.210193452381 39  44.5591517857143 39  L 5.44084821428567 39  C 4.78980654761904 39  4.28757440476193 38.7322443181818  3.93415178571428 38.1967329545455  C 1.31138392857144 34.1157670454546  0 29.6562500000001  0 24.8181818181819  C 0 21.4573863636363  0.660342261904759 18.2443181818182  1.98102678571433 15.1789772727272  C 3.3017113095238 12.1136363636364  5.078125 9.47301136363643  7.31026785714283 7.2571022727272  C 9.54241071428567 5.04119318181813  12.202380952381 3.27769886363637  15.2901785714286 1.96661931818187  C 18.3779761904762 0.655539772727252  21.6145833333334 0  25 0  C 28.3854166666666 0  31.6220238095238 0.655539772727252  34.7098214285714 1.96661931818187  C 37.797619047619 3.27769886363637  40.4575892857143 5.04119318181813  42.6897321428572 7.2571022727272  C 44.921875 9.47301136363643  46.6982886904762 12.1136363636364  48.0189732142857 15.1789772727272  Z " fill-rule="nonzero" fill="#000000" stroke="none" transform="matrix(1 0 0 1 643 451 )" />
  </g>
</svg>