<?xml version="1.0" encoding="utf-8"?>
<svg version="1.1" xmlns:xlink="http://www.w3.org/1999/xlink" width="35px" height="50px" xmlns="http://www.w3.org/2000/svg">
  <g transform="matrix(1 0 0 1 -536 -513 )">
    <path d="M 23.6865234375 22.55859375  C 25.3955078125 20.9309895833334  26.25 18.9670138888889  26.25 16.6666666666666  C 26.25 14.3663194444443  25.3955078125 12.40234375  23.6865234375 10.7747395833334  C 21.9775390625 9.14713541666663  19.9153645833333 8.33333333333337  17.5 8.33333333333337  C 15.0846354166667 8.33333333333337  13.0224609375 9.14713541666663  11.3134765625 10.7747395833334  C 9.6044921875 12.40234375  8.75 14.3663194444443  8.75 16.6666666666666  C 8.75 18.9670138888889  9.6044921875 20.9309895833334  11.3134765625 22.55859375  C 13.0224609375 24.1861979166666  15.0846354166667 25  17.5 25  C 19.9153645833333 25  21.9775390625 24.1861979166666  23.6865234375 22.55859375  Z M 29.873046875 4.8828125  C 33.291015625 8.13802083333337  35 12.0659722222223  35 16.6666666666666  C 35 19.0321180555557  34.6240234375 20.9743923611111  33.8720703125 22.4934895833334  L 21.4306640625 47.6888020833334  C 21.0660807291667 48.4049479166666  20.52490234375 48.9691840277777  19.80712890625 49.3815104166666  C 19.08935546875 49.7938368055557  18.3203125 50  17.5 50  C 16.6796875 50  15.91064453125 49.7938368055557  15.19287109375 49.3815104166666  C 14.47509765625 48.9691840277777  13.9453125 48.4049479166666  13.603515625 47.6888020833334  L 1.1279296875 22.4934895833334  C 0.3759765625 20.9743923611111  0 19.0321180555557  0 16.6666666666666  C 0 12.0659722222223  1.708984375 8.13802083333337  5.126953125 4.8828125  C 8.544921875 1.62760416666663  12.6692708333333 0  17.5 0  C 22.3307291666667 0  26.455078125 1.62760416666663  29.873046875 4.8828125  Z " fill-rule="nonzero" fill="#000000" stroke="none" transform="matrix(1 0 0 1 536 513 )" />
  </g>
</svg>