<?xml version="1.0" encoding="utf-8"?>
<svg version="1.1" xmlns:xlink="http://www.w3.org/1999/xlink" width="25px" height="25px" xmlns="http://www.w3.org/2000/svg">
  <g transform="matrix(1 0 0 1 -1037 -548 )">
    <path d="M 6.73076923076951 18.75  C 6.73076923076951 18.8802083333334  6.68569711538453 18.9953926282052  6.59555288461547 19.0955528846152  L 2.74939903846143 22.9417067307693  C 2.63922275641039 23.0318509615383  2.52403846153857 23.076923076923  2.40384615384596 23.076923076923  C 2.28365384615404 23.076923076923  2.16846955128221 23.0318509615383  2.05829326923049 22.9417067307693  C 1.96814903846143 22.8415464743589  1.92307692307691 22.7263621794871  1.92307692307691 22.5961538461538  C 1.92307692307691 22.4659455128204  1.96814903846143 22.3507612179488  2.05829326923049 22.2506009615383  L 5.90444711538453 18.4044471153848  C 6.00460737179492 18.3143028846152  6.11979166666674 18.2692307692307  6.25 18.2692307692307  C 6.38020833333349 18.2692307692307  6.49539262820508 18.3143028846152  6.59555288461547 18.4044471153848  C 6.68569711538453 18.5046073717948  6.73076923076951 18.6197916666666  6.73076923076951 18.75  Z M 8.99939903846143 19.365985576923  C 9.08954326923049 19.4561298076923  9.13461538461547 19.5713141025641  9.13461538461547 19.7115384615383  L 9.13461538461547 24.5192307692307  C 9.13461538461547 24.6594551282052  9.08954326923049 24.774639423077  8.99939903846143 24.8647836538462  C 8.90925480769238 24.9549278846155  8.79407051282033 25  8.65384615384596 25  C 8.51362179487182 25  8.3984375 24.9549278846155  8.30829326923049 24.8647836538462  C 8.21814903846143 24.774639423077  8.17307692307668 24.6594551282052  8.17307692307668 24.5192307692307  L 8.17307692307668 19.7115384615383  C 8.17307692307668 19.5713141025641  8.21814903846143 19.4561298076923  8.30829326923049 19.365985576923  C 8.3984375 19.2758413461538  8.51362179487182 19.2307692307693  8.65384615384596 19.2307692307693  C 8.79407051282033 19.2307692307693  8.90925480769238 19.2758413461538  8.99939903846143 19.365985576923  Z M 5.63401442307668 16.0006009615383  C 5.72415865384596 16.0907451923077  5.76923076923049 16.2059294871793  5.76923076923049 16.3461538461538  C 5.76923076923049 16.4863782051282  5.72415865384596 16.6015625  5.63401442307668 16.6917067307693  C 5.54387019230762 16.7818509615383  5.42868589743603 16.826923076923  5.28846153846143 16.826923076923  L 0.480769230769511 16.826923076923  C 0.340544871794918 16.826923076923  0.225360576923322 16.7818509615383  0.135216346154039 16.6917067307693  C 0.0450721153845279 16.6015625  0 16.4863782051282  0 16.3461538461538  C 0 16.2059294871793  0.0450721153845279 16.0907451923077  0.135216346154039 16.0006009615383  C 0.225360576923322 15.9104567307693  0.340544871794918 15.8653846153848  0.480769230769511 15.8653846153848  L 5.28846153846143 15.8653846153848  C 5.42868589743603 15.8653846153848  5.54387019230762 15.9104567307693  5.63401442307668 16.0006009615383  Z M 23.497596153846 15.204326923077  C 24.3389423076924 16.0657051282052  24.7596153846155 17.0873397435898  24.7596153846155 18.2692307692307  C 24.7596153846155 19.4711538461538  24.3339342948718 20.487780448718  23.4825721153845 21.319110576923  L 21.2740384615386 23.5126201923077  C 20.4427083333333 24.3439503205129  19.4260817307695 24.7596153846155  18.224158653846 24.7596153846155  C 17.0122195512822 24.7596153846155  15.9905849358977 24.3339342948718  15.1592548076921 23.4825721153845  L 10.1412259615386 18.4495192307693  C 9.93088942307668 18.2391826923077  9.72055288461547 17.9587339743589  9.51021634615404 17.608173076923  L 13.1009615384614 17.3377403846152  L 17.2025240384614 21.454326923077  C 17.4729567307695 21.7247596153845  17.813501602564 21.8624799679488  18.224158653846 21.8674879807693  C 18.6348157051282 21.8724959935898  18.9753605769233 21.7397836538462  19.2457932692305 21.4693509615383  L 21.4543269230767 19.2758413461538  C 21.7347756410259 18.9953926282052  21.875 18.6598557692307  21.875 18.2692307692307  C 21.875 17.8685897435898  21.7347756410259 17.5280448717948  21.4543269230767 17.2475961538462  L 17.3377403846155 13.1159855769231  L 17.6081730769233 9.52524038461524  C 17.9587339743587 9.73557692307702  18.2391826923076 9.94591346153834  18.4495192307695 10.15625  L 23.497596153846 15.204326923077  Z M 14.8587740384614 6.55048076923072  C 15.0691105769233 6.76081730769226  15.2794471153845 7.04126602564111  15.489783653846 7.39182692307702  L 11.8990384615386 7.66225961538475  L 7.79747596153857 3.54567307692298  C 7.51702724358961 3.26522435897436  7.17648237179492 3.125  6.77584134615404 3.125  C 6.38521634615404 3.125  6.04467147435867 3.26021634615381  5.75420673076951 3.53064903846166  L 3.54567307692332 5.72415865384619  C 3.26522435897414 6.0046073717948  3.125 6.34014423076928  3.125 6.73076923076928  C 3.125 7.13141025641016  3.26522435897414 7.47195512820519  3.54567307692332 7.75240384615393  L 7.66225961538453 11.8689903846152  L 7.39182692307668 15.4747596153848  C 7.04126602564133 15.264423076923  6.76081730769238 15.0540865384615  6.55048076923049 14.84375  L 1.50240384615404 9.79567307692298  C 0.661057692307622 8.9342948717948  0.240384615384528 7.91266025641016  0.240384615384528 6.73076923076928  C 0.240384615384528 5.52884615384619  0.666065705128176 4.51221955128199  1.51742788461547 3.68088942307702  L 3.72596153846143 1.48737980769226  C 4.55729166666674 0.656049679487069  5.57391826923049 0.240384615384755  6.77584134615404 0.240384615384755  C 7.98778044871779 0.240384615384755  9.00941506410231 0.666065705128176  9.84074519230762 1.51742788461524  L 14.8587740384614 6.55048076923072  Z M 24.864783653846 8.30829326923072  C 24.9549278846155 8.3984375  25 8.51362179487182  25 8.65384615384619  C 25 8.79407051282067  24.9549278846155 8.90925480769226  24.864783653846 8.99939903846166  C 24.7746394230767 9.08954326923072  24.6594551282051 9.13461538461524  24.5192307692305 9.13461538461524  L 19.7115384615386 9.13461538461524  C 19.571314102564 9.13461538461524  19.4561298076924 9.08954326923072  19.3659855769233 8.99939903846166  C 19.275841346154 8.90925480769226  19.2307692307695 8.79407051282067  19.2307692307695 8.65384615384619  C 19.2307692307695 8.51362179487182  19.275841346154 8.3984375  19.3659855769233 8.30829326923072  C 19.4561298076924 8.21814903846166  19.571314102564 8.17307692307702  19.7115384615386 8.17307692307702  L 24.5192307692305 8.17307692307702  C 24.6594551282051 8.17307692307702  24.7746394230767 8.21814903846166  24.864783653846 8.30829326923072  Z M 16.6917067307695 0.135216346153811  C 16.7818509615386 0.225360576922981  16.8269230769233 0.340544871794805  16.8269230769233 0.480769230769283  L 16.8269230769233 5.28846153846166  C 16.8269230769233 5.42868589743591  16.7818509615386 5.54387019230774  16.6917067307695 5.63401442307702  C 16.6015625 5.72415865384619  16.4863782051282 5.76923076923072  16.346153846154 5.76923076923072  C 16.2059294871797 5.76923076923072  16.0907451923076 5.72415865384619  16.0006009615386 5.63401442307702  C 15.9104567307695 5.54387019230774  15.8653846153845 5.42868589743591  15.8653846153845 5.28846153846166  L 15.8653846153845 0.480769230769283  C 15.8653846153845 0.340544871794805  15.9104567307695 0.225360576922981  16.0006009615386 0.135216346153811  C 16.0907451923076 0.0450721153847553  16.2059294871797 0  16.346153846154 0  C 16.4863782051282 0  16.6015625 0.0450721153847553  16.6917067307695 0.135216346153811  Z M 23.0769230769233 2.40384615384619  C 23.0769230769233 2.53405448717933  23.0318509615386 2.64923878205116  22.9417067307695 2.74939903846166  L 19.0955528846155 6.59555288461525  C 18.985376602564 6.68569711538475  18.8701923076924 6.73076923076928  18.75 6.73076923076928  C 18.6298076923076 6.73076923076928  18.514623397436 6.68569711538475  18.4044471153845 6.59555288461525  C 18.3143028846155 6.49539262820519  18.2692307692305 6.38020833333337  18.2692307692305 6.25  C 18.2692307692305 6.11979166666663  18.3143028846155 6.0046073717948  18.4044471153845 5.90444711538476  L 22.2506009615386 2.05829326923072  C 22.3507612179487 1.96814903846166  22.4659455128203 1.92307692307702  22.596153846154 1.92307692307702  C 22.7263621794873 1.92307692307702  22.8415464743587 1.96814903846166  22.9417067307695 2.05829326923072  C 23.0318509615386 2.15845352564111  23.0769230769233 2.27363782051293  23.0769230769233 2.40384615384619  Z " fill-rule="nonzero" fill="#ff0000" stroke="none" transform="matrix(1 0 0 1 1037 548 )" />
  </g>
</svg>