<?xml version="1.0" encoding="utf-8"?>
<svg version="1.1" xmlns:xlink="http://www.w3.org/1999/xlink" width="25px" height="25px" xmlns="http://www.w3.org/2000/svg">
  <g transform="matrix(1 0 0 1 -729 -546 )">
    <path d="M 21.6299019607843 19.4087009803922  C 21.9158496732025 19.1227532679738  22.0588235294117 18.780637254902  22.0588235294117 18.3823529411765  C 22.0588235294117 17.9738562091503  21.9158496732025 17.626633986928  21.6299019607843 17.3406862745098  L 18.4436274509803 14.1544117647059  C 18.1576797385621 13.8684640522877  17.81045751634 13.7254901960785  17.4019607843138 13.7254901960785  C 16.9730392156862 13.7254901960785  16.6053921568628 13.8888888888889  16.2990196078431 14.2156862745098  C 16.3296568627452 14.2463235294117  16.4266748366013 14.3407883986928  16.5900735294117 14.4990808823529  C 16.7534722222222 14.6573733660131  16.8632557189542 14.7671568627451  16.9194240196077 14.8284313725489  C 16.9755923202615 14.8897058823529  17.0521854575163 14.9867238562092  17.1492034313726 15.1194852941176  C 17.2462214052287 15.2522467320262  17.3126021241831 15.3824550653594  17.3483455882354 15.5101102941176  C 17.3840890522877 15.6377655228758  17.4019607843138 15.7781862745098  17.4019607843138 15.9313725490196  C 17.4019607843138 16.3398692810458  17.2589869281046 16.687091503268  16.9730392156862 16.9730392156863  C 16.687091503268 17.2589869281046  16.3398692810458 17.4019607843137  15.9313725490197 17.4019607843137  C 15.7781862745098 17.4019607843137  15.6377655228757 17.3840890522877  15.5101102941176 17.3483455882354  C 15.3824550653594 17.3126021241831  15.2522467320262 17.2462214052288  15.1194852941176 17.1492034313726  C 14.9867238562092 17.0521854575163  14.8897058823529 16.9755923202615  14.8284313725489 16.9194240196078  C 14.7671568627452 16.8632557189542  14.657373366013 16.7534722222222  14.4990808823529 16.5900735294117  C 14.3407883986929 16.4266748366013  14.2463235294117 16.3296568627451  14.2156862745098 16.2990196078431  C 13.8786764705883 16.6156045751634  13.7101715686274 16.9883578431372  13.7101715686274 17.4172794117646  C 13.7101715686274 17.8257761437908  13.8531454248366 18.1729983660131  14.1390931372548 18.4589460784314  L 17.2947303921569 21.6299019607843  C 17.5704656862745 21.905637254902  17.9176879084966 22.0435049019608  18.3363970588234 22.0435049019608  C 18.7448937908496 22.0435049019608  19.092116013072 21.9107434640523  19.3780637254902 21.6452205882354  L 21.6299019607843 19.4087009803922  Z M 10.7843137254902 8.70098039215691  C 11.1213235294117 8.38439542483661  11.2898284313726 8.01164215686276  11.2898284313726 7.58272058823536  C 11.2898284313726 7.17422385620921  11.1468545751634 6.82700163398692  10.8609068627452 6.54105392156862  L 7.70526960784309 3.37009803921569  C 7.4193218954249 3.08415032679738  7.0720996732025 2.94117647058829  6.66360294117658 2.94117647058829  C 6.26531862745105 2.94117647058829  5.91809640522865 3.07904411764707  5.62193627450984 3.35477941176464  L 3.37009803921569 5.59129901960785  C 3.0841503267975 5.87724673202615  2.94117647058829 6.21936274509812  2.94117647058829 6.61764705882354  C 2.94117647058829 7.02614379084969  3.0841503267975 7.37336601307197  3.37009803921569 7.65931372549016  L 6.55637254901967 10.8455882352941  C 6.83210784313724 11.1213235294117  7.17933006535941 11.2591911764706  7.59803921568619 11.2591911764706  C 8.02696078431381 11.2591911764706  8.39460784313724 11.1008986928105  8.70098039215691 10.7843137254902  C 8.6703431372548 10.7536764705883  8.57332516339875 10.6592116013071  8.40992647058829 10.5009191176471  C 8.24652777777783 10.3426266339869  8.13674428104582 10.2328431372549  8.08057598039227 10.1715686274511  C 8.02440767973849 10.1102941176471  7.94781454248368 10.0132761437908  7.8507965686274 9.88051470588243  C 7.75377859477135 9.74775326797385  7.68739787581694 9.61754493464059  7.65165441176464 9.48988970588243  C 7.61591094771234 9.36223447712416  7.59803921568619 9.22181372549016  7.59803921568619 9.06862745098033  C 7.59803921568619 8.66013071895418  7.74101307189539 8.31290849673201  8.02696078431381 8.0269607843137  C 8.31290849673201 7.74101307189539  8.66013071895418 7.5980392156863  9.06862745098033 7.5980392156863  C 9.22181372549016 7.5980392156863  9.36223447712428 7.61591094771245  9.48988970588243 7.65165441176464  C 9.61754493464059 7.68739787581694  9.74775326797385 7.75377859477123  9.88051470588243 7.8507965686274  C 10.0132761437908 7.94781454248368  10.1102941176471 8.02440767973849  10.1715686274511 8.08057598039215  C 10.2328431372548 8.13674428104582  10.342626633987 8.24652777777783  10.5009191176471 8.40992647058829  C 10.6592116013071 8.57332516339875  10.7536764705883 8.67034313725492  10.7843137254902 8.70098039215691  Z M 23.7132352941176 15.2573529411765  C 24.5710784313726 16.1151960784314  25 17.156862745098  25 18.3823529411765  C 25 19.6078431372549  24.5659722222222 20.6444035947712  23.6979166666667 21.4920343137255  L 21.4460784313726 23.7285539215686  C 20.5984477124182 24.5761846405228  19.5618872549019 25  18.3363970588234 25  C 17.1006944444443 25  16.0590277777778 24.5659722222222  15.2113970588234 23.6979166666667  L 12.0557598039215 20.5269607843137  C 11.2081290849674 19.6793300653594  10.7843137254902 18.6427696078431  10.7843137254902 17.4172794117646  C 10.7843137254902 16.1611519607843  11.233660130719 15.093954248366  12.1323529411766 14.2156862745098  L 10.7843137254902 12.8676470588235  C 9.90604575163388 13.7663398692811  8.84395424836612 14.2156862745098  7.59803921568619 14.2156862745098  C 6.37254901960773 14.2156862745098  5.33088235294122 13.7867647058824  4.47303921568619 12.9289215686274  L 1.28676470588243 9.74264705882354  C 0.428921568627402 8.88480392156862  0 7.84313725490188  0 6.61764705882354  C 0 5.39215686274508  0.434027777777828 4.35559640522877  1.30208333333326 3.50796568627447  L 3.5539215686274 1.27144607843138  C 4.40155228758181 0.423815359477203  5.43811274509812 0  6.66360294117658 0  C 7.89930555555566 0  8.94097222222217 0.434027777777828  9.78860294117658 1.30208333333326  L 12.9442401960785 4.4730392156863  C 13.7918709150326 5.32066993464059  14.2156862745098 6.35723039215679  14.2156862745098 7.58272058823536  C 14.2156862745098 8.83884803921569  13.766339869281 9.906045751634  12.8676470588234 10.7843137254902  L 14.2156862745098 12.1323529411765  C 15.0939542483661 11.2336601307189  16.1560457516339 10.7843137254902  17.4019607843138 10.7843137254902  C 18.6274509803923 10.7843137254902  19.6691176470588 11.2132352941176  20.5269607843138 12.0710784313726  L 23.7132352941176 15.2573529411765  Z " fill-rule="nonzero" fill="#0c9d0c" stroke="none" transform="matrix(1 0 0 1 729 546 )" />
  </g>
</svg>