<?xml version="1.0" encoding="utf-8"?>
<svg version="1.1" xmlns:xlink="http://www.w3.org/1999/xlink" width="24px" height="40px" xmlns="http://www.w3.org/2000/svg">
  <g transform="matrix(1 0 0 1 -813 -414 )">
    <path d="M 13.70703125 27.5446428571428  C 14.2356770833333 28.2886904761905  14.5 29.1071428571428  14.5 30  C 14.5 31.1904761904762  14.0770833333333 32.202380952381  13.2312499999999 33.0357142857143  C 12.3854166666666 33.8690476190476  11.3583333333333 34.2857142857143  10.15 34.2857142857143  C 8.94166666666661 34.2857142857143  7.91458333333333 33.8690476190476  7.06875000000002 33.0357142857143  C 6.22291666666661 32.202380952381  5.80000000000007 31.1904761904762  5.80000000000007 30  C 5.80000000000007 29.1071428571428  6.06432291666658 28.2886904761905  6.59296874999995 27.5446428571428  C 7.12161458333333 26.8005952380952  7.82395833333328 26.2723214285714  9 25.9598214285714  L 9 11.4285714285714  L 12 11.4285714285714  L 12 25.9598214285714  C 12.4760416666667 26.2723214285714  13.1783854166666 26.8005952380952  13.70703125 27.5446428571428  Z M 15.281640625 35.0558035714286  C 16.6938802083333 33.6644345238095  17.3999999999999 31.9791666666666  17.3999999999999 30  C 17.3999999999999 28.8541666666666  17.1432291666666 27.7827380952381  16.6296874999999 26.7857142857143  C 16.1161458333333 25.7886904761905  15.40625 24.9553571428572  14.5 24.2857142857143  L 14.5 7.14285714285717  C 14.5 5.95238095238091  14.0770833333333 4.9404761904762  13.2312499999999 4.10714285714283  C 12.3854166666666 3.27380952380952  11.3583333333333 2.85714285714283  10.15 2.85714285714283  C 8.94166666666661 2.85714285714283  7.91458333333333 3.27380952380952  7.06875000000002 4.10714285714283  C 6.22291666666661 4.9404761904762  5.80000000000007 5.95238095238091  6 7.14285714285717  L 6 24.2857142857143  C 4.89375000000007 24.9553571428572  4.18385416666661 25.7886904761905  3.67031250000002 26.7857142857143  C 3.15677083333333 27.7827380952381  2.89999999999998 28.8541666666666  2.89999999999998 30  C 2.89999999999998 31.9791666666666  3.60611979166674 33.6644345238095  5.01835937499993 35.0558035714286  C 6.43059895833335 36.4471726190476  8.14114583333333 37.1428571428572  10.15 37.1428571428572  C 12.1588541666666 37.1428571428572  13.8694010416666 36.4471726190476  15.281640625 35.0558035714286  Z M 17 23.0133928571428  C 19.3333333333333 24.9627976190476  20.3 27.2916666666666  20.3 30  C 20.3 32.7529761904762  19.3069010416666 35.1078869047619  17.320703125 37.0647321428572  C 15.3345052083333 39.0215773809524  12.9442708333333 40  10.15 40  C 7.35572916666661 40  4.96549479166674 39.0215773809524  2.97929687499993 37.0647321428572  C 0.993098958333348 35.1078869047619  0 32.7529761904762  0 30  C 0 27.2916666666666  0.966666666666583 24.9627976190476  3 23.0133928571428  L 3 7.14285714285717  C 2.89999999999998 5.16369047619048  3.60611979166674 3.47842261904765  5.01835937499993 2.08705357142856  C 6.43059895833335 0.695684523809518  8.14114583333333 0  10.15 0  C 12.1588541666666 0  13.8694010416666 0.695684523809518  15.281640625 2.08705357142856  C 16.6938802083333 3.47842261904765  17.3999999999999 5.16369047619048  17 7.14285714285717  L 17 23.0133928571428  Z M 18.85 17.1428571428572  L 23.1999999999999 17.1428571428572  L 23.1999999999999 20  L 18.85 20  L 18.85 17.1428571428572  Z M 18.85 11.4285714285714  L 23.1999999999999 11.4285714285714  L 23.1999999999999 14.2857142857143  L 18.85 14.2857142857143  L 18.85 11.4285714285714  Z M 18.85 5.71428571428572  L 23.1999999999999 5.71428571428572  L 23.1999999999999 8.57142857142856  L 18.85 8.57142857142856  L 18.85 5.71428571428572  Z " fill-rule="nonzero" fill="#000000" stroke="none" transform="matrix(1 0 0 1 813 414 )" />
  </g>
</svg>