<?xml version="1.0" encoding="utf-8"?>
<svg version="1.1" xmlns:xlink="http://www.w3.org/1999/xlink" width="20px" height="20px" xmlns="http://www.w3.org/2000/svg">
  <g transform="matrix(1 0 0 1 -1416 -923 )">
    <path d="M 11.3195991091314 16.8088942307692  C 11.3901262063845 16.7327724358975  11.4253897550111 16.6386217948718  11.4253897550111 16.5264423076923  L 11.4253897550111 14.2427884615385  C 11.4253897550111 14.1306089743589  11.3901262063845 14.0364583333333  11.3195991091314 13.9603365384615  C 11.2490720118782 13.8842147435897  11.1655530809206 13.8461538461539  11.0690423162583 13.8461538461539  L 8.93095768374167 13.8461538461539  C 8.83444691907943 13.8461538461539  8.75092798812176 13.8842147435897  8.68040089086861 13.9603365384615  C 8.60987379361546 14.0364583333333  8.57461024498889 14.1306089743589  8.57461024498889 14.2427884615385  L 8.57461024498889 16.5264423076923  C 8.57461024498889 16.6386217948718  8.60987379361546 16.7327724358975  8.68040089086861 16.8088942307692  C 8.75092798812176 16.8850160256411  8.83444691907943 16.9230769230769  8.93095768374167 16.9230769230769  L 11.0690423162583 16.9230769230769  C 11.1655530809206 16.9230769230769  11.2490720118782 16.8850160256411  11.3195991091314 16.8088942307692  Z M 11.2861915367483 12.2295673076923  C 11.3567186340015 12.1774839743589  11.3956941351151 12.1113782051282  11.4031180400891 12.03125  L 11.6035634743876 6.51442307692309  C 11.6035634743876 6.41826923076923  11.5664439495175 6.3421474358974  11.4922048997773 6.28605769230768  C 11.3956941351151 6.19791666666669  11.3066072754269 6.15384615384613  11.2249443207127 6.15384615384613  L 8.77505567928733 6.15384615384613  C 8.69339272457313 6.15384615384613  8.60430586488491 6.19791666666669  8.50779510022272 6.28605769230768  C 8.43355605048254 6.3421474358974  8.39643652561244 6.42628205128204  8.39643652561244 6.53846153846155  L 8.58574610244989 12.03125  C 8.58574610244989 12.1113782051282  8.62286562731998 12.1774839743589  8.69710467706011 12.2295673076923  C 8.7713437268003 12.2816506410256  8.86043058648852 12.3076923076923  8.96436525612472 12.3076923076923  L 11.0244988864143 12.3076923076923  C 11.1284335560505 12.3076923076923  11.2156644394952 12.2816506410256  11.2861915367483 12.2295673076923  Z M 10.7238307349666 0.21634615384616  C 10.9465478841871 0.360576923076934  11.1210096510765 0.556891025641022  11.2472160356347 0.805288461538453  L 19.7995545657016 17.7283653846154  C 20.0593912397921 18.2331730769231  20.0519673348181 18.7379807692308  19.7772828507795 19.2427884615385  C 19.6510764662212 19.4751602564103  19.4784706755754 19.6594551282051  19.2594654788419 19.7956730769231  C 19.0404602821084 19.9318910256411  18.8047512991834 20  18.5523385300668 20  L 1.44766146993319 20  C 1.19524870081662 20  0.959539717891602 19.9318910256411  0.740534521158139 19.7956730769231  C 0.521529324424648 19.6594551282051  0.348923533778759 19.4751602564103  0.2227171492205 19.2427884615385  C -0.0519673348181016 18.7379807692308  -0.0593912397921201 18.2331730769231  0.200445434298445 17.7283653846154  L 8.75278396436528 0.805288461538453  C 8.87899034892354 0.556891025641022  9.05345211581295 0.360576923076934  9.27616926503339 0.21634615384616  C 9.49888641425389 0.0721153846153868  9.74016332590941 0  10 0  C 10.2598366740906 0  10.5011135857461 0.0721153846153868  10.7238307349666 0.21634615384616  Z " fill-rule="nonzero" fill="#000000" stroke="none" transform="matrix(1 0 0 1 1416 923 )" />
  </g>
</svg>