<?xml version="1.0" encoding="utf-8"?>
<svg version="1.1" xmlns:xlink="http://www.w3.org/1999/xlink" width="30px" height="22px" xmlns="http://www.w3.org/2000/svg">
  <g transform="matrix(1 0 0 1 -1338 -922 )">
    <path d="M 12.66357421875 16.865234375  C 12.97119140625 16.4976128472222  13.125 16.0512152777778  13.125 15.5260416666667  C 13.125 15.0104166666667  13.08837890625 14.5305989583333  13.01513671875 14.0865885416667  C 12.94189453125 13.642578125  12.822265625 13.212890625  12.65625 12.7975260416667  C 12.490234375 12.3821614583333  12.2412109375 12.0551215277778  11.9091796875 11.81640625  C 11.5771484375 11.5776909722222  11.181640625 11.4583333333333  10.72265625 11.4583333333333  C 10.09765625 12.0694444444445  9.3359375 12.375  8.4375 12.375  C 7.5390625 12.375  6.77734375 12.0694444444445  6.15234375 11.4583333333333  C 5.693359375 11.4583333333333  5.2978515625 11.5776909722222  4.9658203125 11.81640625  C 4.6337890625 12.0551215277778  4.384765625 12.3821614583333  4.21875 12.7975260416667  C 4.052734375 13.212890625  3.93310546875 13.642578125  3.85986328125 14.0865885416667  C 3.78662109375 14.5305989583333  3.75 15.0104166666667  3.75 15.5260416666667  C 3.75 16.0512152777778  3.90380859375 16.4976128472222  4.21142578125 16.865234375  C 4.51904296875 17.2328559027778  4.8876953125 17.4166666666667  5.3173828125 17.4166666666667  L 11.5576171875 17.4166666666667  C 11.9873046875 17.4166666666667  12.35595703125 17.2328559027778  12.66357421875 16.865234375  Z M 10.4296875 11.1145833333333  C 10.9765625 10.5798611111111  11.25 9.93055555555554  11.25 9.16666666666669  C 11.25 8.40277777777777  10.9765625 7.75347222222223  10.4296875 7.21875  C 9.8828125 6.68402777777777  9.21875 6.41666666666669  8.4375 6.41666666666669  C 7.65625 6.41666666666669  6.9921875 6.68402777777777  6.4453125 7.21875  C 5.8984375 7.75347222222223  5.625 8.40277777777777  5.625 9.16666666666669  C 5.625 9.93055555555554  5.8984375 10.5798611111111  6.4453125 11.1145833333333  C 6.9921875 11.6493055555555  7.65625 11.9166666666667  8.4375 11.9166666666667  C 9.21875 11.9166666666667  9.8828125 11.6493055555555  10.4296875 11.1145833333333  Z M 26.1181640625 16.37109375  C 26.2060546875 16.28515625  26.25 16.1753472222222  26.25 16.0416666666667  L 26.25 15.125  C 26.25 14.9913194444445  26.2060546875 14.8815104166667  26.1181640625 14.7955729166667  C 26.0302734375 14.7096354166667  25.91796875 14.6666666666667  25.78125 14.6666666666667  L 15.46875 14.6666666666667  C 15.33203125 14.6666666666667  15.2197265625 14.7096354166667  15.1318359375 14.7955729166667  C 15.0439453125 14.8815104166667  15 14.9913194444445  15 15.125  L 15 16.0416666666667  C 15 16.1753472222222  15.0439453125 16.28515625  15.1318359375 16.37109375  C 15.2197265625 16.45703125  15.33203125 16.5  15.46875 16.5  L 17.5000000005514 16.5  L 25.78125 16.5  C 25.91796875 16.5  26.0302734375 16.45703125  26.1181640625 16.37109375  Z M 20.4931640625 12.7044270833333  C 20.5810546875 12.6184895833333  20.625 12.5086805555555  20.625 12.375  L 20.625 11.4583333333333  C 20.625 11.3246527777778  20.5810546875 11.21484375  20.4931640625 11.12890625  C 20.4052734375 11.04296875  20.29296875 11  20.15625 11  L 15.46875 11  C 15.33203125 11  15.2197265625 11.04296875  15.1318359375 11.12890625  C 15.0439453125 11.21484375  15 11.3246527777778  15 11.4583333333333  L 15 12.375  C 15 12.5086805555555  15.0439453125 12.6184895833333  15.1318359375 12.7044270833333  C 15.2197265625 12.7903645833333  15.33203125 12.8333333333333  15.46875 12.8333333333333  L 20.15625 12.8333333333333  C 20.29296875 12.8333333333333  20.4052734375 12.7903645833333  20.4931640625 12.7044270833333  Z M 26.1181640625 12.7044270833333  C 26.2060546875 12.6184895833333  26.25 12.5086805555555  26.25 12.375  L 26.25 11.4583333333333  C 26.25 11.3246527777778  26.2060546875 11.21484375  26.1181640625 11.12890625  C 26.0302734375 11.04296875  25.91796875 11  25.78125 11  L 22.96875 11  C 22.83203125 11  22.7197265625 11.04296875  22.6318359375 11.12890625  C 22.5439453125 11.21484375  22.5 11.3246527777778  22.5 11.4583333333333  L 22.5 12.375  C 22.5 12.5086805555555  22.5439453125 12.6184895833333  22.6318359375 12.7044270833333  C 22.7197265625 12.7903645833333  22.83203125 12.8333333333333  22.96875 12.8333333333333  L 25.78125 12.8333333333333  C 25.91796875 12.8333333333333  26.0302734375 12.7903645833333  26.1181640625 12.7044270833333  Z M 26.1181640625 9.03776041666669  C 26.2060546875 8.95182291666669  26.25 8.84201388888886  26.25 8.70833333333331  L 26.25 7.79166666666669  C 26.25 7.65798611111114  26.2060546875 7.54817708333331  26.1181640625 7.46223958333331  C 26.0302734375 7.37630208333331  25.91796875 7.33333333333331  25.78125 7.33333333333331  L 15.46875 7.33333333333331  C 15.33203125 7.33333333333331  15.2197265625 7.37630208333331  15.1318359375 7.46223958333331  C 15.0439453125 7.54817708333331  15 7.65798611111114  15 7.79166666666669  L 15 8.70833333333331  C 15 8.84201388888886  15.0439453125 8.95182291666669  15.1318359375 9.03776041666669  C 15.2197265625 9.12369791666669  15.33203125 9.16666666666669  15.46875 9.16666666666669  L 25.78125 9.16666666666669  C 25.91796875 9.16666666666669  26.0302734375 9.12369791666669  26.1181640625 9.03776041666669  Z M 1.875 2.29166666666669  L 1.875 4  L 28.125 4  L 28.125 2.29166666666669  C 28.125 2.15798611111114  28.0810546875 2.04817708333331  27.9931640625 1.96223958333331  C 27.9052734375 1.87630208333331  27.79296875 1.83333333333331  27.65625 2  L 2.34375 2  C 2.20703125 1.83333333333331  2.0947265625 1.87630208333331  2.0068359375 1.96223958333331  C 1.9189453125 2.04817708333331  1.875 2.15798611111114  1.875 2.29166666666669  Z M 29.3115234375 0.673177083333314  C 29.7705078125 1.12196180555554  30 1.66145833333331  30 2.29166666666669  L 30 19.7083333333333  C 30 20.3385416666667  29.7705078125 20.8780381944445  29.3115234375 21.3268229166667  C 28.8525390625 21.7756076388889  28.30078125 22  27.65625 22  L 2.34375 22  C 1.69921875 22  1.1474609375 21.7756076388889  0.6884765625 21.3268229166667  C 0.2294921875 20.8780381944445  0 20.3385416666667  0 19.7083333333333  L 0 2.29166666666669  C 0 1.66145833333331  0.2294921875 1.12196180555554  0.6884765625 0.673177083333314  C 1.1474609375 0.224392361111143  1.69921875 0  2.34375 0  L 27.65625 0  C 28.30078125 0  28.8525390625 0.224392361111143  29.3115234375 0.673177083333314  Z " fill-rule="nonzero" fill="#000000" stroke="none" transform="matrix(1 0 0 1 1338 922 )" />
  </g>
</svg>