<?xml version="1.0" encoding="utf-8"?>
<svg version="1.1" xmlns:xlink="http://www.w3.org/1999/xlink" width="55px" height="52px" xmlns="http://www.w3.org/2000/svg">
  <g transform="matrix(1 0 0 1 -1275 -741 )">
    <path d="M 1275 741  L 1330 741  L 1330 793  L 1275 793  L 1275 741  " fill-rule="nonzero" fill="#cccccc" stroke="none" />
    <path d="M 1279 745  L 1326 745  L 1326 789  L 1279 789  L 1279 745  " fill-rule="nonzero" fill="#ffffff" stroke="none" />
    <path d="M 1307.5 756.6  C 1305.316 756.6  1303.6 754.884  1303.6 752.7  C 1303.6 750.516  1305.316 748.8  1307.5 748.8  C 1309.684 748.8  1311.4 750.516  1311.4 752.7  C 1311.4 754.884  1309.684 756.6  1307.5 756.6  " fill-rule="nonzero" fill="#cccccc" stroke="none" />
    <path d="M 1281 788  L 1281 765.45  L 1292 755.2  L 1307.4 764.741818181818  L 1316.2 761.35  L 1325 764.741818181818  L 1325 788  L 1281 788  " fill-rule="nonzero" fill="#169bd5" stroke="none" />
  </g>
</svg>