<?xml version="1.0" encoding="utf-8"?>
<svg version="1.1" xmlns:xlink="http://www.w3.org/1999/xlink" width="46px" height="39px" xmlns="http://www.w3.org/2000/svg">
  <g transform="matrix(1 0 0 1 -429 -490 )">
    <path d="M 12.2666666666668 13.9285714285714  C 12.2666666666668 15.9453125  12.9135416666667 17.8024553571429  14.2072916666668 19.5  C 11.6197916666667 19.5725446428571  9.50347222222223 20.5011160714286  7.85833333333323 22.2857142857143  L 4.64791666666673 22.2857142857143  C 3.33819444444435 22.2857142857143  2.23611111111114 21.9919084821429  1.34166666666675 21.404296875  C 0.447222222222251 20.8166852678571  0 19.95703125  0 18.8253348214286  C 0 13.7036830357143  0.990277777777749 11.1428571428571  2.97083333333325 11.1428571428571  C 3.06666666666678 11.1428571428571  3.4140625 11.2952008928571  4.01302083333326 11.5998883928571  C 4.61197916666674 11.9045758928571  5.390625 12.212890625  6.34895833333326 12.5248325892857  C 7.30729166666674 12.8367745535714  8.25763888888889 12.9927455357143  9.19999999999999 12.9927455357143  C 10.2701388888889 12.9927455357143  11.3322916666668 12.8258928571429  12.3864583333332 12.4921875  C 12.3065972222223 13.0290178571429  12.2666666666668 13.5078125  12.2666666666668 13.9285714285714  Z M 39.7828125 31.1107700892857  C 39.8387152777777 31.8434709821429  39.8666666666667 32.5943080357143  39.8666666666667 33.36328125  C 39.8666666666667 35.1043526785714  39.2836805555556 36.4790736607143  38.1177083333333 37.4874441964286  C 36.9517361111111 38.4958147321429  35.4024305555556 39  33.4697916666668 39  L 12.5302083333332 39  C 10.5975694444444 39  9.04826388888887 38.4958147321429  7.88229166666673 37.4874441964286  C 6.71631944444437 36.4790736607143  6.13333333333327 35.1043526785714  6.13333333333327 33.36328125  C 6.13333333333327 32.5943080357143  6.16128472222226 31.8434709821429  6.21718750000002 31.1107700892857  C 6.27309027777773 30.3780691964286  6.38489583333325 29.5873325892857  6.55260416666675 28.7385602678571  C 6.72031249999998 27.8897879464286  6.93194444444435 27.1026785714286  7.1875 26.3772321428571  C 7.44305555555565 25.6517857142857  7.78645833333326 24.9444754464286  8.21770833333323 24.2553013392857  C 8.64895833333327 23.5661272321429  9.14409722222223 22.978515625  9.703125 22.4924665178571  C 10.2621527777778 22.0064174107143  10.9449652777777 21.6183035714286  11.7515625 21.328125  C 12.5581597222222 21.0379464285714  13.4486111111111 20.8928571428571  14.4229166666668 20.8928571428571  C 14.5826388888889 20.8928571428571  14.9260416666668 21.048828125  15.453125 21.3607700892857  C 15.9802083333332 21.6727120535714  16.5631944444444 22.0209263392857  17.2020833333332 22.4054129464286  C 17.8409722222223 22.7898995535714  18.6954861111111 23.1381138392857  19.765625 23.4500558035714  C 20.8357638888889 23.7619977678571  21.9138888888889 23.91796875  23 23.91796875  C 24.0861111111111 23.91796875  25.1642361111111 23.7619977678571  26.234375 23.4500558035714  C 27.3045138888889 23.1381138392857  28.1590277777777 22.7898995535714  28.7979166666668 22.4054129464286  C 29.4368055555556 22.0209263392857  30.0197916666668 21.6727120535714  30.546875 21.3607700892857  C 31.0739583333332 21.048828125  31.4173611111111 20.8928571428571  31.5770833333332 20.8928571428571  C 32.5513888888889 20.8928571428571  33.4418402777778 21.0379464285714  34.2484375 21.328125  C 35.0550347222223 21.6183035714286  35.7378472222222 22.0064174107143  36.296875 22.4924665178571  C 36.8559027777778 22.978515625  37.3510416666667 23.5661272321429  37.7822916666668 24.2553013392857  C 38.2135416666667 24.9444754464286  38.5569444444444 25.6517857142857  38.8125 26.3772321428571  C 39.0680555555556 27.1026785714286  39.2796875 27.8897879464286  39.4473958333332 28.7385602678571  C 39.6151041666668 29.5873325892857  39.7269097222223 30.3780691964286  39.7828125 31.1107700892857  Z M 13.5364583333333 1.63225446428567  C 14.734375 2.72042410714289  15.3333333333333 4.03348214285711  15.3333333333333 5.57142857142856  C 15.3333333333333 7.109375  14.734375 8.42243303571433  13.5364583333333 9.51060267857144  C 12.3385416666667 10.5987723214286  10.8930555555556 11.1428571428571  9.19999999999999 11.1428571428571  C 7.50694444444434 11.1428571428571  6.06145833333323 10.5987723214286  4.86354166666678 9.51060267857144  C 3.66562499999998 8.42243303571433  3.06666666666678 7.109375  3.06666666666678 5.57142857142856  C 3.06666666666678 4.03348214285711  3.66562499999998 2.72042410714289  4.86354166666678 1.63225446428567  C 6.06145833333323 0.544084821428555  7.50694444444434 0  9.19999999999999 0  C 10.8930555555556 0  12.3385416666667 0.544084821428555  13.5364583333333 1.63225446428567  Z M 29.5046875 8.01981026785711  C 31.3015625 9.65206473214289  32.2 11.6216517857143  32.2 13.9285714285714  C 32.2 16.2354910714286  31.3015625 18.205078125  29.5046875 19.8373325892857  C 27.7078125 21.4695870535714  25.5395833333333 22.2857142857143  23 22.2857142857143  C 20.4604166666667 22.2857142857143  18.2921875 21.4695870535714  16.4953125 19.8373325892857  C 14.6984375 18.205078125  13.8 16.2354910714286  13.8 13.9285714285714  C 13.8 11.6216517857143  14.6984375 9.65206473214289  16.4953125 8.01981026785711  C 18.2921875 6.38755580357144  20.4604166666667 5.57142857142856  23 5.57142857142856  C 25.5395833333333 5.57142857142856  27.7078125 6.38755580357144  29.5046875 8.01981026785711  Z M 43.0291666666668 11.1428571428571  C 45.0097222222223 11.1428571428571  46 13.7036830357143  46 18.8253348214286  C 46 19.95703125  45.5527777777777 20.8166852678571  44.6583333333332 21.404296875  C 43.7638888888889 21.9919084821429  42.6618055555556 22.2857142857143  41.3520833333333 22.2857142857143  L 38.1416666666668 22.2857142857143  C 36.4965277777778 20.5011160714286  34.3802083333333 19.5725446428571  31.7927083333332 19.5  C 33.0864583333333 17.8024553571429  33.7333333333332 15.9453125  33.7333333333332 13.9285714285714  C 33.7333333333332 13.5078125  33.6934027777777 13.0290178571429  33.6135416666668 12.4921875  C 34.6677083333332 12.8258928571429  35.7298611111111 12.9927455357143  36.8 12.9927455357143  C 37.7423611111111 12.9927455357143  38.6927083333333 12.8367745535714  39.6510416666667 12.5248325892857  C 40.609375 12.212890625  41.3880208333333 11.9045758928571  41.9869791666667 11.5998883928571  C 42.5859375 11.2952008928571  42.9333333333332 11.1428571428571  43.0291666666668 11.1428571428571  Z M 41.1364583333332 1.63225446428567  C 42.334375 2.72042410714289  42.9333333333332 4.03348214285711  42.9333333333332 5.57142857142856  C 42.9333333333332 7.109375  42.334375 8.42243303571433  41.1364583333332 9.51060267857144  C 39.9385416666668 10.5987723214286  38.4930555555557 11.1428571428571  36.8 11.1428571428571  C 35.1069444444444 11.1428571428571  33.6614583333333 10.5987723214286  32.4635416666667 9.51060267857144  C 31.265625 8.42243303571433  30.6666666666667 7.109375  30.6666666666667 5.57142857142856  C 30.6666666666667 4.03348214285711  31.265625 2.72042410714289  32.4635416666667 1.63225446428567  C 33.6614583333333 0.544084821428555  35.1069444444444 0  36.8 0  C 38.4930555555557 0  39.9385416666668 0.544084821428555  41.1364583333332 1.63225446428567  Z " fill-rule="nonzero" fill="#000000" stroke="none" transform="matrix(1 0 0 1 429 490 )" />
  </g>
</svg>