<?xml version="1.0" encoding="utf-8"?>
<svg version="1.1" xmlns:xlink="http://www.w3.org/1999/xlink" width="30px" height="20px" xmlns="http://www.w3.org/2000/svg">
  <g transform="matrix(1 0 0 1 -1275 -923 )">
    <path d="M 2.14285714285717 16  L 2.14285714285717 18  L 19.2857142857143 18  L 19.2857142857143 16  L 2.14285714285717 16  Z M 2.14285714285717 9  L 2.14285714285717 11  L 19.2857142857143 11  L 19.2857142857143 9  L 2.14285714285717 9  Z M 27.9241071428572 18.2386363636364  C 28.2366071428572 17.9734848484848  28.3928571428572 17.6515151515152  28.3928571428572 17.2727272727273  C 28.3928571428572 16.8939393939394  28.2366071428572 16.5719696969697  27.9241071428572 16.3068181818181  C 27.6116071428572 16.0416666666667  27.2321428571428 15.9090909090909  26.7857142857143 15.9090909090909  C 26.3392857142857 15.9090909090909  25.9598214285714 16.0416666666667  25.6473214285714 16.3068181818181  C 25.3348214285714 16.5719696969697  25.1785714285714 16.8939393939394  25.1785714285714 17.2727272727273  C 25.1785714285714 17.6515151515152  25.3348214285714 17.9734848484848  25.6473214285714 18.2386363636364  C 25.9598214285714 18.5037878787879  26.3392857142857 18.6363636363636  26.7857142857143 18.6363636363636  C 27.2321428571428 18.6363636363636  27.6116071428572 18.5037878787879  27.9241071428572 18.2386363636364  Z M 2.14285714285717 2  L 2.14285714285717 4  L 19.2857142857143 4  L 19.2857142857143 2  L 2.14285714285717 2  Z M 27.9241071428572 10.9659090909091  C 28.2366071428572 10.7007575757576  28.3928571428572 10.3787878787879  28.3928571428572 10  C 28.3928571428572 9.62121212121212  28.2366071428572 9.29924242424238  27.9241071428572 9.03409090909088  C 27.6116071428572 8.76893939393938  27.2321428571428 8.63636363636363  26.7857142857143 8.63636363636363  C 26.3392857142857 8.63636363636363  25.9598214285714 8.76893939393938  25.6473214285714 9.03409090909088  C 25.3348214285714 9.29924242424238  25.1785714285714 9.62121212121212  25.1785714285714 10  C 25.1785714285714 10.3787878787879  25.3348214285714 10.7007575757576  25.6473214285714 10.9659090909091  C 25.9598214285714 11.2310606060606  26.3392857142857 11.3636363636364  26.7857142857143 11.3636363636364  C 27.2321428571428 11.3636363636364  27.6116071428572 11.2310606060606  27.9241071428572 10.9659090909091  Z M 27.9241071428572 3.69318181818187  C 28.2366071428572 3.42803030303031  28.3928571428572 3.10606060606062  28.3928571428572 2.72727272727269  C 28.3928571428572 2.34848484848482  28.2366071428572 2.02651515151518  27.9241071428572 1.76136363636363  C 27.6116071428572 1.49621212121212  27.2321428571428 1.36363636363637  26.7857142857143 1.36363636363637  C 26.3392857142857 1.36363636363637  25.9598214285714 1.49621212121212  25.6473214285714 1.76136363636363  C 25.3348214285714 2.02651515151518  25.1785714285714 2.34848484848482  25.1785714285714 2.72727272727269  C 25.1785714285714 3.10606060606062  25.3348214285714 3.42803030303031  25.6473214285714 3.69318181818187  C 25.9598214285714 3.95833333333331  26.3392857142857 4.09090909090912  26.7857142857143 4.09090909090912  C 27.2321428571428 4.09090909090912  27.6116071428572 3.95833333333331  27.9241071428572 3.69318181818187  Z M 0 14.5454545454546  L 30 14.5454545454546  L 30 20  L 0 20  L 0 14.5454545454546  Z M 0 7.27272727272731  L 30 7.27272727272731  L 30 12.7272727272727  L 0 12.7272727272727  L 0 7.27272727272731  Z M 0 0  L 30 0  L 30 5.45454545454544  L 0 5.45454545454544  L 0 0  Z " fill-rule="nonzero" fill="#000000" stroke="none" transform="matrix(1 0 0 1 1275 923 )" />
  </g>
</svg>